<?xml version="1.0" encoding="utf-8"?>
<!-- Generator: Adobe Illustrator 21.1.0, SVG Export Plug-In . SVG Version: 6.00 Build 0)  -->
<svg version="1.1" id="Layer_1" xmlns="http://www.w3.org/2000/svg" xmlns:xlink="http://www.w3.org/1999/xlink" x="0px" y="0px"
	 viewBox="0 0 1280 3276.05" style="enable-background:new 0 0 1280 3276.05;" xml:space="preserve">
<style type="text/css">
	.st0{fill:#F7F8F9;}
	.st1{fill:#EDF2F7;}
	.st2{fill:none;}
	.st3{fill:#B3B3B3;}
	.st4{font-family:'ProductSans-Regular';}
	.st5{font-size:13px;}
	.st6{fill:#DBDBDB;}
	.st7{font-family:'ProductSans-Bold';}
	.st8{font-size:24px;}
	.st9{fill:#DBDBDB;stroke:#DBDBDB;stroke-miterlimit:10;}
	.st10{fill:#4D4D4D;}
	.st11{font-size:18px;}
	.st12{fill:#FF931E;}
	.st13{fill:#F6F6F6;}
	.st14{font-size:80px;}
	.st15{fill:#FFFFFF;}
	.st16{fill:#333333;}
	.st17{font-size:36px;}
	.st18{fill:none;stroke:#666666;stroke-linecap:round;stroke-linejoin:round;stroke-dasharray:0.5,3;}
	.st19{fill:#666666;}
	.st20{fill:#FFFFFF;stroke:#FF931E;stroke-miterlimit:10;}
	.st21{font-size:12px;}
	.st22{fill:none;stroke:#666666;stroke-linecap:round;stroke-linejoin:round;}
	.st23{fill:none;stroke:#666666;stroke-linecap:round;stroke-linejoin:round;stroke-dasharray:0.4692,2.8155;}
	.st24{fill:none;stroke:#666666;stroke-linecap:round;stroke-linejoin:round;stroke-dasharray:0.4997,2.998;}
	.st25{fill:none;stroke:#666666;stroke-linecap:round;stroke-linejoin:round;stroke-dasharray:0.5223,3.1341;}
	.st26{fill:none;stroke:#666666;stroke-linecap:round;stroke-linejoin:round;stroke-miterlimit:10;stroke-dasharray:0.5,3;}
	.st27{fill:none;stroke:#666666;stroke-linecap:round;stroke-linejoin:round;stroke-dasharray:0.4982,2.9893;}
	.st28{fill:none;stroke:#666666;stroke-linecap:round;stroke-linejoin:round;stroke-dasharray:0.4891,2.9349;}
	.st29{fill:none;stroke:#666666;stroke-linecap:round;stroke-linejoin:round;stroke-dasharray:0.4993,2.9959;}
	.st30{fill:none;stroke:#666666;stroke-linecap:round;stroke-linejoin:round;stroke-dasharray:0.5082,3.0491;}
	.st31{fill:none;stroke:#666666;stroke-linecap:round;stroke-linejoin:round;stroke-dasharray:0.5013,3.0079;}
	.st32{fill:none;stroke:#666666;stroke-linecap:round;stroke-linejoin:round;stroke-dasharray:0.4839,2.9036;}
	.st33{font-size:73.8947px;}
	.st34{font-size:36.3px;}
	.st35{font-size:20px;}
	.st36{fill:none;stroke:#666666;stroke-width:0.5;stroke-miterlimit:10;}
</style>
<rect id="background" class="st0" width="1280" height="3276.05"/>
<g id="footer">
	<rect y="3188.63" class="st1" width="1280" height="87.42"/>
	<rect x="111.54" y="3215.67" class="st2" width="647.89" height="40.11"/>
	<text transform="matrix(1 0 0 1 111.5439 3226.8269)"><tspan x="0" y="0" class="st3 st4 st5">All logo and trademarks rights lie with their respective owners. Projects published in the website are intended for </tspan><tspan x="0" y="16" class="st3 st4 st5">academic and representational purposes which are non-commercial and referencial.</tspan></text>
	<g>
		<text transform="matrix(1 0 0 1 979.9475 3226.8267)" class="st3 st4 st5">Bengaluru, India © 2017 | atulkr.com</text>
	</g>
</g>
<g id="contactsSection">
	<rect x="1016.46" y="2856.96" class="st2" width="160.63" height="21.08"/>
	<text transform="matrix(1 0 0 1 1058.8982 2877.554)" class="st6 st7 st8">CONTACT</text>
	<line class="st9" x1="975.95" y1="2885.85" x2="1176.34" y2="2885.85"/>
	<rect id="XMLID_1_" x="942.98" y="3110" class="st2" width="234.22" height="20.65"/>
	<text id="twitterLink" transform="matrix(1 0 0 1 974.8083 3125.4468)" class="st10 st4 st11">twitter.com/_atul_kumar</text>
	<rect id="XMLID_2_" x="942.98" y="3068.54" class="st2" width="234.22" height="20.65"/>
	<text id="instaLink" transform="matrix(1 0 0 1 947.071 3083.9846)" class="st10 st4 st11">instagram.com/_atul_kumar</text>
	<rect id="XMLID_6_" x="942.98" y="3027.08" class="st2" width="234.22" height="20.65"/>
	<text id="linkedinLink" transform="matrix(1 0 0 1 989.0471 3042.5222)" class="st10 st4 st11">linkedin.com/in/atul-kr</text>
	<rect id="XMLID_5_" x="942.98" y="2985.62" class="st2" width="234.22" height="20.65"/>
	<text id="behanceLink" transform="matrix(1 0 0 1 967.9504 3001.0603)" class="st10 st4 st11">behance.net/_atul_kumar</text>
	<rect id="XMLID_4_" x="955.64" y="2944.15" class="st2" width="221.56" height="20.65"/>
	<text id="perEmailLink" transform="matrix(1 0 0 1 968.3469 2959.5981)" class="st10 st4 st11">myspace.atul@gmail.com</text>
	<rect id="XMLID_3_" x="1018.08" y="2902.69" class="st2" width="159.12" height="20.65"/>
	<text id="nidEmailLink" transform="matrix(1 0 0 1 1042.4333 2918.1357)" class="st10 st4 st11">atul_ku@nid.edu</text>
</g>
<g id="educationSection">
	<rect x="111.54" y="3019.21" class="st2" width="160.63" height="20.81"/>
	<text transform="matrix(1 0 0 1 111.5439 3039.8052)" class="st6 st7 st8">EDUCATION</text>
	<line class="st9" x1="113.16" y1="3046.26" x2="752.51" y2="3046.27"/>
	<g id="nidLink_1_">
		
			<image style="overflow:visible;" width="522" height="74" xlink:href="10F16357AB7075DB.png"  transform="matrix(0.5 0 0 0.5 113.157 3075.3044)">
		</image>
	</g>
	<g id="htwLink">
		
			<image style="overflow:visible;" width="196" height="114" xlink:href="10F16357AB7075D9.png"  transform="matrix(0.5 0 0 0.5 402.8779 3065.3044)">
		</image>
	</g>
	<g id="manipalLink">
		
			<image style="overflow:visible;" width="132" height="126" xlink:href="10F16357AB7075DF.png"  transform="matrix(0.5 0 0 0.5 553.4359 3062.3044)">
		</image>
	</g>
	<g id="smhsLink">
		
			<image style="overflow:visible;" width="96" height="96" xlink:href="10F16357AB7075D8.png"  transform="matrix(0.5 0 0 0.5 669.0966 3069.8044)">
		</image>
	</g>
</g>
<g id="experienceSection">
	<rect x="111.54" y="2856.96" class="st2" width="160.63" height="21.08"/>
	<text transform="matrix(1 0 0 1 111.5439 2877.554)" class="st6 st7 st8">EXPERIENCE</text>
	<line class="st9" x1="113.16" y1="2884.01" x2="752.51" y2="2884.02"/>
	<g id="microsoftLink">
		
			<image style="overflow:visible;" width="336" height="72" xlink:href="10F16357AB7075D6.png"  transform="matrix(0.5 0 0 0.5 109.697 2905.0891)">
		</image>
	</g>
	<g id="deloitteLink">
		
			<image style="overflow:visible;" width="256" height="48" xlink:href="10F16357AB7075D7.png"  transform="matrix(0.5 0 0 0.5 323.8779 2911.0891)">
		</image>
	</g>
	<g id="geLink">
		
			<image style="overflow:visible;" width="100" height="100" xlink:href="10F16357AB7075E7.png"  transform="matrix(0.5 0 0 0.5 510.6516 2898.0891)">
		</image>
	</g>
	<g id="ibmLink">
		
			<image style="overflow:visible;" width="180" height="72" xlink:href="10F16357AB7075E9.png"  transform="matrix(0.5229 0 0 0.5 625.5242 2905.0891)">
		</image>
	</g>
</g>
<g id="CTA">
	<g id="btnResume">
		<path id="reRect_1_" class="st12" d="M930.57,2783.73h-234c-4.42,0-8-3.58-8-8v-48c0-4.42,3.58-8,8-8h234c4.42,0,8,3.58,8,8v48
			C938.57,2780.15,934.99,2783.73,930.57,2783.73z"/>
		<text id="reText_1_" transform="matrix(1 0 0 1 731.5186 2756.8855)" class="st13 st7 st11">Download Résumé</text>
	</g>
	<g id="btnBehance">
		<path id="prRect_1_" class="st12" d="M583.43,2783.73h-234c-4.42,0-8-3.58-8-8v-48c0-4.42,3.58-8,8-8h234c4.42,0,8,3.58,8,8v48
			C591.43,2780.15,587.85,2783.73,583.43,2783.73z"/>
		<text id="prText_1_" transform="matrix(1 0 0 1 364.9553 2756.8857)" class="st13 st7 st11">View More on Behance</text>
	</g>
</g>
<g id="secondarySection">
	<rect x="107.54" y="2280.81" class="st2" width="572.46" height="102.82"/>
	<text transform="matrix(1 0 0 1 107.5439 2349.4524)" class="st6 st7 st14">Other Projects</text>
	<g id="projectMicrosoft">
		<g>
			<g>
				<path class="st12" d="M91.31,2448.09h24.42v-26.56H91.31c-1.18,0-2.14,0.96-2.14,2.14v22.29
					C89.17,2447.14,90.13,2448.09,91.31,2448.09z"/>
				<text transform="matrix(1 0 0 1 96.5595 2440.8347)" class="st15 st7 st11">7</text>
			</g>
			<g>
				
					<image style="overflow:visible;" width="360" height="244" xlink:href="10F16357AB7075EB.png"  transform="matrix(0.5 0 0 0.5 113 2411.5312)">
				</image>
			</g>
		</g>
		<rect x="111.82" y="2551.66" class="st2" width="200.42" height="83.09"/>
		<text transform="matrix(1 0 0 1 111.8175 2582.5513)"><tspan x="0" y="0" class="st16 st7 st17">Microsoft </tspan><tspan x="0" y="38" class="st16 st7 st17">Internship</tspan></text>
	</g>
	<g id="projectWeCycle">
		<g>
			<g>
				<path class="st12" d="M386.58,2448.09H411v-26.56h-24.42c-1.18,0-2.14,0.96-2.14,2.14v22.29
					C384.44,2447.14,385.4,2448.09,386.58,2448.09z"/>
				<text transform="matrix(1 0 0 1 391.828 2440.8347)" class="st15 st7 st11">8</text>
			</g>
			<g>
				
					<image style="overflow:visible;" width="360" height="244" xlink:href="72E35BABC74108B8.png"  transform="matrix(0.5 0 0 0.5 408.2686 2411.2812)">
				</image>
			</g>
		</g>
		<rect x="406.75" y="2551.66" class="st2" width="257.8" height="83.09"/>
		<text transform="matrix(1 0 0 1 406.7527 2582.5513)"><tspan x="0" y="0" class="st16 st7 st17">WeCycle: City </tspan><tspan x="0" y="38" class="st16 st7 st17">Cycle Share</tspan></text>
	</g>
	<g id="projectWT20">
		<g>
			<g>
				<path class="st12" d="M681.85,2448.09h24.42v-26.56h-24.42c-1.18,0-2.14,0.96-2.14,2.14v22.29
					C679.71,2447.14,680.67,2448.09,681.85,2448.09z"/>
				<text transform="matrix(1 0 0 1 687.0966 2440.8347)" class="st15 st7 st11">9</text>
			</g>
			<g>
				
					<image style="overflow:visible;" width="360" height="244" xlink:href="72E35BABC74108BF.png"  transform="matrix(0.5 0 0 0.5 703.5371 2411.2812)">
				</image>
			</g>
		</g>
		<rect x="701.69" y="2551.66" class="st2" width="257.8" height="83.09"/>
		<text transform="matrix(1 0 0 1 701.6879 2582.5513)"><tspan x="0" y="0" class="st16 st7 st17">Cricket WT20 </tspan><tspan x="0" y="38" class="st16 st7 st17">Data Vis.</tspan></text>
	</g>
	<g id="projectIRCTC">
		<g>
			<g>
				<path class="st12" d="M977.11,2448.09h24.42v-26.56h-24.42c-1.18,0-2.14,0.96-2.14,2.14v22.29
					C974.98,2447.14,975.93,2448.09,977.11,2448.09z"/>
				<text transform="matrix(1 0 0 1 977.3651 2440.8347)" class="st15 st7 st11">10</text>
			</g>
			<g>
				
					<image style="overflow:visible;" width="360" height="244" xlink:href="72E35BABC74108B9.png"  transform="matrix(0.5 0 0 0.5 998.8057 2411.2812)">
				</image>
			</g>
		</g>
		<rect x="996.62" y="2551.66" class="st2" width="257.8" height="75.98"/>
		<text transform="matrix(1 0 0 1 996.6231 2582.5513)"><tspan x="0" y="0" class="st16 st7 st17">IRCTC Web </tspan><tspan x="0" y="38" class="st16 st7 st17">Case Study</tspan></text>
	</g>
</g>
<g id="primarySection">
	<rect x="107.54" y="489" class="st2" width="572.46" height="175"/>
	<text transform="matrix(1 0 0 1 107.5439 557.6406)"><tspan x="0" y="0" class="st6 st7 st14">Recognised </tspan><tspan x="0" y="80" class="st6 st7 st14">Projects</tspan></text>
	<g id="project1">
		<g id="projectSaarathi">
			<g>
				<path class="st12" d="M91.31,727.81h24.42v-26.56H91.31c-1.18,0-2.14,0.96-2.14,2.14v22.29
					C89.17,726.85,90.13,727.81,91.31,727.81z"/>
				<text transform="matrix(1 0 0 1 97.1483 720.5535)" class="st15 st7 st11">1</text>
			</g>
			<g>
				
					<image style="overflow:visible;" width="360" height="244" xlink:href="72E35BABC74108BB.png"  transform="matrix(0.5 0 0 0.5 113 691)">
				</image>
			</g>
			<g>
				<text transform="matrix(1 0 0 1 312.2412 749.3389)" class="st16 st7 st17">Saarathi</text>
				<rect x="312.24" y="763.97" class="st2" width="260.76" height="40.03"/>
				<text transform="matrix(1 0 0 1 312.2412 779.4141)"><tspan x="0" y="0" class="st16 st4 st11">Research Project: Travel Buddy </tspan><tspan x="0" y="21.6" class="st16 st4 st11">Solution for Indian Railways</tspan></text>
			</g>
		</g>
		<g>
			<g>
				<line class="st18" x1="313.5" y1="812.5" x2="575.21" y2="812.5"/>
				<g>
					<circle class="st19" cx="575.12" cy="812.5" r="1.88"/>
				</g>
			</g>
		</g>
		<g>
			<g>
				<line class="st18" x1="785.37" y1="812.5" x2="892.29" y2="812.5"/>
				<g>
					<circle class="st19" cx="892.19" cy="812.5" r="1.88"/>
				</g>
			</g>
		</g>
		<g id="saarathiGoldLink">
			
				<image style="overflow:visible;" width="280" height="280" xlink:href="72E35BABC74108A6.png"  transform="matrix(0.5 0 0 0.5 602 846)">
			</image>
		</g>
		<rect x="602.35" y="793.22" class="st2" width="137.65" height="39.78"/>
		<text transform="matrix(1 0 0 1 602.3545 808.6621)"><tspan x="0" y="0" class="st12 st4 st11">Gold Award at </tspan><tspan x="0" y="21.6" class="st12 st4 st11">UXIndia-2017</tspan></text>
		<rect x="921.35" y="793.22" class="st2" width="272.65" height="39.78"/>
		<text transform="matrix(1 0 0 1 921.3545 808.6621)"><tspan x="0" y="0" class="st12 st4 st11">Paper Presentation &amp; Publication </tspan><tspan x="0" y="21.6" class="st12 st4 st11">at Interact2017</tspan></text>
		<g id="saarathiInteractLink">
			
				<image style="overflow:visible;" width="280" height="280" xlink:href="72E35BABC74108A7.png"  transform="matrix(0.5 0 0 0.5 922 847)">
			</image>
		</g>
		<g id="saarathiPaperLink_1_">
			
				<image style="overflow:visible;" width="180" height="280" xlink:href="72E35BABC74108A8.png"  transform="matrix(0.5 0 0 0.5 1085.3877 847)">
			</image>
		</g>
	</g>
	<g id="project2to6">
		<g id="projectTwyno">
			<g>
				<path class="st12" d="M91.31,1083.54h24.42v-26.56H91.31c-1.18,0-2.14,0.96-2.14,2.14v22.29
					C89.17,1082.58,90.13,1083.54,91.31,1083.54z"/>
				<text transform="matrix(1 0 0 1 96.5594 1076.2847)" class="st15 st7 st11">2</text>
			</g>
			<g>
				
					<image style="overflow:visible;" width="360" height="244" xlink:href="72E35BABC74108AB.png"  transform="matrix(0.5 0 0 0.5 113 1046.7312)">
				</image>
			</g>
			<g>
				<text transform="matrix(1 0 0 1 312.2412 1081.0701)" class="st16 st7 st17">Twyno</text>
				<rect x="312.24" y="1096.27" class="st2" width="248.13" height="63.46"/>
				<text transform="matrix(1 0 0 1 312.2412 1111.7126)"><tspan x="0" y="0" class="st16 st4 st11">Research Project: Educational </tspan><tspan x="0" y="21.6" class="st16 st4 st11">Board Game for Indian </tspan><tspan x="0" y="43.2" class="st16 st4 st11">Intangible Cultural Heritage</tspan></text>
			</g>
		</g>
		<g>
			<g>
				<line class="st18" x1="313.5" y1="1168.5" x2="575.21" y2="1168.5"/>
				<g>
					<circle class="st19" cx="575.12" cy="1168.5" r="1.88"/>
				</g>
			</g>
		</g>
		<g>
			<g>
				<line class="st18" x1="851.53" y1="1167.89" x2="892.29" y2="1167.89"/>
				<g>
					<circle class="st19" cx="892.19" cy="1167.89" r="1.88"/>
				</g>
			</g>
		</g>
		<rect x="920.85" y="1148.61" class="st2" width="229.01" height="39.78"/>
		<text transform="matrix(1 0 0 1 920.8545 1164.0542)"><tspan x="0" y="0" class="st12 st4 st11">Semifinalist at Adobe Design </tspan><tspan x="0" y="21.6" class="st12 st4 st11">Achievement Awards 2017</tspan></text>
		<rect x="222.82" y="1830.81" class="st2" width="302.43" height="39.78"/>
		<text transform="matrix(1 0 0 1 222.8171 1846.2568)"><tspan x="0" y="0" class="st12 st4 st11">Featured Showcase and Longlist for </tspan><tspan x="0" y="21.6" class="st12 st4 st11">Information-is-beautiful-awards-2017</tspan></text>
		<rect x="602" y="1148.59" class="st2" width="220.09" height="39.78"/>
		<text transform="matrix(1 0 0 1 602 1164.0344)"><tspan x="0" y="0" class="st12 st4 st11">Paper Presentation &amp; </tspan><tspan x="0" y="21.6" class="st12 st4 st11">Publication at IndiaHCI2016</tspan></text>
		<g id="adaaLiveLink">
			
				<image style="overflow:visible;" width="280" height="280" xlink:href="72E35BABC74108A9.png"  transform="matrix(0.5 0 0 0.5 894.0721 1200.9153)">
			</image>
		</g>
		<g id="twynoPaperLink">
			
				<image style="overflow:visible;" width="392" height="280" xlink:href="72E35BABC74108AF.png"  transform="matrix(0.5 0 0 0.5 603.9673 1200.9153)">
			</image>
		</g>
		<g id="projectTapTrac">
			<g>
				<g>
					<path class="st12" d="M901.29,1537.98h24.42v-26.56h-24.42c-1.18,0-2.14,0.96-2.14,2.14v22.29
						C899.16,1537.02,900.11,1537.98,901.29,1537.98z"/>
					<text transform="matrix(1 0 0 1 906.5449 1530.7189)" class="st15 st7 st11">4</text>
				</g>
				<g>
					
						<image style="overflow:visible;" width="360" height="244" xlink:href="72E35BABC74108C3.png"  transform="matrix(0.5 0 0 0.5 922.9854 1501.1654)">
					</image>
				</g>
			</g>
			<g>
				<rect x="921.8" y="1641.55" class="st2" width="257.8" height="46.35"/>
				<text transform="matrix(1 0 0 1 921.8029 1672.4355)" class="st16 st7 st17">TapTrac</text>
				<rect x="921.8" y="1694.63" class="st2" width="218.54" height="44.14"/>
				<text transform="matrix(1 0 0 1 921.8029 1710.0781)"><tspan x="0" y="0" class="st16 st4 st11">Universal Design: Wearable </tspan><tspan x="0" y="21.6" class="st16 st4 st11">for Orientation</tspan></text>
			</g>
		</g>
		<g id="nuclearPlayBtn">
			<path id="nuclearPlay_x5F_rect" class="st20" d="M603.49,1600.17h-50.81c-1.39,0-2.52-1.13-2.52-2.52v-16.69
				c0-1.39,1.13-2.52,2.52-2.52h50.81V1600.17z"/>
			<text id="nuclearPlay_x5F_text" transform="matrix(1 0 0 1 573.8792 1593.4868)" class="st12 st4 st21">Play</text>
			<g id="nuclearPlay_x5F_icon">
				<path id="nuclearPlay_x5F_icoCircle" class="st12" d="M562.26,1583.12c-3.62,0-6.57,2.95-6.57,6.57s2.95,6.57,6.57,6.57
					s6.57-2.95,6.57-6.57S565.88,1583.12,562.26,1583.12z M562.26,1595.25c-3.07,0-5.57-2.5-5.57-5.57s2.5-5.57,5.57-5.57
					s5.57,2.5,5.57,5.57S565.33,1595.25,562.26,1595.25z"/>
				<path id="nuclearPlay_x5F_icoTriangle" class="st12" d="M560.7,1587.58c-0.1-0.05-0.22,0.02-0.22,0.13v3.94
					c0,0.11,0.12,0.19,0.22,0.13l3.8-1.97c0.11-0.06,0.11-0.21,0-0.27L560.7,1587.58z"/>
			</g>
		</g>
		<g id="projectNuclear">
			<g>
				<g>
					<path class="st12" d="M579.8,1537.98h24.42v-26.56H579.8c-1.18,0-2.14,0.96-2.14,2.14v22.29
						C577.67,1537.02,578.62,1537.98,579.8,1537.98z"/>
					<text transform="matrix(1 0 0 1 585.0521 1530.7189)" class="st15 st7 st11">3</text>
				</g>
				<g>
					
						<image style="overflow:visible;" width="360" height="244" xlink:href="72E35BABC74108CD.png"  transform="matrix(0.5 0 0 0.5 601.4927 1501.1654)">
					</image>
				</g>
			</g>
			<g>
				<rect x="600.31" y="1641.55" class="st2" width="257.8" height="69.83"/>
				<text transform="matrix(1 0 0 1 600.3102 1672.4355)"><tspan x="0" y="0" class="st16 st7 st17">India’s Nuclear </tspan><tspan x="0" y="38" class="st16 st7 st17">Journey</tspan></text>
				<rect x="600.31" y="1728.63" class="st2" width="279.76" height="44.14"/>
				<text transform="matrix(1 0 0 1 600.3102 1744.0781)"><tspan x="0" y="0" class="st16 st4 st11">Data Narrative: Mapping India’s </tspan><tspan x="0" y="21.6" class="st16 st4 st11">Rise as a Nuclear Power</tspan></text>
			</g>
		</g>
		<g id="projectSlowFun">
			<g>
				<g>
					<path class="st12" d="M901.29,1929.06h24.42v-26.56h-24.42c-1.18,0-2.14,0.96-2.14,2.14v22.29
						C899.16,1928.1,900.11,1929.06,901.29,1929.06z"/>
					<text transform="matrix(1 0 0 1 906.5449 1921.8024)" class="st15 st7 st11">6</text>
				</g>
				<g>
					
						<image style="overflow:visible;" width="360" height="244" xlink:href="72E35BABC74108CF.png"  transform="matrix(0.5 0 0 0.5 922.9854 1892.2489)">
					</image>
				</g>
			</g>
			<g>
				<rect x="921.8" y="2032.63" class="st2" width="257.8" height="46.35"/>
				<text transform="matrix(1 0 0 1 921.8029 2063.519)" class="st16 st7 st17">Slow-Fun</text>
				<rect x="921.8" y="2085.72" class="st2" width="218.54" height="44.14"/>
				<text transform="matrix(1 0 0 1 921.8029 2101.1616)"><tspan x="0" y="0" class="st16 st4 st11">Experimental Design: Berlin </tspan><tspan x="0" y="21.6" class="st16 st4 st11">Metro Ticketing Experience</tspan></text>
			</g>
		</g>
		<g id="uncowlifyPlayBtn">
			<path id="uncowlifyPlay_x5F_rect" class="st20" d="M603.49,1991.12h-50.81c-1.39,0-2.52-1.13-2.52-2.52v-16.69
				c0-1.39,1.13-2.52,2.52-2.52h50.81V1991.12z"/>
			<text id="uncowlifyPlay_x5F_text" transform="matrix(1 0 0 1 573.8792 1984.4329)" class="st12 st4 st21">Play</text>
			<g id="uncowlifyPlay_x5F_icon">
				<path id="uncowlifyPlay_x5F_icoCircle" class="st12" d="M562.26,1974.06c-3.62,0-6.57,2.95-6.57,6.57s2.95,6.57,6.57,6.57
					s6.57-2.95,6.57-6.57S565.88,1974.06,562.26,1974.06z M562.26,1986.2c-3.07,0-5.57-2.5-5.57-5.57s2.5-5.57,5.57-5.57
					s5.57,2.5,5.57,5.57S565.33,1986.2,562.26,1986.2z"/>
				<path id="uncowlifyPlay_x5F_icoTriangle" class="st12" d="M560.7,1978.53c-0.1-0.05-0.22,0.02-0.22,0.13v3.94
					c0,0.11,0.12,0.19,0.22,0.13l3.8-1.97c0.11-0.06,0.11-0.21,0-0.27L560.7,1978.53z"/>
			</g>
		</g>
		<g id="projectUncowlify">
			<g>
				<g>
					<path class="st12" d="M579.8,1929.06h24.42v-26.56H579.8c-1.18,0-2.14,0.96-2.14,2.14v22.29
						C577.67,1928.1,578.62,1929.06,579.8,1929.06z"/>
					<text transform="matrix(1 0 0 1 585.0522 1921.8024)" class="st15 st7 st11">5</text>
				</g>
				<g>
					
						<image style="overflow:visible;" width="360" height="244" xlink:href="72E35BABC74108C2.png"  transform="matrix(0.5 0 0 0.5 601.4927 1892.2489)">
					</image>
				</g>
			</g>
			<g>
				<rect x="600.31" y="2032.63" class="st2" width="257.8" height="46.35"/>
				<text transform="matrix(1 0 0 1 600.3102 2063.519)" class="st16 st7 st17">Uncowlify</text>
				<rect x="600.31" y="2085.72" class="st2" width="231.72" height="67.17"/>
				<text transform="matrix(1 0 0 1 600.3102 2101.1616)"><tspan x="0" y="0" class="st16 st4 st11">Awareness Campaign, </tspan><tspan x="0" y="21.6" class="st16 st4 st11">Branding &amp; Data Visualisation </tspan><tspan x="0" y="43.2" class="st16 st4 st11">to Avoid Beef</tspan></text>
			</g>
		</g>
		<g>
			<g>
				<line class="st22" x1="1163.1" y1="1167.99" x2="1163.35" y2="1167.99"/>
				<line class="st23" x1="1166.17" y1="1167.99" x2="1177.9" y2="1167.99"/>
				<polyline class="st22" points="1179.31,1167.99 1179.56,1167.99 1179.56,1168.24 				"/>
				<line class="st24" x1="1179.56" y1="1171.23" x2="1179.56" y2="2121.1"/>
				<polyline class="st22" points="1179.56,2122.6 1179.56,2122.85 1179.31,2122.85 				"/>
				<line class="st25" x1="1176.17" y1="2122.85" x2="1152.14" y2="2122.85"/>
				<line class="st22" x1="1150.58" y1="2122.85" x2="1150.33" y2="2122.85"/>
				<g>
					<circle class="st19" cx="1163.2" cy="1167.99" r="1.88"/>
				</g>
			</g>
		</g>
		<line class="st26" x1="804.09" y1="1765.69" x2="1177.36" y2="1765.69"/>
		<line class="st26" x1="1177.36" y1="1731" x2="1148.33" y2="1730.99"/>
		<g id="nuclearKantarLink">
			
				<image style="overflow:visible;" width="214" height="280" xlink:href="72E35BABC74108C1.png"  transform="matrix(0.5 0 0 0.5 398.5691 1901.4336)">
			</image>
		</g>
		<g id="uncowlifyKantarLink">
			
				<image style="overflow:visible;" width="224" height="224" xlink:href="72E35BABC74108C5.png"  transform="matrix(0.5 0 0 0.5 222 1901)">
			</image>
		</g>
		<g>
			<g>
				<line class="st22" x1="580.31" y1="1765.69" x2="580.06" y2="1765.69"/>
				<line class="st27" x1="577.07" y1="1765.69" x2="439.06" y2="1765.69"/>
				<polyline class="st22" points="437.57,1765.69 437.32,1765.69 437.32,1765.94 				"/>
				<line class="st28" x1="437.32" y1="1768.88" x2="437.32" y2="1805.08"/>
				<line class="st22" x1="437.32" y1="1806.54" x2="437.32" y2="1806.79"/>
				<g>
					<circle class="st19" cx="437.32" cy="1806.7" r="1.88"/>
				</g>
			</g>
		</g>
		<g>
			<g>
				<line class="st22" x1="580.69" y1="2142.66" x2="580.44" y2="2142.66"/>
				<line class="st29" x1="577.44" y1="2142.66" x2="281.84" y2="2142.68"/>
				<polyline class="st22" points="280.35,2142.68 280.1,2142.68 280.1,2142.43 				"/>
				<line class="st30" x1="280.1" y1="2139.38" x2="280.09" y2="2055.53"/>
				<line class="st22" x1="280.09" y1="2054" x2="280.09" y2="2053.75"/>
				<g>
					<circle class="st19" cx="280.09" cy="2053.85" r="1.88"/>
				</g>
			</g>
		</g>
		<g>
			<g>
				<line class="st22" x1="723.4" y1="2142.68" x2="723.65" y2="2142.68"/>
				<line class="st31" x1="726.66" y1="2142.68" x2="1177.85" y2="2142.68"/>
				<polyline class="st22" points="1179.35,2142.68 1179.6,2142.68 1179.6,2142.43 				"/>
				<line class="st32" x1="1179.6" y1="2139.52" x2="1179.6" y2="2127.43"/>
				<line class="st22" x1="1179.6" y1="2125.97" x2="1179.6" y2="2125.72"/>
			</g>
		</g>
	</g>
</g>
<g id="Intro">
	<g id="IntroHeader">
		<rect x="312.2" y="106.13" class="st2" width="392.52" height="84.46"/>
		<text transform="matrix(1 0 0 1 312.2012 169.5366)" class="st12 st7 st33">Atul Kumar</text>
		<rect x="312.2" y="196.95" class="st2" width="385.8" height="41.05"/>
		<text transform="matrix(1 0 0 1 312.2012 228.0972)" class="st16 st4 st34">EXPERIENCE DESIGNER</text>
	</g>
	<g id="dp">
		
			<image style="overflow:visible;" width="308" height="308" xlink:href="72E35BABC74108C7.png"  transform="matrix(0.4833 0 0 0.4833 115.57 93.57)">
		</image>
	</g>
	<rect x="312.34" y="284.95" class="st2" width="494.87" height="22.22"/>
	<text transform="matrix(1 0 0 1 312.3389 302.1094)"><tspan x="0" y="0" class="st4 st35">UX Design Intern at </tspan><tspan x="174.21" y="0" class="st12 st4 st35">Microsoft India Development Center</tspan></text>
	<rect x="312.34" y="337.95" class="st2" width="499.66" height="22.22"/>
	<text transform="matrix(1 0 0 1 312.3389 355.1094)"><tspan x="0" y="0" class="st4 st35">Information Design (M.Des.), </tspan><tspan x="255.41" y="0" class="st12 st4 st35">National Institute of Design</tspan></text>
	<rect x="312.34" y="369.95" class="st2" width="499.66" height="22.22"/>
	<text transform="matrix(1 0 0 1 312.3389 387.1094)"><tspan x="0" y="0" class="st4 st35">Exchange Program, Communication Design, </tspan><tspan x="391.97" y="0" class="st12 st4 st35">HTW-Berlin</tspan></text>
	<line class="st36" x1="312" y1="322" x2="801" y2="322"/>
</g>
</svg>
