<?xml version="1.0" encoding="utf-8"?>
<!-- Generator: Adobe Illustrator 21.1.0, SVG Export Plug-In . SVG Version: 6.00 Build 0)  -->
<svg version="1.1" id="Layer_1" xmlns="http://www.w3.org/2000/svg" xmlns:xlink="http://www.w3.org/1999/xlink" x="0px" y="0px"
	 viewBox="0 0 1280 3276.1" style="enable-background:new 0 0 1280 3276.1;" xml:space="preserve">
<style type="text/css">
	.st0{fill:#F7F8F9;}
	.st1{fill:#EDF2F7;}
	.st2{fill:none;}
	.st3{fill:#B3B3B3;}
	.st4{font-family:'ProductSans-Regular';}
	.st5{font-size:13px;}
	.st6{fill:#DBDBDB;}
	.st7{font-family:'ProductSans-Bold';}
	.st8{font-size:24px;}
	.st9{fill:none;stroke:#DBDBDB;stroke-miterlimit:10;}
	.st10{fill:#4D4D4D;}
	.st11{font-size:18px;}
	.st12{fill:#FF931E;}
	.st13{fill:#F6F6F6;}
	.st14{font-size:80px;}
	.st15{fill:#FFFFFF;}
	.st16{fill:#333333;}
	.st17{font-size:36px;}
	.st18{fill:none;stroke:#666666;stroke-linecap:round;stroke-linejoin:round;stroke-dasharray:0.5,3;}
	.st19{fill:#666666;}
	.st20{fill:#FFFFFF;stroke:#FF931E;stroke-miterlimit:10;}
	.st21{font-size:12px;}
	.st22{fill:none;stroke:#666666;stroke-linecap:round;stroke-linejoin:round;}
	.st23{fill:none;stroke:#666666;stroke-linecap:round;stroke-linejoin:round;stroke-dasharray:0.4692,2.8155;}
	.st24{fill:none;stroke:#666666;stroke-linecap:round;stroke-linejoin:round;stroke-dasharray:0.4997,2.998;}
	.st25{fill:none;stroke:#666666;stroke-linecap:round;stroke-linejoin:round;stroke-dasharray:0.5223,3.1341;}
	.st26{fill:none;stroke:#666666;stroke-linecap:round;stroke-linejoin:round;stroke-miterlimit:10;stroke-dasharray:0.5,3;}
	.st27{fill:none;stroke:#666666;stroke-linecap:round;stroke-linejoin:round;stroke-dasharray:0.4982,2.9893;}
	.st28{fill:none;stroke:#666666;stroke-linecap:round;stroke-linejoin:round;stroke-dasharray:0.4891,2.9349;}
	.st29{fill:none;stroke:#666666;stroke-linecap:round;stroke-linejoin:round;stroke-dasharray:0.4993,2.9959;}
	.st30{fill:none;stroke:#666666;stroke-linecap:round;stroke-linejoin:round;stroke-dasharray:0.5082,3.0491;}
	.st31{fill:none;stroke:#666666;stroke-linecap:round;stroke-linejoin:round;stroke-dasharray:0.5013,3.0079;}
	.st32{fill:none;stroke:#666666;stroke-linecap:round;stroke-linejoin:round;stroke-dasharray:0.4839,2.9036;}
	.st33{font-size:73.8947px;}
	.st34{font-size:36.3px;}
	.st35{enable-background:new    ;}
	.st36{font-size:20px;}
	.st37{letter-spacing:5;}
	.st38{fill:none;stroke:#666666;stroke-width:0.5;stroke-miterlimit:10;}
</style>
<rect id="background" class="st0" width="1280" height="3276.1"/>
<g id="footer">
	<rect y="3188.6" class="st1" width="1280" height="87.4"/>
	<rect x="111.5" y="3215.7" class="st2" width="647.9" height="40.1"/>
	<text transform="matrix(1 0 0 1 111.5439 3226.8269)" class="st3 st4 st5">All logo and trademarks rights lie with their respective owners. Projects published in the website are intended for </text>
	<text transform="matrix(1 0 0 1 111.5439 3242.8269)" class="st3 st4 st5">academic and representational purposes which are non-commercial and referencial.</text>
	<g>
		<text transform="matrix(1 0 0 1 979.9475 3226.8267)" class="st3 st4 st5">Bengaluru, India © 2017 | atulkr.com</text>
	</g>
</g>
<g id="contactsSection">
	<rect x="1016.5" y="2857" class="st2" width="160.6" height="21.1"/>
	<text transform="matrix(1 0 0 1 1058.8982 2877.554)" class="st6 st7 st8">CONTACT</text>
	<line class="st9" x1="976" y1="2885.9" x2="1176.3" y2="2885.9"/>
	<rect id="XMLID_1_" x="943" y="3110" class="st2" width="234.2" height="20.6"/>
	<text id="twitterLink" transform="matrix(1 0 0 1 974.8083 3125.4468)" class="st10 st4 st11">twitter.com/_atul_kumar</text>
	<rect id="XMLID_2_" x="943" y="3068.5" class="st2" width="234.2" height="20.6"/>
	<text id="instaLink" transform="matrix(1 0 0 1 947.071 3083.9846)" class="st10 st4 st11">instagram.com/_atul_kumar</text>
	<rect id="XMLID_6_" x="943" y="3027.1" class="st2" width="234.2" height="20.6"/>
	<text id="linkedinLink" transform="matrix(1 0 0 1 989.0471 3042.5222)" class="st10 st4 st11">linkedin.com/in/atul-kr</text>
	<rect id="XMLID_5_" x="943" y="2985.6" class="st2" width="234.2" height="20.6"/>
	<text id="behanceLink" transform="matrix(1 0 0 1 967.9504 3001.0603)" class="st10 st4 st11">behance.net/_atul_kumar</text>
	<rect id="XMLID_4_" x="955.6" y="2944.1" class="st2" width="221.6" height="20.6"/>
	<text id="perEmailLink" transform="matrix(1 0 0 1 968.3469 2959.5981)" class="st10 st4 st11">myspace.atul@gmail.com</text>
	<rect id="XMLID_3_" x="1018.1" y="2902.7" class="st2" width="159.1" height="20.6"/>
	<text id="nidEmailLink" transform="matrix(1 0 0 1 1042.4333 2918.1357)" class="st10 st4 st11">atul_ku@nid.edu</text>
</g>
<g id="educationSection">
	<rect x="111.5" y="3019.2" class="st2" width="160.6" height="20.8"/>
	<text transform="matrix(1 0 0 1 111.5439 3039.8052)" class="st6 st7 st8">EDUCATION</text>
	<line class="st9" x1="113.2" y1="3046.3" x2="752.5" y2="3046.3"/>
	<g id="nidLink_1_">
		
			<image style="overflow:visible;enable-background:new    ;" width="524" height="76" xlink:href="10F16357AB7075DB.png"  transform="matrix(0.4979 0 0 0.4979 113.217 3074.8857)">
		</image>
	</g>
	<g id="htwLink">
		
			<image style="overflow:visible;enable-background:new    ;" width="198" height="116" xlink:href="10F16357AB7075D9.png"  transform="matrix(0.494 0 0 0.494 402.968 3065.1501)">
		</image>
	</g>
	<g id="manipalLink">
		
			<image style="overflow:visible;enable-background:new    ;" width="134" height="128" xlink:href="10F16357AB7075DF.png"  transform="matrix(0.4924 0 0 0.4924 553.4471 3062.2927)">
		</image>
	</g>
	<g id="smhsLink">
		
			<image style="overflow:visible;enable-background:new    ;" width="98" height="98" xlink:href="10F16357AB7075D8.png"  transform="matrix(0.4898 0 0 0.4898 669.0966 3069.8044)">
		</image>
	</g>
</g>
<g id="experienceSection">
	<rect x="111.5" y="2857" class="st2" width="160.6" height="21.1"/>
	<text transform="matrix(1 0 0 1 111.5439 2877.554)" class="st6 st7 st8">EXPERIENCE</text>
	<line class="st9" x1="113.2" y1="2884" x2="752.5" y2="2884"/>
	<g id="phonepeLink">
		
			<image style="overflow:visible;enable-background:new    ;" width="176" height="56" xlink:href="phonepeLink.png"  transform="matrix(0.6 0 0 0.6 113.16 2902.3923)">
		</image>
	</g>
	<g id="hotstarLink">
		
			<image style="overflow:visible;enable-background:new    ;" width="80" height="104" id="_x3C_Linked_File_x3E_" xlink:href="hotstarLink.png"  transform="matrix(0.383 0 0 0.383 252.282 2899.2759)">
		</image>
	</g>
	<g id="microsoftLink">
		
			<image style="overflow:visible;enable-background:new    ;" width="338" height="74" xlink:href="10F16357AB7075D6.png"  transform="matrix(0.3774 0 0 0.3774 319.1448 2905.2258)">
		</image>
	</g>
	<g id="deloitteLink">
		
			<image style="overflow:visible;enable-background:new    ;" width="258" height="50" xlink:href="10F16357AB7075D7.png"  transform="matrix(0.3741 0 0 0.3741 479.1929 2909.8394)">
		</image>
	</g>
	<g id="geLink">
		
			<image style="overflow:visible;enable-background:new    ;" width="102" height="102" xlink:href="10F16357AB7075E7.png"  transform="matrix(0.3873 0 0 0.3873 607.1878 2899.4407)">
		</image>
	</g>
	<g id="ibmLink">
		
			<image style="overflow:visible;enable-background:new    ;" width="182" height="71" xlink:href="10F16357AB7075E9.png"  transform="matrix(0.4013 0 0 0.3837 680.642 2905.5703)">
		</image>
	</g>
</g>
<g id="CTA">
	<g id="btnResume">
		<path id="reRect_1_" class="st12" d="M930.6,2783.7h-234c-4.4,0-8-3.6-8-8v-48c0-4.4,3.6-8,8-8h234c4.4,0,8,3.6,8,8v48
			C938.6,2780.1,935,2783.7,930.6,2783.7z"/>
		<text id="reText_1_" transform="matrix(1 0 0 1 731.5186 2756.8855)" class="st13 st7 st11">Download Résumé</text>
	</g>
	<g id="btnBehance">
		<path id="prRect_1_" class="st12" d="M583.4,2783.7h-234c-4.4,0-8-3.6-8-8v-48c0-4.4,3.6-8,8-8h234c4.4,0,8,3.6,8,8v48
			C591.4,2780.1,587.8,2783.7,583.4,2783.7z"/>
		<text id="prText_1_" transform="matrix(1 0 0 1 364.9553 2756.8857)" class="st13 st7 st11">View More on Behance</text>
	</g>
</g>
<g id="secondarySection">
	<rect x="107.5" y="2280.8" class="st2" width="572.5" height="102.8"/>
	<text transform="matrix(1 0 0 1 107.5439 2349.4524)" class="st6 st7 st14">Other Projects</text>
	<g id="projectMicrosoft">
		<g>
			<g>
				<path class="st12" d="M91.3,2448.1h24.4v-26.6H91.3c-1.2,0-2.1,1-2.1,2.1v22.3C89.2,2447.1,90.1,2448.1,91.3,2448.1z"/>
				<text transform="matrix(1 0 0 1 96.5595 2440.8347)" class="st15 st7 st11">7</text>
			</g>
			<g>
				
					<image style="overflow:visible;enable-background:new    ;" width="360" height="246" xlink:href="10F16357AB7075EB.png"  transform="matrix(0.4987 0 0 0.4987 113.2323 2411.1899)">
				</image>
			</g>
		</g>
		<rect x="111.8" y="2551.7" class="st2" width="200.4" height="83.1"/>
		<text transform="matrix(1 0 0 1 111.8175 2582.5513)" class="st16 st7 st17">Microsoft </text>
		<text transform="matrix(1 0 0 1 111.8175 2620.5513)" class="st16 st7 st17">Internship</text>
	</g>
	<g id="projectWeCycle">
		<g>
			<g>
				<path class="st12" d="M386.6,2448.1H411v-26.6h-24.4c-1.2,0-2.1,1-2.1,2.1v22.3C384.4,2447.1,385.4,2448.1,386.6,2448.1z"/>
				<text transform="matrix(1 0 0 1 391.828 2440.8347)" class="st15 st7 st11">8</text>
			</g>
			<g>
				
					<image style="overflow:visible;enable-background:new    ;" width="362" height="246" xlink:href="72E35BABC74108B8.png"  transform="matrix(0.4968 0 0 0.4968 408.343 2411.1716)">
				</image>
			</g>
		</g>
		<rect x="406.8" y="2551.7" class="st2" width="257.8" height="83.1"/>
		<text transform="matrix(1 0 0 1 406.7527 2582.5513)" class="st16 st7 st17">WeCycle: City </text>
		<text transform="matrix(1 0 0 1 406.7527 2620.5513)" class="st16 st7 st17">Cycle Share</text>
	</g>
	<g id="projectWT20">
		<g>
			<g>
				<path class="st12" d="M681.8,2448.1h24.4v-26.6h-24.4c-1.2,0-2.1,1-2.1,2.1v22.3C679.7,2447.1,680.7,2448.1,681.8,2448.1z"/>
				<text transform="matrix(1 0 0 1 687.0966 2440.8347)" class="st15 st7 st11">9</text>
			</g>
			<g>
				
					<image style="overflow:visible;enable-background:new    ;" width="362" height="246" xlink:href="72E35BABC74108BF.png"  transform="matrix(0.4968 0 0 0.4968 703.6115 2411.1716)">
				</image>
			</g>
		</g>
		<rect x="701.7" y="2551.7" class="st2" width="257.8" height="83.1"/>
		<text transform="matrix(1 0 0 1 701.6879 2582.5513)" class="st16 st7 st17">Cricket WT20 </text>
		<text transform="matrix(1 0 0 1 701.6879 2620.5513)" class="st16 st7 st17">Data Vis.</text>
	</g>
	<g id="projectIRCTC">
		<g>
			<g>
				<path class="st12" d="M977.1,2448.1h24.4v-26.6h-24.4c-1.2,0-2.1,1-2.1,2.1v22.3C975,2447.1,975.9,2448.1,977.1,2448.1z"/>
				<text transform="matrix(1 0 0 1 977.3651 2440.8347)" class="st15 st7 st11">10</text>
			</g>
			<g>
				
					<image style="overflow:visible;enable-background:new    ;" width="362" height="246" xlink:href="72E35BABC74108B9.png"  transform="matrix(0.4968 0 0 0.4968 998.8801 2411.1716)">
				</image>
			</g>
		</g>
		<rect x="996.6" y="2551.7" class="st2" width="257.8" height="76"/>
		<text transform="matrix(1 0 0 1 996.6231 2582.5513)" class="st16 st7 st17">IRCTC Web </text>
		<text transform="matrix(1 0 0 1 996.6231 2620.5513)" class="st16 st7 st17">Case Study</text>
	</g>
</g>
<g id="primarySection">
	<rect x="107.5" y="489" class="st2" width="572.5" height="175"/>
	<text transform="matrix(1 0 0 1 107.5439 557.6406)" class="st6 st7 st14">Recognised </text>
	<text transform="matrix(1 0 0 1 107.5439 637.6406)" class="st6 st7 st14">Projects</text>
	<g id="project1">
		<g id="projectSaarathi">
			<g>
				<path class="st12" d="M91.3,727.8h24.4v-26.6H91.3c-1.2,0-2.1,1-2.1,2.1v22.3C89.2,726.8,90.1,727.8,91.3,727.8z"/>
				<text transform="matrix(1 0 0 1 97.1483 720.5535)" class="st15 st7 st11">1</text>
			</g>
			<g>
				
					<image style="overflow:visible;enable-background:new    ;" width="360" height="244" xlink:href="72E35BABC74108BB.png"  transform="matrix(0.5 0 0 0.5 113 691)">
				</image>
			</g>
			<g>
				<text transform="matrix(1 0 0 1 312.2412 749.3389)" class="st16 st7 st17">Saarathi</text>
				<rect x="312.2" y="764" class="st2" width="260.8" height="40"/>
				<text transform="matrix(1 0 0 1 312.2412 779.4141)" class="st16 st4 st11">Research Project: Travel Buddy </text>
				<text transform="matrix(1 0 0 1 312.2412 801.0142)" class="st16 st4 st11">Solution for Indian Railways</text>
			</g>
		</g>
		<g>
			<g>
				<line class="st18" x1="313.5" y1="812.5" x2="575.2" y2="812.5"/>
				<g>
					<circle class="st19" cx="575.1" cy="812.5" r="1.9"/>
				</g>
			</g>
		</g>
		<g>
			<g>
				<line class="st18" x1="785.4" y1="812.5" x2="892.3" y2="812.5"/>
				<g>
					<circle class="st19" cx="892.2" cy="812.5" r="1.9"/>
				</g>
			</g>
		</g>
		<g id="saarathiGoldLink">
			
				<image style="overflow:visible;enable-background:new    ;" width="280" height="280" xlink:href="72E35BABC74108A6.png"  transform="matrix(0.5 0 0 0.5 602 846)">
			</image>
		</g>
		<rect x="602.3" y="793.2" class="st2" width="137.7" height="39.8"/>
		<text transform="matrix(1 0 0 1 602.3545 808.6621)" class="st12 st4 st11">Gold Award at </text>
		<text transform="matrix(1 0 0 1 602.3545 830.2621)" class="st12 st4 st11">UXIndia-2017</text>
		<rect x="921.3" y="793.2" class="st2" width="272.7" height="39.8"/>
		<text transform="matrix(1 0 0 1 921.3545 808.6621)" class="st12 st4 st11">Paper Presentation &amp; Publication </text>
		<text transform="matrix(1 0 0 1 921.3545 830.2621)" class="st12 st4 st11">at Interact2017</text>
		<g id="saarathiInteractLink">
			
				<image style="overflow:visible;enable-background:new    ;" width="282" height="280" xlink:href="72E35BABC74108A7.png"  transform="matrix(0.4982 0 0 0.4982 921.7513 847.2496)">
			</image>
		</g>
		<g id="saarathiPaperLink_1_">
			
				<image style="overflow:visible;enable-background:new    ;" width="182" height="280" xlink:href="72E35BABC74108A8.png"  transform="matrix(0.4984 0 0 0.4984 1085.0356 847.2276)">
			</image>
		</g>
	</g>
	<g id="project2to6">
		<g id="projectTwyno">
			<g>
				<path class="st12" d="M91.3,1083.5h24.4V1057H91.3c-1.2,0-2.1,1-2.1,2.1v22.3C89.2,1082.6,90.1,1083.5,91.3,1083.5z"/>
				<text transform="matrix(1 0 0 1 96.5594 1076.2847)" class="st15 st7 st11">2</text>
			</g>
			<g>
				
					<image style="overflow:visible;enable-background:new    ;" width="360" height="246" xlink:href="72E35BABC74108AB.png"  transform="matrix(0.4987 0 0 0.4987 113.2323 1046.3899)">
				</image>
			</g>
			<g>
				<text transform="matrix(1 0 0 1 312.2412 1081.0701)" class="st16 st7 st17">Twyno</text>
				<rect x="312.2" y="1096.3" class="st2" width="248.1" height="63.5"/>
				<text transform="matrix(1 0 0 1 312.2412 1111.7126)" class="st16 st4 st11">Research Project: Educational </text>
				<text transform="matrix(1 0 0 1 312.2412 1133.3126)" class="st16 st4 st11">Board Game for Indian </text>
				<text transform="matrix(1 0 0 1 312.2412 1154.9126)" class="st16 st4 st11">Intangible Cultural Heritage</text>
			</g>
		</g>
		<g>
			<g>
				<line class="st18" x1="313.5" y1="1168.5" x2="575.2" y2="1168.5"/>
				<g>
					<circle class="st19" cx="575.1" cy="1168.5" r="1.9"/>
				</g>
			</g>
		</g>
		<g>
			<g>
				<line class="st18" x1="851.5" y1="1167.9" x2="892.3" y2="1167.9"/>
				<g>
					<circle class="st19" cx="892.2" cy="1167.9" r="1.9"/>
				</g>
			</g>
		</g>
		<rect x="920.8" y="1148.6" class="st2" width="229" height="39.8"/>
		<text transform="matrix(1 0 0 1 920.8545 1164.0542)" class="st12 st4 st11">Semifinalist at Adobe Design </text>
		<text transform="matrix(1 0 0 1 920.8545 1185.6542)" class="st12 st4 st11">Achievement Awards 2017</text>
		<rect x="222.8" y="1830.8" class="st2" width="302.4" height="39.8"/>
		<text transform="matrix(1 0 0 1 222.8171 1846.2568)" class="st12 st4 st11">Featured Showcase and Longlist for </text>
		<text transform="matrix(1 0 0 1 222.8171 1867.8568)" class="st12 st4 st11">Information-is-beautiful-awards-2017</text>
		<rect x="602" y="1148.6" class="st2" width="220.1" height="39.8"/>
		<text transform="matrix(1 0 0 1 602 1164.0344)" class="st12 st4 st11">Paper Presentation &amp; </text>
		<text transform="matrix(1 0 0 1 602 1185.6344)" class="st12 st4 st11">Publication at IndiaHCI2016</text>
		<g id="adaaLiveLink">
			
				<image style="overflow:visible;enable-background:new    ;" width="282" height="282" xlink:href="72E35BABC74108A9.png"  transform="matrix(0.4965 0 0 0.4965 894.0721 1200.9153)">
			</image>
		</g>
		<g id="twynoPaperLink">
			
				<image style="overflow:visible;enable-background:new    ;" width="394" height="282" xlink:href="72E35BABC74108AF.png"  transform="matrix(0.4971 0 0 0.4971 604.0345 1200.8213)">
			</image>
		</g>
		<g id="projectTapTrac">
			<g>
				<g>
					<path class="st12" d="M901.3,1538h24.4v-26.6h-24.4c-1.2,0-2.1,1-2.1,2.1v22.3C899.2,1537,900.1,1538,901.3,1538z"/>
					<text transform="matrix(1 0 0 1 906.5449 1530.7189)" class="st15 st7 st11">4</text>
				</g>
				<g>
					
						<image style="overflow:visible;enable-background:new    ;" width="362" height="246" xlink:href="72E35BABC74108C3.png"  transform="matrix(0.4968 0 0 0.4968 923.0598 1501.0558)">
					</image>
				</g>
			</g>
			<g>
				<rect x="921.8" y="1641.6" class="st2" width="257.8" height="46.3"/>
				<text transform="matrix(1 0 0 1 921.8029 1672.4355)" class="st16 st7 st17">TapTrac</text>
				<rect x="921.8" y="1694.6" class="st2" width="218.5" height="44.1"/>
				<text transform="matrix(1 0 0 1 921.8029 1710.0781)" class="st16 st4 st11">Universal Design: Wearable </text>
				<text transform="matrix(1 0 0 1 921.8029 1731.6781)" class="st16 st4 st11">for Orientation</text>
			</g>
		</g>
		<g id="nuclearPlayBtn">
			<path id="nuclearPlay_x5F_rect" class="st20" d="M603.5,1600.2h-50.8c-1.4,0-2.5-1.1-2.5-2.5V1581c0-1.4,1.1-2.5,2.5-2.5h50.8
				V1600.2z"/>
			<text id="nuclearPlay_x5F_text" transform="matrix(1 0 0 1 573.8792 1593.4868)" class="st12 st4 st21">Play</text>
			<g id="nuclearPlay_x5F_icon">
				<path id="nuclearPlay_x5F_icoCircle" class="st12" d="M562.3,1583.1c-3.6,0-6.6,2.9-6.6,6.6s3,6.6,6.6,6.6s6.6-2.9,6.6-6.6
					S565.9,1583.1,562.3,1583.1z M562.3,1595.2c-3.1,0-5.6-2.5-5.6-5.6s2.5-5.6,5.6-5.6s5.6,2.5,5.6,5.6S565.3,1595.2,562.3,1595.2z
					"/>
				<path id="nuclearPlay_x5F_icoTriangle" class="st12" d="M560.7,1587.6c-0.1-0.1-0.2,0-0.2,0.1v3.9c0,0.1,0.1,0.2,0.2,0.1l3.8-2
					c0.1-0.1,0.1-0.2,0-0.3L560.7,1587.6z"/>
			</g>
		</g>
		<g id="projectNuclear">
			<g>
				<g>
					<path class="st12" d="M579.8,1538h24.4v-26.6h-24.4c-1.2,0-2.1,1-2.1,2.1v22.3C577.7,1537,578.6,1538,579.8,1538z"/>
					<text transform="matrix(1 0 0 1 585.0521 1530.7189)" class="st15 st7 st11">3</text>
				</g>
				<g>
					
						<image style="overflow:visible;enable-background:new    ;" width="362" height="246" xlink:href="72E35BABC74108CD.png"  transform="matrix(0.4968 0 0 0.4968 601.5671 1501.0558)">
					</image>
				</g>
			</g>
			<g>
				<rect x="600.3" y="1641.6" class="st2" width="257.8" height="69.8"/>
				<text transform="matrix(1 0 0 1 600.3102 1672.4355)" class="st16 st7 st17">India’s Nuclear </text>
				<text transform="matrix(1 0 0 1 600.3102 1710.4355)" class="st16 st7 st17">Journey</text>
				<rect x="600.3" y="1728.6" class="st2" width="279.8" height="44.1"/>
				<text transform="matrix(1 0 0 1 600.3102 1744.0781)" class="st16 st4 st11">Data Narrative: Mapping India’s </text>
				<text transform="matrix(1 0 0 1 600.3102 1765.6781)" class="st16 st4 st11">Rise as a Nuclear Power</text>
			</g>
		</g>
		<g id="projectSlowFun">
			<g>
				<g>
					<path class="st12" d="M901.3,1929.1h24.4v-26.6h-24.4c-1.2,0-2.1,1-2.1,2.1v22.3C899.2,1928.1,900.1,1929.1,901.3,1929.1z"/>
					<text transform="matrix(1 0 0 1 906.5449 1921.8024)" class="st15 st7 st11">6</text>
				</g>
				<g>
					
						<image style="overflow:visible;enable-background:new    ;" width="362" height="246" xlink:href="72E35BABC74108CF.png"  transform="matrix(0.4968 0 0 0.4968 923.0598 1892.1393)">
					</image>
				</g>
			</g>
			<g>
				<rect x="921.8" y="2032.6" class="st2" width="257.8" height="46.3"/>
				<text transform="matrix(1 0 0 1 921.8029 2063.519)" class="st16 st7 st17">Slow-Fun</text>
				<rect x="921.8" y="2085.7" class="st2" width="218.5" height="44.1"/>
				<text transform="matrix(1 0 0 1 921.8029 2101.1616)" class="st16 st4 st11">Experimental Design: Berlin </text>
				<text transform="matrix(1 0 0 1 921.8029 2122.7617)" class="st16 st4 st11">Metro Ticketing Experience</text>
			</g>
		</g>
		<g id="uncowlifyPlayBtn">
			<path id="uncowlifyPlay_x5F_rect" class="st20" d="M603.5,1991.1h-50.8c-1.4,0-2.5-1.1-2.5-2.5v-16.7c0-1.4,1.1-2.5,2.5-2.5h50.8
				V1991.1z"/>
			<text id="uncowlifyPlay_x5F_text" transform="matrix(1 0 0 1 573.8792 1984.4329)" class="st12 st4 st21">Play</text>
			<g id="uncowlifyPlay_x5F_icon">
				<path id="uncowlifyPlay_x5F_icoCircle" class="st12" d="M562.3,1974.1c-3.6,0-6.6,2.9-6.6,6.6s3,6.6,6.6,6.6s6.6-2.9,6.6-6.6
					S565.9,1974.1,562.3,1974.1z M562.3,1986.2c-3.1,0-5.6-2.5-5.6-5.6s2.5-5.6,5.6-5.6s5.6,2.5,5.6,5.6S565.3,1986.2,562.3,1986.2z
					"/>
				<path id="uncowlifyPlay_x5F_icoTriangle" class="st12" d="M560.7,1978.5c-0.1-0.1-0.2,0-0.2,0.1v3.9c0,0.1,0.1,0.2,0.2,0.1
					l3.8-2c0.1-0.1,0.1-0.2,0-0.3L560.7,1978.5z"/>
			</g>
		</g>
		<g id="projectUncowlify">
			<g>
				<g>
					<path class="st12" d="M579.8,1929.1h24.4v-26.6h-24.4c-1.2,0-2.1,1-2.1,2.1v22.3C577.7,1928.1,578.6,1929.1,579.8,1929.1z"/>
					<text transform="matrix(1 0 0 1 585.0522 1921.8024)" class="st15 st7 st11">5</text>
				</g>
				<g>
					
						<image style="overflow:visible;enable-background:new    ;" width="362" height="246" xlink:href="72E35BABC74108C2.png"  transform="matrix(0.4968 0 0 0.4968 601.5671 1892.1393)">
					</image>
				</g>
			</g>
			<g>
				<rect x="600.3" y="2032.6" class="st2" width="257.8" height="46.3"/>
				<text transform="matrix(1 0 0 1 600.3102 2063.519)" class="st16 st7 st17">Uncowlify</text>
				<rect x="600.3" y="2085.7" class="st2" width="231.7" height="67.2"/>
				<text transform="matrix(1 0 0 1 600.3102 2101.1616)" class="st16 st4 st11">Awareness Campaign, </text>
				<text transform="matrix(1 0 0 1 600.3102 2122.7617)" class="st16 st4 st11">Branding &amp; Data Visualisation </text>
				<text transform="matrix(1 0 0 1 600.3102 2144.3616)" class="st16 st4 st11">to Avoid Beef</text>
			</g>
		</g>
		<g>
			<g>
				<line class="st22" x1="1163.1" y1="1168" x2="1163.3" y2="1168"/>
				<line class="st23" x1="1166.2" y1="1168" x2="1177.9" y2="1168"/>
				<polyline class="st22" points="1179.3,1168 1179.6,1168 1179.6,1168.2 				"/>
				<line class="st24" x1="1179.6" y1="1171.2" x2="1179.6" y2="2121.1"/>
				<polyline class="st22" points="1179.6,2122.6 1179.6,2122.9 1179.3,2122.9 				"/>
				<line class="st25" x1="1176.2" y1="2122.9" x2="1152.1" y2="2122.9"/>
				<line class="st22" x1="1150.6" y1="2122.9" x2="1150.3" y2="2122.9"/>
				<g>
					<circle class="st19" cx="1163.2" cy="1168" r="1.9"/>
				</g>
			</g>
		</g>
		<line class="st26" x1="804.1" y1="1765.7" x2="1177.4" y2="1765.7"/>
		<line class="st26" x1="1177.4" y1="1731" x2="1148.3" y2="1731"/>
		<g id="nuclearKantarLink">
			
				<image style="overflow:visible;enable-background:new    ;" width="216" height="282" xlink:href="72E35BABC74108C1.png"  transform="matrix(0.4961 0 0 0.4961 398.4953 1901.49)">
			</image>
		</g>
		<g id="uncowlifyKantarLink">
			
				<image style="overflow:visible;enable-background:new    ;" width="224" height="224" xlink:href="72E35BABC74108C5.png"  transform="matrix(0.5 0 0 0.5 222 1901)">
			</image>
		</g>
		<g>
			<g>
				<line class="st22" x1="580.3" y1="1765.7" x2="580.1" y2="1765.7"/>
				<line class="st27" x1="577.1" y1="1765.7" x2="439.1" y2="1765.7"/>
				<polyline class="st22" points="437.6,1765.7 437.3,1765.7 437.3,1765.9 				"/>
				<line class="st28" x1="437.3" y1="1768.9" x2="437.3" y2="1805.1"/>
				<line class="st22" x1="437.3" y1="1806.5" x2="437.3" y2="1806.8"/>
				<g>
					<circle class="st19" cx="437.3" cy="1806.7" r="1.9"/>
				</g>
			</g>
		</g>
		<g>
			<g>
				<line class="st22" x1="580.7" y1="2142.7" x2="580.4" y2="2142.7"/>
				<line class="st29" x1="577.4" y1="2142.7" x2="281.8" y2="2142.7"/>
				<polyline class="st22" points="280.4,2142.7 280.1,2142.7 280.1,2142.4 				"/>
				<line class="st30" x1="280.1" y1="2139.4" x2="280.1" y2="2055.5"/>
				<line class="st22" x1="280.1" y1="2054" x2="280.1" y2="2053.8"/>
				<g>
					<circle class="st19" cx="280.1" cy="2053.9" r="1.9"/>
				</g>
			</g>
		</g>
		<g>
			<g>
				<line class="st22" x1="723.4" y1="2142.7" x2="723.7" y2="2142.7"/>
				<line class="st31" x1="726.7" y1="2142.7" x2="1177.8" y2="2142.7"/>
				<polyline class="st22" points="1179.3,2142.7 1179.6,2142.7 1179.6,2142.4 				"/>
				<line class="st32" x1="1179.6" y1="2139.5" x2="1179.6" y2="2127.4"/>
				<line class="st22" x1="1179.6" y1="2126" x2="1179.6" y2="2125.7"/>
			</g>
		</g>
	</g>
</g>
<g id="Intro">
	<g id="IntroHeader">
		<rect x="312.2" y="106.1" class="st2" width="392.5" height="84.5"/>
		<text transform="matrix(1 0 0 1 312.2012 169.5366)" class="st12 st7 st33">Atul Kumar</text>
		<rect x="312.2" y="196.9" class="st2" width="385.8" height="41.1"/>
		<text transform="matrix(1 0 0 1 312.2012 228.0972)" class="st16 st4 st34">EXPERIENCE DESIGNER</text>
	</g>
	<g id="dp">
		
			<image style="overflow:visible;enable-background:new    ;" width="310" height="310" xlink:href="72E35BABC74108C7.png"  transform="matrix(0.4802 0 0 0.4802 115.57 93.57)">
		</image>
	</g>
	<rect x="312.3" y="285" class="st2" width="494.9" height="22.2"/>
	<text transform="matrix(1 0 0 1 312.3389 302.1094)" class="st35"><tspan x="0" y="0" class="st4 st36">UI/UX Designer</tspan><tspan x="134.6" y="0" class="st4 st36 st37">	</tspan><tspan x="144" y="0" class="st6 st4 st36">|</tspan><tspan x="148.6" y="0" class="st4 st36"> </tspan></text>
	<text transform="matrix(1 0 0 1 469.5655 302.1094)" class="st12 st4 st36">PhonePe - Flipkart · Hotstar · Microsoft</text>
	<rect x="312.3" y="338" class="st2" width="499.7" height="22.2"/>
	<text transform="matrix(1 0 0 1 312.3389 355.1094)" class="st4 st36">Information Design (M.Des.), </text>
	<text transform="matrix(1 0 0 1 567.7489 355.1094)" class="st12 st4 st36">National Institute of Design</text>
	<rect x="312.3" y="370" class="st2" width="499.7" height="22.2"/>
	<text transform="matrix(1 0 0 1 312.3389 387.1094)" class="st4 st36">Exchange Program, Communication Design, </text>
	<text transform="matrix(1 0 0 1 704.3089 387.1094)" class="st12 st4 st36">HTW-Berlin</text>
	<line class="st38" x1="312" y1="322" x2="802" y2="322"/>
</g>
</svg>
