<?xml version="1.0" encoding="utf-8"?>
<!-- Generator: Adobe Illustrator 21.1.0, SVG Export Plug-In . SVG Version: 6.00 Build 0)  -->
<svg version="1.1" id="Layer_1" xmlns="http://www.w3.org/2000/svg" xmlns:xlink="http://www.w3.org/1999/xlink" x="0px" y="0px"
	 viewBox="0 0 1280 800" style="enable-background:new 0 0 1280 800;" xml:space="preserve">
<style type="text/css">
	.st0{fill:#FFEA00;}
	.st1{font-family:'ProximaNovaA-Extrabld';}
	.st2{font-size:140px;}
	.st3{letter-spacing:2;}
	.st4{fill:none;}
	.st5{font-family:'ProximaNovaA-Bold';}
	.st6{font-size:18px;}
	.st7{letter-spacing:1;}
	.st8{fill:#FFEA00;stroke:#000000;stroke-width:3;stroke-miterlimit:10;}
	.st9{opacity:0.09;}
	.st10{fill:none;stroke:#000000;stroke-miterlimit:10;}
</style>
<rect id="bgYellow" y="0" class="st0" width="1280" height="800"/>
<text id="XMLID_2_" transform="matrix(1 0 0 1 109.4563 438.1453)"><tspan x="0" y="0" class="st1 st2 st3">atul</tspan><tspan x="0" y="120" class="st1 st2 st3">kumar</tspan></text>
<rect id="XMLID_4_" x="114.315" y="66.232" class="st4" width="540.685" height="269.053"/>
<text id="XMLID_5_" transform="matrix(1 0 0 1 114.3155 78.2372)"><tspan x="0" y="0" class="st5 st6">Hi,</tspan><tspan x="23.381" y="0" class="st5 st6 st7"> </tspan><tspan x="29.756" y="0" class="st5 st6">I</tspan><tspan x="35.048" y="0" class="st5 st6 st7"> </tspan><tspan x="41.423" y="0" class="st5 st6">am</tspan><tspan x="68.045" y="0" class="st5 st6 st7"> </tspan><tspan x="74.42" y="0" class="st5 st6">pursuing</tspan><tspan x="149.208" y="0" class="st5 st6 st7"> </tspan><tspan x="155.583" y="0" class="st5 st6">masters</tspan><tspan x="223.695" y="0" class="st5 st6 st7"> </tspan><tspan x="230.07" y="0" class="st5 st6">in</tspan><tspan x="245.766" y="0" class="st5 st6 st7"> </tspan><tspan x="252.141" y="0" class="st5 st6">Information</tspan><tspan x="351.481" y="0" class="st5 st6 st7"> </tspan><tspan x="357.856" y="0" class="st5 st6">Experience</tspan><tspan x="451.815" y="0" class="st5 st6 st7"> </tspan><tspan x="458.19" y="0" class="st5 st6">Design</tspan><tspan x="517.319" y="0" class="st5 st6 st7"> </tspan><tspan x="523.694" y="0" class="st5 st6">at </tspan><tspan x="0" y="24" class="st5 st6">National</tspan><tspan x="73.871" y="24" class="st5 st6"> </tspan><tspan x="79.077" y="24" class="st5 st6">Institute</tspan><tspan x="149.438" y="24" class="st5 st6"> </tspan><tspan x="154.645" y="24" class="st5 st6">of</tspan><tspan x="171.601" y="24" class="st5 st6"> </tspan><tspan x="176.807" y="24" class="st5 st6">Design,</tspan><tspan x="240.886" y="24" class="st5 st6"> </tspan><tspan x="246.093" y="24" class="st5 st6">Bangalore,</tspan><tspan x="340.412" y="24" class="st5 st6"> </tspan><tspan x="345.618" y="24" class="st5 st6">India.</tspan><tspan x="393.407" y="24" class="st5 st6"> </tspan><tspan x="398.614" y="24" class="st5 st6">I</tspan><tspan x="403.905" y="24" class="st5 st6"> </tspan><tspan x="409.112" y="24" class="st5 st6">was</tspan><tspan x="443.186" y="24" class="st5 st6"> </tspan><tspan x="448.392" y="24" class="st5 st6">also</tspan><tspan x="484.68" y="24" class="st5 st6"> </tspan><tspan x="489.886" y="24" class="st5 st6">a</tspan><tspan x="500.794" y="24" class="st5 st6"> </tspan><tspan x="506" y="24" class="st5 st6">part </tspan><tspan x="0" y="48" class="st5 st6">of</tspan><tspan x="16.956" y="48" class="st5 st6"> </tspan><tspan x="22.49" y="48" class="st5 st6">Communication</tspan><tspan x="156.93" y="48" class="st5 st6"> </tspan><tspan x="162.464" y="48" class="st5 st6">Design</tspan><tspan x="221.593" y="48" class="st5 st6"> </tspan><tspan x="227.127" y="48" class="st5 st6">course</tspan><tspan x="284.061" y="48" class="st5 st6"> </tspan><tspan x="289.594" y="48" class="st5 st6">for</tspan><tspan x="313.39" y="48" class="st5 st6"> </tspan><tspan x="318.924" y="48" class="st5 st6">the</tspan><tspan x="346.482" y="48" class="st5 st6"> </tspan><tspan x="352.016" y="48" class="st5 st6">exchange</tspan><tspan x="434.797" y="48" class="st5 st6"> </tspan><tspan x="440.331" y="48" class="st5 st6">semester</tspan><tspan x="518.163" y="48" class="st5 st6"> </tspan><tspan x="523.696" y="48" class="st5 st6">at </tspan><tspan x="0" y="72" class="st5 st6">Hochschule für Technik und Wirtschaft (HTW), Berlin, Germany.</tspan><tspan x="0" y="120" class="st5 st6">I</tspan><tspan x="5.292" y="120" class="st5 st6 st7"> </tspan><tspan x="11.431" y="120" class="st5 st6">have</tspan><tspan x="53.046" y="120" class="st5 st6 st7"> </tspan><tspan x="59.185" y="120" class="st5 st6">done</tspan><tspan x="101.899" y="120" class="st5 st6 st7"> </tspan><tspan x="108.038" y="120" class="st5 st6">my</tspan><tspan x="134.534" y="120" class="st5 st6 st7"> </tspan><tspan x="140.673" y="120" class="st5 st6">graduation</tspan><tspan x="234.758" y="120" class="st5 st6 st7"> </tspan><tspan x="240.896" y="120" class="st5 st6">in</tspan><tspan x="256.592" y="120" class="st5 st6 st7"> </tspan><tspan x="262.731" y="120" class="st5 st6">Computer</tspan><tspan x="347.114" y="120" class="st5 st6 st7"> </tspan><tspan x="353.253" y="120" class="st5 st6">Science</tspan><tspan x="419.421" y="120" class="st5 st6 st7"> </tspan><tspan x="425.56" y="120" class="st5 st6">from</tspan><tspan x="465.069" y="120" class="st5 st6 st7"> </tspan><tspan x="471.208" y="120" class="st5 st6">Manipal </tspan><tspan x="0" y="144" class="st5 st6">Institute</tspan><tspan x="70.361" y="144" class="st5 st6"> </tspan><tspan x="75.213" y="144" class="st5 st6">of</tspan><tspan x="92.169" y="144" class="st5 st6"> </tspan><tspan x="97.021" y="144" class="st5 st6">Technology,</tspan><tspan x="202.86" y="144" class="st5 st6"> </tspan><tspan x="207.712" y="144" class="st5 st6">Manipal,</tspan><tspan x="282.501" y="144" class="st5 st6"> </tspan><tspan x="287.353" y="144" class="st5 st6">India.</tspan><tspan x="335.142" y="144" class="st5 st6"> </tspan><tspan x="339.994" y="144" class="st5 st6">My</tspan><tspan x="366.526" y="144" class="st5 st6"> </tspan><tspan x="371.378" y="144" class="st5 st6">internship</tspan><tspan x="456.967" y="144" class="st5 st6"> </tspan><tspan x="461.819" y="144" class="st5 st6">and</tspan><tspan x="494.416" y="144" class="st5 st6"> </tspan><tspan x="499.269" y="144" class="st5 st6">work </tspan><tspan x="0" y="168" class="st5 st6">experience</tspan><tspan x="93.419" y="168" class="st5 st6 st7"> </tspan><tspan x="99.25" y="168" class="st5 st6">include</tspan><tspan x="162.015" y="168" class="st5 st6 st7"> </tspan><tspan x="167.845" y="168" class="st5 st6">software</tspan><tspan x="242.473" y="168" class="st5 st6 st7"> </tspan><tspan x="248.303" y="168" class="st5 st6">engineering</tspan><tspan x="350.038" y="168" class="st5 st6 st7"> </tspan><tspan x="355.868" y="168" class="st5 st6">and</tspan><tspan x="388.466" y="168" class="st5 st6 st7"> </tspan><tspan x="394.296" y="168" class="st5 st6">consultancy</tspan><tspan x="498.84" y="168" class="st5 st6 st7"> </tspan><tspan x="504.67" y="168" class="st5 st6">with </tspan><tspan x="0" y="192" class="st5 st6">my</tspan><tspan x="26.496" y="192" class="st5 st6"> </tspan><tspan x="31.22" y="192" class="st5 st6">stints</tspan><tspan x="77.695" y="192" class="st5 st6"> </tspan><tspan x="82.419" y="192" class="st5 st6">at</tspan><tspan x="99.771" y="192" class="st5 st6"> </tspan><tspan x="104.496" y="192" class="st5 st6">IBM,</tspan><tspan x="142.781" y="192" class="st5 st6"> </tspan><tspan x="147.505" y="192" class="st5 st6">General</tspan><tspan x="215.707" y="192" class="st5 st6"> </tspan><tspan x="220.431" y="192" class="st5 st6">Electric,</tspan><tspan x="289.154" y="192" class="st5 st6"> </tspan><tspan x="293.878" y="192" class="st5 st6">and</tspan><tspan x="326.476" y="192" class="st5 st6"> </tspan><tspan x="331.2" y="192" class="st5 st6">Deloitte.</tspan><tspan x="404.333" y="192" class="st5 st6"> </tspan><tspan x="409.058" y="192" class="st5 st6">Recently</tspan><tspan x="484.693" y="192" class="st5 st6"> </tspan><tspan x="489.417" y="192" class="st5 st6">I</tspan><tspan x="494.709" y="192" class="st5 st6"> </tspan><tspan x="499.433" y="192" class="st5 st6">have </tspan><tspan x="0" y="216" class="st5 st6">been involved with design freelancing and research.</tspan></text>
<g id="XMLID_25_">
	<rect id="XMLID_10_" x="1019.342" y="674.798" class="st4" width="234.217" height="20.65"/>
	<text id="behance" transform="matrix(1 0 0 1 1032.6116 689.8013)" class="st5 st6">behance.net/_atul_kumar</text>
	<rect id="XMLID_6_" x="1010.162" y="645.264" class="st4" width="243.397" height="20.65"/>
	<text id="perEmail" transform="matrix(1 0 0 1 1034.8621 660.2668)" class="st5 st6">myspace.atul@gmail.com</text>
	<rect id="XMLID_8_" x="1094.441" y="615.729" class="st4" width="159.118" height="20.65"/>
	<text id="nidEmail" transform="matrix(1 0 0 1 1110.7122 630.7324)" class="st5 st6">atul_ku@nid.edu</text>
</g>
<g id="XMLID_18_">
	<g id="reBtn">
		<path id="reRect" class="st8" d="M620.037,688.336H509.442c-16.366,0-29.634-13.268-29.634-29.634v0
			c0-16.366,13.268-29.634,29.634-29.634h110.595c16.366,0,29.634,13.268,29.634,29.634v0
			C649.671,675.069,636.404,688.336,620.037,688.336z"/>
		<text id="reText" transform="matrix(1 0 0 1 529.2082 664.4135)" class="st1 st6">Résumé</text>
	</g>
	<g id="poBtn">
		<path id="prRect" class="st8" d="M436.932,688.337H326.337c-16.366,0-29.634-13.268-29.634-29.634v0
			c0-16.366,13.268-29.634,29.634-29.634h110.595c16.366,0,29.634,13.268,29.634,29.634v0
			C466.566,675.069,453.298,688.337,436.932,688.337z"/>
		<text id="prText" transform="matrix(1 0 0 1 342.0892 664.4139)" class="st1 st6">Portfolio</text>
	</g>
	<g id="latBtn">
		<path id="lpRect" class="st8" d="M253.826,688.337H143.231c-16.366,0-29.634-13.268-29.634-29.634v0
			c0-16.366,13.268-29.634,29.634-29.634h110.595c16.366,0,29.634,13.268,29.634,29.634v0
			C283.46,675.07,270.193,688.337,253.826,688.337z"/>
		<text id="lpText" transform="matrix(1 0 0 1 135.9618 664.4137)" class="st1 st6">Latest Project</text>
	</g>
</g>
<text id="XMLID_1_" transform="matrix(1 0 0 1 1014.2237 67.491)"><tspan x="0" y="0" class="st1 st2 st3">was</tspan><tspan x="105.28" y="120" class="st1 st2 st3">ist</tspan><tspan x="-38.778" y="240" class="st1 st2 st3">das?</tspan></text>
<g id="XMLID_3_">
	<g id="monkey" class="st9">
		<path id="XMLID_11_" d="M773.678,578.608c-0.142,0.303-0.323,0.659-0.479,0.951c0,0-0.642,1.19-1.845,3.423
			c-0.301,0.558-0.637,1.181-1.006,1.867c-0.185,0.343-0.378,0.702-0.58,1.076c-0.193,0.365-0.445,0.8-0.557,1.089
			c-0.579,1.294-1.258,2.777-2.045,4.435c-0.413,0.78-0.768,1.823-1.17,2.844c-0.402,1.033-0.823,2.113-1.261,3.24
			c-0.487,1.116-0.778,2.332-1.189,3.568c-0.382,1.243-0.815,2.524-1.208,3.86c-1.387,5.376-2.652,11.526-3.175,18.29
			c-0.422,6.747-0.154,14.078,1.323,21.535c1.466,7.449,4.151,15.004,8.297,21.992c0.454,0.92,1.074,1.724,1.645,2.571
			c0.574,0.847,1.149,1.698,1.727,2.552l0.215,0.323l0.054,0.081c-0.697-0.836-0.149-0.178-0.285-0.34l0.153,0.187l0.613,0.75
			l1.229,1.503c0.798,0.962,1.725,2.165,2.301,2.695c0.651,0.68,1.297,1.373,1.937,2.078c0.287,0.348,0.711,0.719,1.107,1.087
			l1.192,1.11c1.536,1.545,3.302,2.863,5.001,4.28c3.541,2.641,7.263,5.193,11.3,7.197c1.966,1.121,4.065,1.936,6.126,2.873
			c1.032,0.467,2.114,0.775,3.169,1.179c1.064,0.372,2.114,0.813,3.206,1.072l3.249,0.918c1.084,0.307,2.19,0.459,3.284,0.705
			c2.189,0.542,4.403,0.689,6.61,1.012c4.407,0.307,8.845,0.454,13.142-0.178c2.182-0.151,4.268-0.7,6.388-1.099l0.397-0.078
			l0.198-0.039l0.099-0.019c-0.224,0.073,0.641-0.19-0.477,0.159l0.944-0.29l1.884-0.579c0.378-0.153,0.573-0.261,0.878-0.373
			c0.288-0.117,0.528-0.157,0.973-0.406c3.207-1.501,6.398-3.759,9.139-6.411c5.545-5.308,9.082-12.252,9.584-17.905l0.067-0.534
			l0.018-0.134l0.009-0.067c0.003-0.125,0.016,0.887,0.01,0.405l-0.002-0.433c-0.003-0.577-0.005-1.152-0.008-1.725
			c0.029-1.397-0.103-1.676-0.124-2.299l-0.018-0.432c-0.021-0.158-0.064-0.334-0.093-0.501l-0.173-1.015
			c-0.029-0.359-0.163-0.622-0.237-0.932l-0.241-0.901c-0.117-0.26-0.224-0.523-0.324-0.79l-0.144-0.403
			c-0.059-0.122-0.131-0.229-0.193-0.345c-0.127-0.229-0.245-0.463-0.355-0.703l-0.422-0.61l-0.196-0.315
			c-0.069-0.101-0.161-0.175-0.238-0.267c-0.159-0.176-0.309-0.359-0.453-0.551c-0.177-0.155-0.356-0.307-0.523-0.473l-0.251-0.25
			l-0.294-0.202c-0.716-0.623-1.635-1.023-2.549-1.434c-0.492-0.145-0.954-0.362-1.475-0.448c-0.496-0.154-1.021-0.207-1.537-0.29
			c-0.255-0.062-0.521-0.042-0.78-0.066l-0.389-0.027l-0.194-0.017l-0.049-0.005c0.929-0.051,0.209-0.012,0.394-0.022l-0.169,0.008
			c-0.401,0.017-1.114,0.053-0.816,0.051c0.035-0.002,0.068-0.014,0.098-0.034l-0.182,0.033c-0.551,0.084-1.24,0.32-1.837,0.636
			c-1.223,0.646-2.065,1.501-2.435,2.188c-0.134,0.168-0.164,0.353-0.276,0.515c-0.02,0.091-0.045,0.179-0.081,0.265l-0.028,0.064
			l-0.015,0.032c0.027-0.174-0.071,0.411,0.058-0.385l-0.01,0.061l-0.082,0.486l-0.081,0.481l-0.016,0.1l0.007-0.007l0.008-0.015
			c0.003-0.01,0.002-0.02-0.003-0.03c-0.005-0.01-0.019-0.037-0.014,0.036c0,0.097-0.007,0.193-0.021,0.289
			c0.002,0.098,0.013,0.198,0.009,0.297c0.034,0.795,0.275,1.633,0.63,2.342c0.359,0.712,0.796,1.305,1.197,1.757
			c0.419,0.44,0.771,0.767,1.029,0.969c0.258,0.204,0.391,0.31,0.391,0.31l0.812,0.643c4.046,3.201,4.73,9.077,1.529,13.122
			c-3.029,3.827-8.482,4.625-12.484,1.992c0,0-0.422-0.28-1.241-0.822c-0.809-0.556-1.982-1.44-3.39-2.758
			c-1.388-1.338-2.997-3.145-4.491-5.612c-1.477-2.463-2.842-5.632-3.404-9.537c-0.062-0.49-0.126-0.985-0.171-1.492
			c-0.022-0.512-0.045-1.03-0.068-1.555c-0.014-0.239-0.003-0.579,0.01-0.903c0.017-0.325,0.033-0.651,0.05-0.98l0.035-0.494
			l0.035-0.388l0.054-0.484l0.055-0.49l0.007-0.062l0.084-0.507l0.042-0.21l0.087-0.422c0.12-0.564,0.248-1.135,0.39-1.708
			c0.354-1.122,0.712-2.286,1.239-3.386c1.992-4.509,5.472-8.424,9.861-11.217c2.213-1.399,4.671-2.549,7.517-3.313
			c0.367-0.095,0.692-0.186,1.099-0.276c0.465-0.091,0.935-0.174,1.407-0.248c1.17-0.18,1.353-0.171,1.849-0.229l0.168-0.017
			c0.242-0.013-0.422,0.017,0.563-0.032l0.121-0.002l0.484-0.008l0.974-0.009c0.652,0.005,1.308-0.024,1.97,0.042
			c1.324,0.091,2.666,0.196,4.022,0.462c1.359,0.193,2.722,0.583,4.098,0.961c2.726,0.89,5.516,2.036,8.103,3.789
			c5.297,3.305,9.58,8.765,12.066,14.631c0.294,0.733,0.547,1.472,0.814,2.218c0.247,0.743,0.557,1.505,0.715,2.245
			c0.183,0.748,0.366,1.499,0.55,2.254c0.087,0.381,0.182,0.75,0.259,1.145l0.187,1.246c0.235,1.619,0.48,3.59,0.494,4.49
			c0.034,0.572,0.069,1.146,0.104,1.722l0.026,0.432c-0.003-0.409,0.012,0.675,0.008,0.622l-0.004,0.15l-0.009,0.3l-0.043,1.202
			c-0.204,6.453-1.878,12.674-4.458,18.347c-2.597,5.682-6.074,10.901-10.351,15.552c-4.282,4.649-9.322,8.813-15.38,12.123
			c-0.681,0.414-1.659,0.856-2.565,1.273c-0.896,0.408-1.89,0.851-2.726,1.194l-1.849,0.683l-0.926,0.342
			c-1.196,0.374-0.413,0.126-0.716,0.219l-0.141,0.038l-0.282,0.076l-0.565,0.152c-3.018,0.795-6.046,1.695-9.166,2.141
			c-6.202,1.226-12.563,1.46-18.9,1.335c-3.149-0.23-6.341-0.337-9.454-0.879c-1.56-0.246-3.146-0.414-4.689-0.742l-4.628-1.018
			c-1.557-0.305-3.05-0.797-4.565-1.234c-1.503-0.467-3.042-0.853-4.513-1.403c-2.941-1.102-5.924-2.128-8.746-3.493
			c-5.761-2.496-11.156-5.691-16.328-9.144c-2.52-1.827-5.082-3.586-7.42-5.633l-1.784-1.49c-0.594-0.499-1.181-0.97-1.793-1.578
			c-1.205-1.164-2.406-2.324-3.604-3.481c-1.326-1.262-2.02-2.101-2.935-3.083l-1.31-1.433l-0.654-0.714l-0.163-0.178
			c-0.188-0.223,0.307,0.374-0.443-0.523l-0.089-0.114l-0.356-0.456c-0.945-1.222-1.886-2.44-2.824-3.653
			c-0.927-1.222-1.896-2.414-2.679-3.714c-6.82-10.087-11.405-21.033-14.141-31.665c-2.752-10.653-3.705-20.996-3.637-30.454
			c0.171-9.462,1.412-18.017,2.926-25.494c0.424-1.855,0.896-3.633,1.326-5.36c0.459-1.716,0.809-3.408,1.353-4.955
			c0.505-1.564,0.99-3.065,1.453-4.499c0.478-1.439,0.869-2.779,1.449-4.151c1.065-2.696,2.039-5.101,2.898-7.189
			c0.224-0.568,0.4-0.908,0.583-1.305c0.18-0.385,0.353-0.754,0.519-1.106c0.331-0.705,0.632-1.346,0.901-1.92
			c1.077-2.296,1.651-3.52,1.651-3.52L773.678,578.608z"/>
		<path id="XMLID_20_" d="M921.548,436.388c-19.873-16.135-45.208-25.804-72.793-25.804c-29.233,0-55.937,10.85-76.288,28.755
			c0.853-2.942,16.413-68.893,18.824-91.523c2.312-21.706,9.932-67.293,9.932-67.293c2.052-12.668,11.3-22.974,23.668-26.385
			c13.998-3.851,31.857-3.832,45.836,0.047c12.377,3.439,21.606,13.802,23.602,26.488c0,0,8.553,45.201,10.794,66.712
			C907.35,368.766,917.978,422.774,921.548,436.388z"/>
		<g id="XMLID_35_">
			<path id="XMLID_33_" d="M924.532,460.457c0,0,0.642-1.19,1.845-3.423c0.301-0.558,0.637-1.181,1.006-1.867
				c0.185-0.343,0.378-0.702,0.58-1.076c0.193-0.365,0.445-0.8,0.557-1.089c0.579-1.294,1.258-2.777,2.045-4.435
				c0.413-0.78,0.768-1.823,1.17-2.844c0.402-1.033,0.822-2.113,1.261-3.24c0.487-1.116,0.778-2.332,1.189-3.568
				c0.382-1.243,0.815-2.524,1.208-3.86c1.387-5.376,2.652-11.526,3.175-18.29c0.422-6.747,0.154-14.078-1.322-21.535
				c-1.466-7.449-4.151-15.004-8.297-21.992c-0.454-0.92-1.074-1.724-1.645-2.571c-0.574-0.847-1.149-1.698-1.727-2.552
				l-0.215-0.323l-0.054-0.081c0.697,0.836,0.149,0.178,0.285,0.34l-0.153-0.187l-0.613-0.75l-1.229-1.503
				c-0.798-0.962-1.725-2.165-2.301-2.695c-0.651-0.68-1.297-1.373-1.937-2.078c-0.287-0.348-0.711-0.719-1.107-1.087l-1.192-1.11
				c-1.536-1.545-3.302-2.863-5.001-4.28c-3.541-2.641-7.263-5.193-11.3-7.197c-1.966-1.121-4.065-1.936-6.126-2.873
				c-1.032-0.467-2.114-0.775-3.169-1.179c-1.064-0.372-2.114-0.813-3.206-1.072l-3.249-0.918c-1.084-0.307-2.19-0.459-3.284-0.705
				c-2.189-0.542-4.403-0.689-6.611-1.012c-4.407-0.307-8.845-0.454-13.142,0.178c-2.182,0.151-4.268,0.7-6.388,1.099l-0.397,0.078
				l-0.198,0.039l-0.099,0.019c0.224-0.073-0.641,0.19,0.477-0.159l-0.944,0.29l-1.884,0.579c-0.378,0.153-0.573,0.261-0.878,0.373
				c-0.288,0.117-0.528,0.157-0.973,0.406c-3.207,1.501-6.398,3.759-9.139,6.411c-5.545,5.308-9.082,12.252-9.584,17.905
				l-0.067,0.534l-0.018,0.134l-0.009,0.067c-0.003,0.125-0.016-0.887-0.01-0.405l0.002,0.433c0.003,0.577,0.005,1.152,0.008,1.725
				c-0.029,1.397,0.103,1.676,0.124,2.299l0.018,0.431c0.021,0.158,0.065,0.334,0.093,0.501l0.173,1.014
				c0.029,0.359,0.163,0.622,0.237,0.932l0.241,0.901c0.117,0.26,0.224,0.523,0.324,0.79l0.144,0.403
				c0.059,0.122,0.131,0.229,0.193,0.345c0.127,0.229,0.245,0.463,0.355,0.703l0.422,0.61l0.196,0.315
				c0.069,0.101,0.161,0.176,0.238,0.267c0.159,0.176,0.309,0.359,0.453,0.551c0.177,0.155,0.356,0.307,0.523,0.473l0.251,0.25
				l0.294,0.202c0.716,0.623,1.635,1.023,2.549,1.434c0.492,0.145,0.954,0.362,1.475,0.448c0.496,0.154,1.021,0.207,1.537,0.29
				c0.255,0.062,0.521,0.042,0.78,0.066l0.389,0.027l0.194,0.017l0.049,0.004c-0.929,0.051-0.209,0.012-0.394,0.022l0.169-0.008
				c0.401-0.017,1.114-0.053,0.816-0.051c-0.035,0.002-0.068,0.014-0.098,0.034l0.182-0.033c0.551-0.084,1.24-0.32,1.837-0.636
				c1.223-0.646,2.065-1.501,2.435-2.188c0.134-0.168,0.164-0.353,0.276-0.515c0.02-0.091,0.045-0.179,0.081-0.265l0.028-0.064
				l0.015-0.032c-0.027,0.174,0.071-0.411-0.058,0.385l0.01-0.061l0.082-0.486l0.081-0.481l0.016-0.1l-0.007,0.007l-0.008,0.015
				c-0.003,0.01-0.002,0.02,0.003,0.03c0.005,0.01,0.019,0.037,0.014-0.036c0-0.097,0.007-0.193,0.021-0.289
				c-0.002-0.098-0.013-0.198-0.009-0.297c-0.034-0.795-0.274-1.633-0.63-2.342c-0.359-0.712-0.796-1.305-1.197-1.757
				c-0.419-0.44-0.771-0.767-1.029-0.969c-0.258-0.204-0.391-0.31-0.391-0.31l-0.813-0.643c-4.046-3.202-4.73-9.077-1.529-13.123
				c3.029-3.827,8.482-4.625,12.484-1.992c0,0,0.422,0.28,1.241,0.822c0.809,0.556,1.982,1.44,3.39,2.758
				c1.388,1.338,2.997,3.145,4.491,5.612c1.477,2.463,2.841,5.632,3.404,9.537c0.062,0.49,0.126,0.985,0.171,1.492
				c0.022,0.512,0.045,1.03,0.068,1.555c0.014,0.238,0.003,0.579-0.01,0.903c-0.017,0.325-0.033,0.652-0.05,0.98l-0.035,0.494
				l-0.035,0.388l-0.054,0.484l-0.055,0.49l-0.007,0.062l-0.084,0.507l-0.042,0.21l-0.087,0.422c-0.12,0.564-0.248,1.135-0.39,1.708
				c-0.355,1.122-0.712,2.286-1.239,3.386c-1.992,4.509-5.472,8.424-9.861,11.217c-2.213,1.399-4.671,2.549-7.517,3.313
				c-0.367,0.095-0.692,0.186-1.099,0.276c-0.465,0.091-0.935,0.174-1.407,0.248c-1.17,0.18-1.353,0.171-1.849,0.229l-0.168,0.017
				c-0.242,0.013,0.422-0.017-0.563,0.032l-0.121,0.002l-0.484,0.008l-0.974,0.009c-0.652-0.005-1.308,0.024-1.97-0.042
				c-1.324-0.091-2.666-0.196-4.022-0.462c-1.359-0.193-2.722-0.583-4.098-0.961c-2.726-0.89-5.516-2.036-8.103-3.788
				c-5.297-3.305-9.58-8.765-12.066-14.631c-0.294-0.733-0.547-1.472-0.814-2.218c-0.247-0.743-0.557-1.505-0.715-2.245
				c-0.183-0.748-0.366-1.499-0.551-2.254c-0.087-0.381-0.182-0.75-0.259-1.145l-0.187-1.246c-0.235-1.619-0.48-3.59-0.494-4.49
				c-0.034-0.572-0.069-1.146-0.104-1.722l-0.026-0.432c0.002,0.409-0.012-0.675-0.008-0.622l0.004-0.15l0.009-0.3l0.043-1.202
				c0.204-6.453,1.878-12.674,4.458-18.347c2.597-5.682,6.074-10.9,10.351-15.552c4.282-4.649,9.322-8.813,15.38-12.123
				c0.681-0.414,1.659-0.856,2.565-1.273c0.895-0.408,1.89-0.851,2.726-1.194l1.849-0.683l0.926-0.342
				c1.196-0.374,0.413-0.126,0.716-0.219l0.141-0.038l0.282-0.076l0.565-0.153c3.018-0.795,6.046-1.695,9.166-2.141
				c6.202-1.226,12.563-1.46,18.9-1.335c3.149,0.23,6.341,0.337,9.454,0.879c1.56,0.246,3.146,0.414,4.689,0.742l4.628,1.018
				c1.557,0.305,3.05,0.797,4.565,1.234c1.503,0.467,3.042,0.853,4.513,1.403c2.941,1.102,5.924,2.128,8.746,3.493
				c5.761,2.496,11.156,5.691,16.328,9.144c2.52,1.827,5.082,3.586,7.42,5.633l1.784,1.49c0.594,0.499,1.181,0.97,1.793,1.578
				c1.205,1.164,2.406,2.324,3.604,3.481c1.326,1.262,2.02,2.101,2.935,3.083l1.31,1.433l0.654,0.715l0.163,0.178
				c0.188,0.223-0.307-0.374,0.443,0.523l0.089,0.114l0.356,0.456c0.945,1.222,1.886,2.44,2.824,3.653
				c0.927,1.222,1.896,2.414,2.679,3.714c6.82,10.087,11.405,21.033,14.141,31.665c2.752,10.653,3.706,20.996,3.637,30.454
				c-0.171,9.462-1.412,18.017-2.926,25.494c-0.424,1.855-0.896,3.633-1.326,5.36c-0.459,1.716-0.809,3.408-1.353,4.955
				c-0.505,1.564-0.99,3.065-1.453,4.499c-0.478,1.439-0.869,2.779-1.449,4.151c-1.065,2.696-2.039,5.101-2.898,7.189
				c-0.224,0.568-0.4,0.908-0.583,1.305c-0.18,0.385-0.354,0.754-0.519,1.106c-0.331,0.705-0.632,1.346-0.901,1.92
				c-1.077,2.296-1.651,3.52-1.651,3.52c-4.46,9.513-15.787,13.61-25.3,9.15c-9.513-4.46-13.61-15.787-9.15-25.3
				C924.195,461.104,924.376,460.749,924.532,460.457z"/>
			<path id="XMLID_34_" class="st0" d="M941.246,490.38c-2.967,0-5.979-0.635-8.838-1.975
				c-10.434-4.891-14.943-17.359-10.051-27.792c0.154-0.33,0.351-0.718,0.522-1.037c0.001-0.003,0.003-0.005,0.004-0.007l3.59-6.661
				c0.116-0.214,0.242-0.431,0.305-0.59c0.618-1.385,1.302-2.881,2.096-4.553c0.287-0.547,0.538-1.208,0.804-1.907
				c0.102-0.272,0.208-0.547,0.316-0.821l1.258-3.233c0.307-0.708,0.525-1.43,0.755-2.194c0.128-0.424,0.258-0.853,0.402-1.285
				c0.143-0.468,0.308-0.985,0.476-1.509c0.239-0.746,0.482-1.507,0.712-2.288c1.648-6.392,2.669-12.269,3.105-17.906
				c0.457-7.299,0.023-14.382-1.292-21.027c-1.525-7.744-4.24-14.943-8.07-21.4c-0.025-0.042-0.048-0.084-0.07-0.127
				c-0.281-0.571-0.67-1.128-1.081-1.718c-0.147-0.21-0.294-0.421-0.437-0.634l-1.986-2.938l-1.618-1.979
				c-0.196-0.237-0.409-0.499-0.623-0.762c-0.545-0.673-1.164-1.435-1.494-1.738c-0.029-0.027-0.059-0.055-0.086-0.084
				c-0.663-0.692-1.319-1.397-1.972-2.115c-0.212-0.254-0.5-0.518-0.778-0.774l-1.41-1.312c-1.101-1.105-2.272-2.054-3.513-3.058
				c-0.458-0.371-0.918-0.743-1.372-1.121c-2.894-2.158-6.749-4.894-10.971-6.99c-0.033-0.016-0.064-0.033-0.096-0.051
				c-1.34-0.764-2.75-1.379-4.246-2.031c-0.576-0.251-1.153-0.503-1.727-0.764c-0.565-0.255-1.172-0.465-1.815-0.687
				c-0.417-0.145-0.835-0.289-1.249-0.448c-0.248-0.086-0.546-0.196-0.845-0.306c-0.739-0.273-1.438-0.53-2.122-0.692l-3.327-0.938
				c-0.598-0.17-1.225-0.29-1.888-0.417c-0.434-0.083-0.867-0.167-1.298-0.264c-1.444-0.357-2.874-0.531-4.387-0.715
				c-0.672-0.082-1.342-0.163-2.013-0.261c-4.08-0.283-8.435-0.455-12.669,0.167c-0.048,0.007-0.096,0.012-0.144,0.016
				c-1.454,0.101-2.88,0.398-4.391,0.712c-0.592,0.124-1.185,0.247-1.78,0.359l-0.686,0.134c-0.002,0-0.004,0.001-0.006,0.001
				l-2.066,0.635c-0.112,0.047-0.204,0.088-0.29,0.127c-0.19,0.085-0.361,0.161-0.574,0.239c-0.06,0.026-0.177,0.067-0.298,0.108
				c-0.158,0.054-0.245,0.085-0.406,0.174c-0.039,0.022-0.08,0.043-0.121,0.062c-2.956,1.383-6.021,3.536-8.631,6.061
				c-5.005,4.79-8.542,11.352-9.02,16.724l-0.094,0.751l0.006,1.561c-0.017,0.839,0.023,1.182,0.062,1.514
				c0.028,0.242,0.052,0.461,0.061,0.732l0.012,0.309c0.006,0.033,0.015,0.066,0.021,0.1l0.224,1.286
				c0.009,0.054,0.016,0.108,0.02,0.161c0.011,0.06,0.037,0.12,0.057,0.182c0.05,0.155,0.098,0.31,0.136,0.473l0.19,0.705
				c0.109,0.25,0.211,0.503,0.307,0.758l0.104,0.292c0.064,0.109,0.101,0.174,0.136,0.242c0.106,0.191,0.219,0.41,0.328,0.639
				l0.499,0.746c0.066,0.068,0.118,0.125,0.167,0.185c0.113,0.123,0.247,0.284,0.384,0.459c0.162,0.141,0.321,0.284,0.473,0.435
				l0.284,0.234c0.059,0.04,0.115,0.084,0.169,0.131c0.478,0.416,1.205,0.743,1.976,1.089l0.004,0.001
				c0.158,0.05,0.315,0.105,0.471,0.161c0.253,0.089,0.472,0.167,0.648,0.196c0.085,0.014,0.168,0.034,0.251,0.059
				c0.243,0.075,0.562,0.122,0.899,0.172l0.378,0.058c0.049,0.008,0.099,0.018,0.147,0.029c0.015-0.001,0.07-0.002,0.128,0
				c0.125,0.004,0.251,0.009,0.376,0.021l0.532,0.039c0.077-0.004,0.151-0.008,0.216-0.011c0.06-0.009,0.122-0.016,0.184-0.02
				c0.009-0.001,0.018-0.001,0.028-0.002c0.371-0.078,0.787-0.233,1.14-0.42c0.989-0.522,1.509-1.138,1.66-1.419
				c0.029-0.054,0.061-0.107,0.096-0.158c0.027-0.06,0.053-0.118,0.08-0.172c0.023-0.074,0.049-0.147,0.077-0.219l0.046-0.272
				c0.005-0.076,0.014-0.152,0.027-0.226c0.001-0.007,0.001-0.015,0.002-0.021c-0.003-0.072-0.005-0.135-0.005-0.194
				c-0.028-0.491-0.185-1.049-0.43-1.538c-0.301-0.597-0.669-1.067-0.925-1.356c-0.421-0.441-0.685-0.661-0.778-0.732l-1.215-0.963
				c-2.349-1.858-3.834-4.521-4.181-7.497c-0.347-2.976,0.486-5.908,2.345-8.258c3.576-4.519,10.158-5.569,14.983-2.394l1.245,0.824
				c1.218,0.837,2.432,1.825,3.637,2.954c1.902,1.835,3.471,3.794,4.812,6.009c1.906,3.178,3.134,6.621,3.655,10.241
				c0.002,0.01,0.012,0.092,0.014,0.103c0.062,0.489,0.124,0.985,0.169,1.491l0.073,1.638c0.016,0.261,0.005,0.669-0.01,1.059
				l-0.238,2.971c-0.004,0.033-0.016,0.127-0.021,0.16l-0.228,1.214c-0.124,0.592-0.258,1.184-0.406,1.779
				c-0.009,0.038-0.019,0.075-0.031,0.111l-0.054,0.171c-0.356,1.129-0.724,2.297-1.282,3.462
				c-2.115,4.785-5.769,8.948-10.545,11.987c-2.563,1.62-5.19,2.777-8.036,3.541l-0.252,0.066c-0.297,0.078-0.586,0.154-0.926,0.23
				c-0.533,0.105-1.028,0.193-1.526,0.27c-0.903,0.139-1.258,0.172-1.583,0.204l-0.707,0.055c-0.026,0.003-0.299,0.007-0.299,0.009
				v-0.024c0,0.002,0,0.004,0,0.006v0.021c0,0.001,0.06,0,0.012-0.002c-0.113,0.013-0.152,0.023-0.276,0.03l-2.129,0.022
				c-0.523,0-1.052,0.006-1.641-0.052c-1.341-0.091-2.704-0.201-4.139-0.479c-1.361-0.198-2.688-0.564-3.975-0.919l-0.299-0.083
				c-3.56-1.16-6.283-2.437-8.656-4.044c-5.327-3.322-9.992-8.968-12.74-15.452c-0.253-0.631-0.468-1.234-0.683-1.842l-0.169-0.475
				c-0.08-0.238-0.15-0.437-0.22-0.636c-0.208-0.588-0.423-1.197-0.563-1.846l-0.618-2.54c-0.07-0.294-0.139-0.587-0.199-0.894
				l-0.201-1.325c-0.149-1.032-0.495-3.538-0.515-4.739l-0.112-1.84c-0.009-0.062-0.015-0.125-0.016-0.188
				c-0.005-0.157-0.014-0.489-0.002-0.729c-0.001-0.012-0.002-0.154-0.002-0.154h0.004c0.004,0,0.009,0,0.016,0h-0.024l0.057-1.637
				c0.199-6.333,1.756-12.736,4.625-19.045c2.673-5.848,6.264-11.239,10.676-16.039c4.72-5.122,10.056-9.324,15.862-12.496
				c0.65-0.397,1.58-0.824,2.481-1.238l0.199-0.09c0.925-0.421,1.943-0.874,2.798-1.226l2.839-1.05
				c0.029-0.011,0.06-0.021,0.091-0.031c0.127-0.04,0.294-0.091,0.484-0.138c0.046-0.02,0.093-0.037,0.141-0.054l0.007,0.021
				c0.017-0.004,0.036-0.008,0.054-0.011l-0.007-0.025c0.014-0.004,0.088-0.027,0.102-0.03l2.589-0.695
				c2.496-0.673,5.077-1.368,7.744-1.753c5.48-1.079,11.599-1.513,19.251-1.361c0.034,0,0.067,0.002,0.1,0.005
				c0.695,0.051,1.394,0.096,2.092,0.14c2.471,0.158,5.028,0.323,7.548,0.762c0.475,0.075,0.982,0.146,1.49,0.217
				c1.067,0.15,2.17,0.305,3.268,0.538l4.639,1.021c1.241,0.242,2.461,0.606,3.643,0.957c0.346,0.103,0.692,0.206,1.039,0.306
				c0.531,0.165,1.027,0.309,1.523,0.453c1.024,0.297,2.083,0.605,3.127,0.995l1.637,0.607c2.404,0.887,4.891,1.804,7.269,2.954
				c5.151,2.23,10.433,5.187,16.552,9.272l1.42,1.022c2.071,1.486,4.211,3.023,6.195,4.76l2.053,1.715
				c0.514,0.429,1.045,0.872,1.61,1.435l3.585,3.461c1.016,0.967,1.682,1.702,2.326,2.413c0.221,0.244,0.443,0.488,0.679,0.742
				l2.139,2.339c0.012,0.014,0.06,0.07,0.072,0.084l-0.014,0.012c0.011,0.011,0.022,0.022,0.032,0.033l0.013-0.01
				c0.026,0.033,0.052,0.067,0.076,0.102c0.124,0.133,0.232,0.261,0.317,0.363l3.864,4.997c0.76,0.99,1.547,2.012,2.226,3.132
				c6.526,9.663,11.362,20.499,14.377,32.208c2.53,9.793,3.773,20.201,3.697,30.934c-0.15,8.293-1.119,16.743-2.965,25.852
				c-0.31,1.362-0.635,2.64-0.953,3.889l-0.392,1.552c-0.147,0.553-0.276,1.072-0.404,1.586c-0.292,1.174-0.594,2.387-0.999,3.539
				l-1.76,5.444c-0.348,1.075-0.706,2.186-1.182,3.313c-1.052,2.664-2.029,5.077-2.891,7.173c-0.172,0.438-0.327,0.767-0.478,1.084
				l-3.213,6.85C956.65,485.927,949.106,490.38,941.246,490.38z M926.182,461.343c-0.141,0.264-0.304,0.586-0.432,0.859
				c-4.015,8.563-0.315,18.795,8.248,22.809c4.149,1.944,8.806,2.158,13.113,0.598c4.308-1.558,7.752-4.7,9.696-8.848l3.218-6.863
				c0.119-0.251,0.243-0.511,0.388-0.879c0.867-2.107,1.837-4.504,2.899-7.191c0.429-1.018,0.748-2.004,1.085-3.048l1.776-5.49
				c0.361-1.03,0.63-2.107,0.913-3.246c0.134-0.534,0.268-1.075,0.414-1.618l0.388-1.538c0.309-1.22,0.627-2.469,0.92-3.755
				c1.79-8.839,2.735-17.067,2.88-25.11c0.074-10.388-1.129-20.472-3.578-29.952c-2.912-11.309-7.581-21.767-13.88-31.084
				c-0.018-0.027-0.036-0.054-0.052-0.082c-0.576-0.955-1.274-1.863-2.013-2.824l-4.131-5.311c-0.026-0.027-0.05-0.054-0.074-0.083
				l-2.078-2.269c-0.237-0.255-0.468-0.511-0.701-0.767c-0.627-0.691-1.218-1.344-2.143-2.224l-3.613-3.49
				c-0.47-0.467-0.917-0.84-1.39-1.235l-2.087-1.743c-1.88-1.646-3.855-3.063-5.945-4.564l-1.374-0.991
				c-5.869-3.916-10.964-6.771-15.973-8.942c-2.286-1.103-4.685-1.988-7.005-2.844l-1.652-0.613
				c-0.911-0.34-1.857-0.615-2.859-0.906c-0.519-0.151-1.039-0.302-1.554-0.462c-0.319-0.091-0.676-0.198-1.033-0.304
				c-1.146-0.341-2.229-0.664-3.335-0.88l-4.67-1.027c-0.956-0.204-1.947-0.343-2.996-0.49c-0.529-0.074-1.058-0.149-1.583-0.232
				c-2.35-0.409-4.802-0.567-7.174-0.719c-0.693-0.044-1.384-0.089-2.074-0.139c-7.375-0.142-13.239,0.271-18.451,1.301
				c-0.033,0.006-0.065,0.012-0.098,0.017c-2.459,0.351-4.944,1.021-7.347,1.669l-2.578,0.693c-0.016,0.004-0.031,0.008-0.047,0.012
				l-0.559,0.173l-2.729,1.008c-0.753,0.311-1.725,0.744-2.599,1.142l-0.192,0.089c-0.804,0.37-1.635,0.752-2.175,1.08
				c-5.599,3.061-10.472,6.904-14.976,11.791c-4.144,4.508-7.517,9.576-10.024,15.062c-2.662,5.852-4.106,11.784-4.29,17.628
				l0.141,1.641c0.001,0.089,0.204,0.301,0.204,0.451c0,0.004,0,0.008,0,0.012l-0.069,2.154c0.015,0.743,0.101,2.413,0.38,4.333
				l0.136,1.235c0.037,0.177,0.07,0.421,0.128,0.666l0.612,2.569c0.101,0.463,0.261,0.935,0.438,1.434
				c0.078,0.222,0.153,0.443,0.226,0.662l0.158,0.446c0.199,0.559,0.394,1.114,0.615,1.664c2.441,5.759,6.571,10.779,11.318,13.741
				c2.135,1.443,4.56,2.574,7.693,3.597l0.219,0.058c1.244,0.343,2.42,0.666,3.561,0.829c0.033,0.005,0.065,0.01,0.097,0.016
				c1.24,0.243,2.501,0.343,3.79,0.432c0.451,0.044,0.879,0.04,1.324,0.038l2.456-0.041c0.034-0.004,0.068-0.006,0.102-0.008
				l0.467-0.051c0.282-0.027,0.589-0.057,1.368-0.176c0.445-0.07,0.89-0.148,1.33-0.235c0.244-0.054,0.487-0.119,0.737-0.185
				l0.252-0.066c2.462-0.661,4.753-1.67,6.987-3.083c4.085-2.6,7.336-6.291,9.148-10.39c0.468-0.977,0.795-2.016,1.112-3.02
				l0.037-0.116c0.132-0.532,0.25-1.062,0.36-1.586l0.331-2.341l0.081-1.405c0.009-0.238,0.021-0.51,0.01-0.701l-0.069-1.582
				c-0.035-0.373-0.092-0.821-0.149-1.264c-0.454-3.166-1.516-6.14-3.16-8.881c-1.168-1.927-2.537-3.639-4.184-5.227
				c-1.049-0.982-2.116-1.851-3.152-2.564l-1.212-0.802c-3.213-2.114-7.598-1.417-9.98,1.591c-1.238,1.564-1.792,3.517-1.562,5.498
				c0.232,1.981,1.22,3.754,2.784,4.992l1.204,0.954c0.337,0.262,0.753,0.651,1.223,1.146c0.631,0.711,1.125,1.437,1.513,2.206
				c0.49,0.976,0.784,2.077,0.829,3.103c0.002,0.05,0.003,0.101,0.001,0.151l0.01,0.192c0.002,0.1-0.005,0.199-0.018,0.299
				c0,0.141-0.016,0.282-0.047,0.42l-0.163,0.967c-0.059,0.347-0.209,0.659-0.422,0.913c-0.052,0.104-0.115,0.219-0.197,0.339
				c-0.62,1.077-1.757,2.105-3.142,2.836c-0.78,0.413-1.667,0.716-2.431,0.832l-0.126,0.024c-0.179,0.033-0.358,0.039-0.532,0.021
				c-0.163,0.013-0.314,0.379-0.445,0.385L842.815,385c-0.005,0-0.011,0-0.016,0L842,384.283v-0.001c0,0,0.353,0.719,0.171,0.719
				h-0.011c-0.206,0-0.48-0.417-0.795-0.484l-0.28-0.243c-0.408-0.06-0.867-0.228-1.347-0.366c-0.447-0.086-0.837-0.274-1.156-0.387
				c-0.138-0.049-0.275-0.123-0.415-0.165c-0.081-0.024-0.16-0.066-0.237-0.1l-0.109-0.055c-0.91-0.408-1.936-0.872-2.814-1.609
				l-0.213-0.148c-0.092-0.064-0.179-0.136-0.259-0.215l-0.252-0.25c-0.111-0.111-0.227-0.21-0.341-0.309l-0.095-0.082
				c-0.099-0.087-0.188-0.184-0.267-0.289c-0.109-0.146-0.223-0.285-0.344-0.419c-0.17-0.178-0.287-0.31-0.39-0.46l-0.616-0.921
				c-0.062-0.09-0.116-0.186-0.162-0.285c-0.09-0.196-0.186-0.387-0.29-0.574l-0.06-0.107c-0.062-0.106-0.123-0.213-0.178-0.327
				c-0.03-0.062-0.058-0.126-0.081-0.191l-0.144-0.403c-0.076-0.203-0.169-0.43-0.27-0.655c-0.04-0.09-0.073-0.183-0.099-0.279
				l-0.242-0.9c-0.028-0.116-0.049-0.172-0.068-0.23c-0.07-0.217-0.174-0.537-0.218-0.94l-0.19-1.098
				c-0.029-0.143-0.057-0.285-0.074-0.418c-0.007-0.057-0.013-0.114-0.015-0.172l-0.017-0.431c-0.006-0.168-0.023-0.295-0.039-0.435
				c-0.046-0.393-0.109-0.931-0.087-1.98l-0.009-2.091c-0.001-0.054-0.002-0.11-0.002-0.167c0.001-0.258,0.055-0.504,0.15-0.728
				c0.651-6.184,4.508-13.351,10.118-18.72c2.919-2.824,6.234-5.151,9.584-6.728c0.424-0.231,0.743-0.34,0.957-0.414
				c0.053-0.018,0.104-0.035,0.157-0.057c0.186-0.07,0.284-0.115,0.393-0.164c0.141-0.064,0.295-0.132,0.49-0.211
				c0.051-0.021,0.102-0.039,0.155-0.055l2.827-0.868c0.23-0.071,0.458-0.095,0.688-0.078c0.488-0.095,0.964-0.194,1.442-0.294
				c1.545-0.322,3.141-0.654,4.824-0.777c4.589-0.666,9.188-0.482,13.474-0.183c0.048,0.003,0.094,0.008,0.142,0.015
				c0.663,0.097,1.329,0.178,1.993,0.259c1.558,0.189,3.17,0.385,4.796,0.788c0.353,0.079,0.748,0.155,1.143,0.23
				c0.712,0.137,1.448,0.278,2.201,0.491l3.247,0.917c0.826,0.194,1.666,0.503,2.478,0.803c0.279,0.102,0.557,0.205,0.836,0.303
				c0.427,0.162,0.806,0.293,1.185,0.424c0.695,0.24,1.414,0.488,2.138,0.816c0.559,0.254,1.119,0.498,1.677,0.741
				c1.503,0.656,3.058,1.333,4.558,2.184c4.492,2.235,8.524,5.101,11.539,7.349c0.027,0.02,0.053,0.041,0.08,0.063
				c0.453,0.378,0.911,0.749,1.369,1.119c1.264,1.023,2.57,2.081,3.761,3.279l1.34,1.244c0.372,0.342,0.757,0.695,1.076,1.082
				c0.56,0.615,1.18,1.281,1.808,1.937c0.522,0.492,1.154,1.27,1.821,2.091c0.205,0.253,0.41,0.505,0.607,0.743l2.003,2.451
				c0.011,0.013,0.021,0.027,0.032,0.039l0.024,0.029l-0.002,0.001c0.011,0.014,0.021,0.029,0.031,0.043
				c0.112,0.156,0.199,0.316,0.263,0.476l1.463,2.161c0.135,0.2,0.271,0.395,0.406,0.589c0.459,0.66,0.934,1.341,1.334,2.136
				c4.031,6.809,6.886,14.388,8.488,22.527c1.378,6.959,1.834,14.366,1.354,22.014c-0.455,5.885-1.511,11.974-3.231,18.641
				c-0.254,0.87-0.507,1.66-0.755,2.434c-0.163,0.51-0.324,1.012-0.476,1.508c-0.145,0.439-0.264,0.834-0.382,1.225
				c-0.252,0.835-0.512,1.699-0.88,2.542l-1.232,3.17c-0.105,0.267-0.205,0.528-0.302,0.785c-0.308,0.811-0.599,1.577-0.959,2.256
				c-0.743,1.571-1.416,3.041-1.991,4.324c-0.093,0.243-0.283,0.592-0.466,0.929L926.182,461.343z M843.835,384.2l0.001,0.018
				c0.225-0.015,0.445-0.075,0.644-0.175C844.269,384.119,844.049,384.168,843.835,384.2z"/>
		</g>
		<g id="face">
			<g id="XMLID_28_">
				<g id="XMLID_27_">
					<g id="XMLID_19_">
						<circle id="XMLID_21_" class="st0" cx="751.4" cy="464.985" r="23.297"/>
						<path id="XMLID_39_" d="M751.4,496.715c-17.496,0-31.73-14.234-31.73-31.73c0-17.496,14.234-31.73,31.73-31.73
							s31.73,14.234,31.73,31.73C783.13,482.481,768.896,496.715,751.4,496.715z M751.4,450.121
							c-8.197,0-14.865,6.668-14.865,14.864c0,8.197,6.668,14.864,14.865,14.864s14.864-6.668,14.864-14.864
							C766.265,456.789,759.597,450.121,751.4,450.121z"/>
					</g>
					<g id="XMLID_22_">
						<circle id="XMLID_43_" class="st0" cx="945.351" cy="464.985" r="23.297"/>
						<path id="XMLID_45_" d="M945.352,496.715c-17.496,0-31.73-14.234-31.73-31.73c0-17.496,14.234-31.73,31.73-31.73
							c17.496,0,31.73,14.234,31.73,31.73C977.081,482.481,962.847,496.715,945.352,496.715z M945.352,450.121
							c-8.197,0-14.864,6.668-14.864,14.864c0,8.197,6.668,14.864,14.864,14.864c8.197,0,14.864-6.668,14.864-14.864
							C960.216,456.789,953.548,450.121,945.352,450.121z"/>
					</g>
				</g>
				<g id="XMLID_26_">
					<path id="beEye_1_" class="st0" d="M880.769,576.339c5.948,21.811-9.417,42.002-32.025,42.002s-35.759-22.29-31.609-37.507
						c5.5-20.166,8.863-30.433,31.471-30.433S874.544,553.514,880.769,576.339z"/>
					<path id="XMLID_31_" d="M848.755,414.332c-63.821,0-115.559,51.737-115.559,115.558c0,48.554,29.958,72.74,72.393,81.535
						c10.079,12.758,25.671,20.97,43.155,20.97c17.478,0,33.066-8.206,43.145-20.957c42.457-8.784,72.424-32.971,72.424-81.548
						C964.314,466.069,912.577,414.332,848.755,414.332z M885.311,595.802c-6.737,13.366-20.576,22.54-36.566,22.54
						c-15.99,0-29.829-9.174-36.566-22.54c-28.466-0.157-51.495-23.275-51.495-51.778c0-28.6,23.185-51.785,51.785-51.785
						c14.13,0,26.932,5.666,36.276,14.842c9.344-9.176,22.146-14.842,36.276-14.842c28.6,0,51.785,23.185,51.785,51.785
						C936.805,572.527,913.776,595.645,885.311,595.802z"/>
				</g>
			</g>
			<circle id="mouth" cx="848.972" cy="590.687" r="7.476"/>
		</g>
		<path id="XMLID_67_" d="M861.975,218.282c0.468,6.456,0.393,12.377,0.075,17.634c-0.337,5.256-0.824,9.904-1.405,13.876
			c-0.562,3.991-1.134,7.318-1.658,10.1c-0.506,2.83-0.928,4.685-1.199,6.034c-0.281,1.33-0.422,2.014-0.422,2.014
			c-1.106,5.313-5.79,8.967-11.009,8.967c-0.759,0-1.527-0.075-2.305-0.234c-6.081-1.265-9.988-7.224-8.723-13.314
			c0-0.019,0.019-0.103,0.028-0.122c0,0,0.15-0.684,0.44-2.005c0.272-1.302,0.759-3.364,1.19-5.697
			c0.487-2.361,1.04-5.406,1.574-8.939c0.562-3.542,1.021-7.589,1.368-12.096c0.319-4.507,0.431-9.445,0.112-14.757
			c-0.141-2.661-0.44-5.416-0.834-8.273c-0.112-0.712-0.216-1.434-0.328-2.164c-0.122-0.731-0.253-1.471-0.384-2.211
			c-0.122-0.74-0.29-1.499-0.44-2.258l-0.112-0.572l-0.056-0.281l-0.028-0.141l0.047,0.169c-0.019-0.066-0.028-0.122-0.047-0.187
			c-0.084-0.347-0.178-0.703-0.253-1.049c-0.403-1.658-0.815-3.336-1.227-5.05c-0.197-0.918-0.44-1.518-0.665-2.277
			c-0.225-0.721-0.45-1.452-0.684-2.192c-0.244-0.74-0.422-1.471-0.712-2.23c-0.29-0.768-0.59-1.537-0.89-2.314
			c-0.3-0.778-0.6-1.555-0.899-2.342c-0.281-0.796-0.693-1.546-1.031-2.324c-2.773-6.231-6.465-12.434-11.103-18.749
			c-4.619-6.325-10.138-12.808-16.003-19.723c-5.865-6.915-12.031-14.289-18.008-22.215c-0.74-1.003-1.48-1.996-2.23-3.008
			l-1.124-1.509l-0.562-0.75l-0.141-0.197l-0.281-0.412l-0.262-0.375l-1.031-1.518c-0.347-0.515-0.665-0.946-1.078-1.63
			c-0.759-1.246-1.583-2.539-2.277-3.776c-2.773-4.825-5.06-9.885-6.999-15.104c-1.93-5.219-3.495-10.616-4.675-16.153
			c-1.171-5.547-1.902-11.244-2.211-17.043c-0.319-5.8-0.169-11.703,0.609-17.624l0.131-1.115l0.075-0.628l0.075-0.497l0.309-2.014
			c0.244-1.49,0.506-2.97,0.806-4.413c0.262-1.452,0.646-2.914,0.974-4.376c0.394-1.462,0.768-2.923,1.218-4.385
			c1.771-5.828,4.188-11.856,7.421-17.347C777.021,6.272,779.185,3,781.621,0h32.672l-0.431,0.444l-1.865,1.028l-0.469,0.284
			l-0.112,0.086l-0.009,0.024c-0.009,0-0.028,0.017-0.056,0.036c-0.037,0.019-0.075,0.041-0.066,0.041l-0.75,0.442l-1.48,0.863
			l-1.499,0.853l-1.377,0.984l-1.396,0.984l-0.693,0.487l-0.637,0.553c-0.843,0.74-1.724,1.443-2.558,2.202
			c-6.521,6.175-11.037,14.354-13.698,23.358c-0.337,1.124-0.618,2.267-0.918,3.411c-0.244,1.162-0.543,2.305-0.75,3.485
			c-0.234,1.181-0.431,2.342-0.609,3.495L784.629,45l-0.066,0.497l-0.037,0.365l-0.094,0.881c-0.581,4.638-0.665,9.351-0.384,14.017
			c0.291,4.666,0.909,9.313,1.902,13.839c1.003,4.526,2.324,8.939,3.926,13.174c1.602,4.226,3.476,8.292,5.65,12.002
			c0.515,0.909,1.031,1.687,1.537,2.53c0.206,0.384,0.618,0.937,0.946,1.424l1.04,1.508l0.234,0.328l0.056,0.084l0.075,0.094
			l0.534,0.703l1.049,1.405c0.712,0.928,1.405,1.865,2.108,2.792c5.65,7.383,11.534,14.326,17.418,21.157
			c5.875,6.84,11.768,13.623,17.1,20.81c5.341,7.168,10.016,14.804,13.511,22.525c0.44,0.965,0.928,1.893,1.302,2.876
			c0.384,0.965,0.759,1.93,1.143,2.895c0.375,0.956,0.74,1.911,1.115,2.858c0.356,0.956,0.656,1.986,0.984,2.961
			c0.319,0.993,0.628,1.977,0.937,2.951c0.29,0.956,0.665,2.014,0.843,2.811c0.431,1.705,0.853,3.382,1.274,5.041
			c0.103,0.412,0.206,0.825,0.319,1.227l0.141,0.656l0.075,0.328l0.141,0.665c0.178,0.89,0.384,1.752,0.534,2.633
			c0.169,0.881,0.328,1.752,0.487,2.623c0.141,0.871,0.281,1.733,0.422,2.595C861.375,211.695,861.769,215.049,861.975,218.282z"/>
		<path id="XMLID_68_" d="M921.575,86.376c-2.427,5.641-5.687,10.962-9.66,15.685c-3.973,4.732-8.733,8.761-13.867,11.993
			l-1.893,1.106l-0.815,0.468c-0.272,0.159-0.684,0.365-1.012,0.543l-2.127,1.078c-0.721,0.375-1.349,0.618-2.024,0.928
			l-1.996,0.871l-2.014,0.768c-1.34,0.534-2.708,0.946-4.076,1.387c-5.462,1.668-11.103,2.708-16.875,2.933
			c-5.762,0.215-11.684-0.422-17.381-2.23c-1.424-0.422-2.802-1.04-4.188-1.574c-0.703-0.253-1.368-0.609-2.033-0.956l-1.977-1.04
			l-0.984-0.534l-0.937-0.618l-1.846-1.246l-0.909-0.637l-0.225-0.15c-0.019,0-0.45-0.347-0.553-0.44l-0.019-0.019l-0.281-0.234
			l-1.302-1.096l-1.293-1.096c-0.44-0.384-0.806-0.647-1.359-1.209c-1.021-0.993-2.033-1.996-3.017-3.008
			c-1.059-1.003-1.808-2.043-2.67-3.064c-0.825-1.049-1.715-2.014-2.417-3.167c-0.731-1.115-1.462-2.23-2.183-3.336
			c-0.656-1.171-1.256-2.37-1.865-3.551c-0.646-1.153-1.096-2.436-1.583-3.673c-0.244-0.628-0.478-1.246-0.721-1.865
			c-0.244-0.618-0.365-1.293-0.553-1.93c-0.319-1.302-0.721-2.567-0.937-3.888c-0.197-1.331-0.375-2.652-0.543-3.963
			c-0.141-2.661-0.234-5.303,0.122-7.917c0.075-0.647,0.141-1.302,0.216-1.949c0.131-0.637,0.272-1.274,0.412-1.911
			c0.141-0.628,0.281-1.265,0.431-1.893c0.075-0.309,0.131-0.628,0.225-0.937l0.319-0.909c0.422-1.209,0.843-2.417,1.302-3.589
			c0.553-1.134,1.115-2.258,1.677-3.364c0.141-0.281,0.272-0.562,0.431-0.825l0.506-0.778c0.337-0.515,0.665-1.021,1.003-1.537
			c0.337-0.506,0.684-1.012,1.021-1.509c0.365-0.478,0.759-0.928,1.134-1.387c0.778-0.9,1.509-1.846,2.333-2.661
			c0.843-0.796,1.687-1.593,2.52-2.371l0.628-0.581l0.45-0.375l0.131-0.103l0.272-0.197l1.068-0.815l0.281-0.206l0.412-0.281
			l0.834-0.553c0.543-0.356,1.124-0.74,1.658-1.049c2.024-1.124,4.076-2.099,6.175-2.82c8.339-2.98,17.1-2.858,24.567-0.169
			c0.946,0.29,1.836,0.721,2.727,1.115c0.44,0.206,0.881,0.394,1.312,0.628c0.422,0.234,0.834,0.468,1.255,0.703
			c0.412,0.244,0.815,0.487,1.227,0.721c0.403,0.244,0.778,0.534,1.162,0.796c0.375,0.272,0.75,0.543,1.124,0.815l0.281,0.206
			l0.141,0.094c0.141,0.112-0.112-0.094,0.337,0.272l0.393,0.328l0.197,0.169l0.272,0.244l0.675,0.618
			c0.478,0.45,0.74,0.75,1.087,1.115c0.647,0.712,1.237,1.424,1.771,2.127c1.068,1.424,1.958,2.848,2.736,4.273
			c3.064,5.669,4.357,11.534,4.141,17.081c-0.122,2.755-0.665,5.397-1.509,7.73c-0.824,2.333-1.949,4.357-3.101,5.997
			c-2.314,3.326-4.666,5.2-6.184,6.353c-0.759,0.609-1.359,0.965-1.761,1.255c-0.403,0.262-0.6,0.403-0.6,0.403
			c-4.254,2.848-10.016,1.715-12.874-2.539c-2.848-4.254-1.715-10.016,2.539-12.865c0.272-0.187,0.543-0.347,0.825-0.497
			l0.234-0.122c0,0,0.094-0.047,0.272-0.15c0.169-0.103,0.497-0.216,0.806-0.422c0.693-0.394,1.583-1.031,2.371-1.94
			c0.422-0.459,0.787-0.993,1.087-1.677c0.3-0.684,0.562-1.508,0.646-2.549c0.084-1.031,0.056-2.277-0.244-3.663
			c-0.3-1.377-0.815-2.895-1.583-4.366c-0.393-0.721-0.843-1.434-1.321-2.071c-0.244-0.319-0.487-0.618-0.731-0.881
			c-0.112-0.112-0.281-0.309-0.3-0.309c-0.019-0.019-0.038-0.047-0.056-0.075l-0.019-0.019l-0.084-0.075l-0.187-0.159l-0.234-0.197
			l-0.019-0.009l-0.009-0.009l-0.066-0.037l-0.131-0.094l-0.553-0.375c-0.187-0.131-0.365-0.272-0.562-0.394l-0.6-0.319l-0.6-0.347
			c-0.206-0.112-0.431-0.178-0.647-0.281c-0.431-0.178-0.853-0.403-1.33-0.525c-3.626-1.293-8.376-1.284-12.846,0.45
			c-1.124,0.422-2.174,1.003-3.204,1.602c-0.225,0.15-0.365,0.272-0.562,0.394l-0.281,0.178l-0.141,0.094l-0.253,0.197l-1.04,0.853
			l-0.262,0.206l-0.047,0.047c0.037-0.028,0.066-0.056,0.103-0.075l-0.337,0.356c-0.469,0.478-0.937,0.956-1.424,1.424
			c-0.459,0.487-0.815,1.049-1.246,1.565c-0.206,0.262-0.431,0.515-0.628,0.787l-0.506,0.862l-0.534,0.853l-0.262,0.431
			c-0.084,0.141-0.141,0.3-0.206,0.459c-0.272,0.609-0.543,1.218-0.843,1.827c-0.197,0.637-0.403,1.284-0.6,1.93l-0.169,0.487
			c-0.037,0.159-0.056,0.337-0.084,0.497l-0.178,1.012l-0.206,1.012l-0.047,1.04c-0.169,1.377-0.009,2.811,0.075,4.235
			c0.15,0.721,0.281,1.443,0.393,2.164c0.131,0.731,0.431,1.443,0.618,2.174c0.122,0.356,0.169,0.731,0.347,1.087l0.459,1.078
			c0.309,0.721,0.543,1.462,0.993,2.155c0.393,0.712,0.787,1.424,1.181,2.146c0.478,0.684,0.965,1.377,1.452,2.071
			c0.431,0.712,1.068,1.349,1.612,2.024c0.572,0.647,1.115,1.415,1.705,1.921c0.581,0.562,1.153,1.134,1.724,1.715
			c0.206,0.272,0.759,0.675,1.162,1.021l1.312,1.068l1.312,1.303l0.141,0.347h0.009l0.009-0.216l0.112-0.047l0.497,0.272
			l0.993,0.637l0.497,0.333l0.543,0.265l1.077,0.549c0.356,0.197,0.703,0.401,1.106,0.523c0.787,0.262,1.518,0.636,2.342,0.861
			c3.214,1.012,6.859,1.433,10.691,1.264c3.842-0.159,7.861-0.9,11.815-2.136c0.984-0.328,1.986-0.619,2.942-1.021l1.462-0.562
			l1.434-0.637c0.45-0.216,1.003-0.422,1.377-0.637l1.227-0.618c0.225-0.122,0.384-0.178,0.656-0.337l0.815-0.478l1.368-0.806
			c6.793-4.291,12.321-10.775,15.75-18.777c3.504-7.964,4.9-17.268,4.348-26.647c-0.29-4.704-1.078-9.417-2.305-14.054
			c-0.646-2.305-1.349-4.61-2.23-6.859l-0.656-1.687l-1.068-2.502l-0.365-0.768l-0.721-1.527c-0.103-0.225-0.281-0.562-0.44-0.862
			l-0.487-0.909l-0.478-0.918l-0.216-0.403c0,0-0.009-0.009-0.028-0.047c-0.009-0.019-0.019-0.028-0.019-0.028l-0.112-0.187
			c-0.618-0.993-1.171-2.033-1.827-2.998c-1.293-1.94-2.652-3.832-4.188-5.584c-3.026-3.514-6.512-6.881-10.4-9.486
			C880.611,1.98,879.075,1,877.491,0h30.985c1.78,3,3.392,4.632,4.91,6.928c0.89,1.33,1.658,2.845,2.483,4.204l0.15,0.303
			c0,0,0.216,0.433,0.234,0.461l0.244,0.474l0.478,0.916l0.487,0.922c0.159,0.309,0.309,0.583,0.497,0.976l1.059,2.203l0.515,1.097
			l0.459,1.059l0.9,2.118l0.834,2.146c1.115,2.867,2.015,5.8,2.839,8.742c1.565,5.912,2.577,11.956,2.961,18.027
			C928.228,62.709,926.494,75.086,921.575,86.376z"/>
		<g id="group">
			<g id="leftEyeA" class="st9">
				<circle id="leftpath" class="st10" cx="815.71" cy="551.43" r="21.749"/>
				<circle id="leftpupil" cx="815.922" cy="565.485" r="7.476"/>
			</g>
			<g id="rightEyeA" class="st9">
				<circle id="rightpath" class="st10" cx="882.234" cy="551.43" r="21.749"/>
				<circle id="rightpupil" cx="882.447" cy="565.485" r="7.476"/>
			</g>
		</g>
	</g>
	<path id="leftEye_1_" class="st9" d="M815.71,529.214c-12.251,0-22.217,9.966-22.217,22.216c0,12.251,9.966,22.217,22.217,22.217
		c12.25,0,22.216-9.966,22.216-22.217C837.927,539.18,827.96,529.214,815.71,529.214z M818.389,572.536
		c2.915-1.02,5.01-3.788,5.01-7.051c0-4.129-3.347-7.476-7.476-7.476c-4.129,0-7.476,3.347-7.476,7.476
		c0,3.339,2.19,6.165,5.211,7.125c-10.774-1.037-19.227-10.138-19.227-21.179c0-11.733,9.546-21.279,21.28-21.279
		c11.733,0,21.279,9.546,21.279,21.279C836.99,562.256,828.861,571.214,818.389,572.536z"/>
	<path id="rightEye_1_" class="st9" d="M882.235,529.214c-12.251,0-22.217,9.966-22.217,22.216c0,12.251,9.966,22.217,22.217,22.217
		c12.25,0,22.216-9.966,22.216-22.217C904.451,539.18,894.485,529.214,882.235,529.214z M884.913,572.536
		c2.915-1.02,5.01-3.788,5.01-7.051c0-4.129-3.347-7.476-7.476-7.476s-7.476,3.347-7.476,7.476c0,3.339,2.19,6.165,5.211,7.125
		c-10.774-1.037-19.227-10.138-19.227-21.179c0-11.733,9.546-21.279,21.28-21.279c11.733,0,21.279,9.546,21.279,21.279
		C903.514,562.256,895.386,571.214,884.913,572.536z"/>
</g>
</svg>
