<?xml version="1.0" encoding="utf-8"?>
<!-- Generator: Adobe Illustrator 21.1.0, SVG Export Plug-In . SVG Version: 6.00 Build 0)  -->
<svg version="1.1" id="Layer_1" xmlns="http://www.w3.org/2000/svg" xmlns:xlink="http://www.w3.org/1999/xlink" x="0px" y="0px"
	 viewBox="0 0 1280 800" style="enable-background:new 0 0 1280 800;" xml:space="preserve">
<style type="text/css">
	.st0{fill:#FFEA00;}
	.st1{font-family:'ProximaNovaA-Extrabld';}
	.st2{font-size:140px;}
	.st3{letter-spacing:2;}
	.st4{fill:none;}
	.st5{font-family:'ProximaNovaA-Bold';}
	.st6{font-size:18px;}
	.st7{letter-spacing:1;}
	.st8{letter-spacing:13;}
	.st9{fill:#FFEA00;stroke:#000000;stroke-width:3;stroke-miterlimit:10;}
	.st10{opacity:0.09;}
	.st11{fill:none;stroke:#000000;stroke-miterlimit:10;}
</style>
<rect id="bgYellow" y="0" class="st0" width="1280" height="800"/>
<text id="XMLID_2_" transform="matrix(1 0 0 1 109.4563 438.1453)"><tspan x="0" y="0" class="st1 st2 st3">atul</tspan><tspan x="0" y="120" class="st1 st2 st3">kumar</tspan></text>
<rect id="XMLID_4_" x="114.32" y="66.23" class="st4" width="535.55" height="269.05"/>
<text id="XMLID_5_" transform="matrix(1 0 0 1 114.3155 78.2372)"><tspan x="0" y="0" class="st5 st6">Hi,</tspan><tspan x="23.38" y="0" class="st5 st6 st7"> </tspan><tspan x="29.19" y="0" class="st5 st6">I</tspan><tspan x="34.48" y="0" class="st5 st6 st7"> </tspan><tspan x="40.28" y="0" class="st5 st6">am</tspan><tspan x="66.9" y="0" class="st5 st6 st7"> </tspan><tspan x="72.71" y="0" class="st5 st6">pursuing</tspan><tspan x="147.5" y="0" class="st5 st6 st7"> </tspan><tspan x="153.3" y="0" class="st5 st6">masters</tspan><tspan x="221.41" y="0" class="st5 st6 st7"> </tspan><tspan x="227.22" y="0" class="st5 st6">in</tspan><tspan x="242.91" y="0" class="st5 st6 st7"> </tspan><tspan x="248.72" y="0" class="st5 st6">Information</tspan><tspan x="348.06" y="0" class="st5 st6 st7"> </tspan><tspan x="353.86" y="0" class="st5 st6">Experience</tspan><tspan x="447.82" y="0" class="st5 st6 st7"> </tspan><tspan x="453.62" y="0" class="st5 st6">Design</tspan><tspan x="512.75" y="0" class="st5 st6 st7"> </tspan><tspan x="518.56" y="0" class="st5 st6">at </tspan><tspan x="0" y="24" class="st5 st6">National</tspan><tspan x="73.87" y="24" class="st5 st6"> </tspan><tspan x="78.56" y="24" class="st5 st6">Institute</tspan><tspan x="148.92" y="24" class="st5 st6"> </tspan><tspan x="153.62" y="24" class="st5 st6">of</tspan><tspan x="170.57" y="24" class="st5 st6"> </tspan><tspan x="175.27" y="24" class="st5 st6">Design,</tspan><tspan x="239.35" y="24" class="st5 st6"> </tspan><tspan x="244.04" y="24" class="st5 st6">Bangalore,</tspan><tspan x="338.36" y="24" class="st5 st6"> </tspan><tspan x="343.05" y="24" class="st5 st6">India.</tspan><tspan x="390.84" y="24" class="st5 st6"> </tspan><tspan x="395.53" y="24" class="st5 st6">I</tspan><tspan x="400.82" y="24" class="st5 st6"> </tspan><tspan x="405.52" y="24" class="st5 st6">was</tspan><tspan x="439.59" y="24" class="st5 st6"> </tspan><tspan x="444.28" y="24" class="st5 st6">also</tspan><tspan x="480.57" y="24" class="st5 st6"> </tspan><tspan x="485.26" y="24" class="st5 st6">a</tspan><tspan x="496.17" y="24" class="st5 st6"> </tspan><tspan x="500.86" y="24" class="st5 st6">part </tspan><tspan x="0" y="48" class="st5 st6">of</tspan><tspan x="16.96" y="48" class="st5 st6"> </tspan><tspan x="21.85" y="48" class="st5 st6">Communication</tspan><tspan x="156.29" y="48" class="st5 st6"> </tspan><tspan x="161.18" y="48" class="st5 st6">Design</tspan><tspan x="220.31" y="48" class="st5 st6"> </tspan><tspan x="225.2" y="48" class="st5 st6">course</tspan><tspan x="282.13" y="48" class="st5 st6"> </tspan><tspan x="287.03" y="48" class="st5 st6">for</tspan><tspan x="310.82" y="48" class="st5 st6"> </tspan><tspan x="315.71" y="48" class="st5 st6">the</tspan><tspan x="343.27" y="48" class="st5 st6"> </tspan><tspan x="348.16" y="48" class="st5 st6">exchange</tspan><tspan x="430.95" y="48" class="st5 st6"> </tspan><tspan x="435.84" y="48" class="st5 st6">semester</tspan><tspan x="513.67" y="48" class="st5 st6"> </tspan><tspan x="518.56" y="48" class="st5 st6">at </tspan><tspan x="0" y="72" class="st5 st6">Hochschule</tspan><tspan x="100.28" y="72" class="st5 st6 st8"> </tspan><tspan x="118.79" y="72" class="st5 st6">für</tspan><tspan x="142.66" y="72" class="st5 st6 st8"> </tspan><tspan x="161.18" y="72" class="st5 st6">Technik</tspan><tspan x="228.17" y="72" class="st5 st6 st8"> </tspan><tspan x="246.69" y="72" class="st5 st6">und</tspan><tspan x="279.16" y="72" class="st5 st6 st8"> </tspan><tspan x="297.68" y="72" class="st5 st6">Wirtschaft</tspan><tspan x="385.45" y="72" class="st5 st6 st8"> </tspan><tspan x="403.96" y="72" class="st5 st6">(HTW),</tspan><tspan x="461.58" y="72" class="st5 st6 st8"> </tspan><tspan x="480.1" y="72" class="st5 st6">Berlin, </tspan><tspan x="0" y="96" class="st5 st6">Germany.</tspan><tspan x="0" y="144" class="st5 st6">I</tspan><tspan x="5.29" y="144" class="st5 st6"> </tspan><tspan x="10.86" y="144" class="st5 st6">have</tspan><tspan x="52.48" y="144" class="st5 st6"> </tspan><tspan x="58.04" y="144" class="st5 st6">done</tspan><tspan x="100.76" y="144" class="st5 st6"> </tspan><tspan x="106.33" y="144" class="st5 st6">my</tspan><tspan x="132.82" y="144" class="st5 st6"> </tspan><tspan x="138.39" y="144" class="st5 st6">graduation</tspan><tspan x="232.48" y="144" class="st5 st6"> </tspan><tspan x="238.04" y="144" class="st5 st6">in</tspan><tspan x="253.74" y="144" class="st5 st6"> </tspan><tspan x="259.31" y="144" class="st5 st6">Computer</tspan><tspan x="343.69" y="144" class="st5 st6"> </tspan><tspan x="349.26" y="144" class="st5 st6">Science</tspan><tspan x="415.43" y="144" class="st5 st6"> </tspan><tspan x="420.99" y="144" class="st5 st6">from</tspan><tspan x="460.5" y="144" class="st5 st6"> </tspan><tspan x="466.07" y="144" class="st5 st6">Manipal </tspan><tspan x="0" y="168" class="st5 st6">Institute</tspan><tspan x="70.36" y="168" class="st5 st6"> </tspan><tspan x="74.57" y="168" class="st5 st6">of</tspan><tspan x="91.53" y="168" class="st5 st6"> </tspan><tspan x="95.74" y="168" class="st5 st6">Technology,</tspan><tspan x="201.58" y="168" class="st5 st6"> </tspan><tspan x="205.79" y="168" class="st5 st6">Manipal,</tspan><tspan x="280.57" y="168" class="st5 st6"> </tspan><tspan x="284.78" y="168" class="st5 st6">India.</tspan><tspan x="332.57" y="168" class="st5 st6"> </tspan><tspan x="336.78" y="168" class="st5 st6">My</tspan><tspan x="363.32" y="168" class="st5 st6"> </tspan><tspan x="367.53" y="168" class="st5 st6">internship</tspan><tspan x="453.11" y="168" class="st5 st6"> </tspan><tspan x="457.32" y="168" class="st5 st6">and</tspan><tspan x="489.92" y="168" class="st5 st6"> </tspan><tspan x="494.13" y="168" class="st5 st6">work </tspan><tspan x="0" y="192" class="st5 st6">experience include software engineering and consultancy with </tspan><tspan x="0" y="216" class="st5 st6">my</tspan><tspan x="26.5" y="216" class="st5 st6"> </tspan><tspan x="30.71" y="216" class="st5 st6">stints</tspan><tspan x="77.18" y="216" class="st5 st6"> </tspan><tspan x="81.39" y="216" class="st5 st6">at</tspan><tspan x="98.74" y="216" class="st5 st6"> </tspan><tspan x="102.96" y="216" class="st5 st6">IBM,</tspan><tspan x="141.24" y="216" class="st5 st6"> </tspan><tspan x="145.45" y="216" class="st5 st6">General</tspan><tspan x="213.65" y="216" class="st5 st6"> </tspan><tspan x="217.86" y="216" class="st5 st6">Electric,</tspan><tspan x="286.59" y="216" class="st5 st6"> </tspan><tspan x="290.8" y="216" class="st5 st6">and</tspan><tspan x="323.39" y="216" class="st5 st6"> </tspan><tspan x="327.6" y="216" class="st5 st6">Deloitte.</tspan><tspan x="400.74" y="216" class="st5 st6"> </tspan><tspan x="404.95" y="216" class="st5 st6">Recently</tspan><tspan x="480.58" y="216" class="st5 st6"> </tspan><tspan x="484.79" y="216" class="st5 st6">I</tspan><tspan x="490.09" y="216" class="st5 st6"> </tspan><tspan x="494.3" y="216" class="st5 st6">have </tspan><tspan x="0" y="240" class="st5 st6">been involved with design freelancing and research.</tspan></text>
<g id="XMLID_25_">
	<rect id="XMLID_10_" x="1019.34" y="674.8" class="st4" width="234.22" height="20.65"/>
	<text id="behance" transform="matrix(1 0 0 1 1032.6116 689.8013)" class="st5 st6">behance.net/_atul_kumar</text>
	<rect id="XMLID_6_" x="1010.16" y="645.26" class="st4" width="243.4" height="20.65"/>
	<text id="perEmail" transform="matrix(1 0 0 1 1034.8621 660.2668)" class="st5 st6">myspace.atul@gmail.com</text>
	<rect id="XMLID_8_" x="1094.44" y="615.73" class="st4" width="159.12" height="20.65"/>
	<text id="nidEmail" transform="matrix(1 0 0 1 1110.7122 630.7324)" class="st5 st6">atul_ku@nid.edu</text>
</g>
<g id="XMLID_18_">
	<g id="reBtn">
		<path id="reRect" class="st9" d="M620.04,688.34h-110.6c-16.37,0-29.63-13.27-29.63-29.63v0c0-16.37,13.27-29.63,29.63-29.63
			h110.6c16.37,0,29.63,13.27,29.63,29.63v0C649.67,675.07,636.4,688.34,620.04,688.34z"/>
		<text id="reText" transform="matrix(1 0 0 1 529.2082 664.4135)" class="st1 st6">Résumé</text>
	</g>
	<g id="poBtn">
		<path id="prRect" class="st9" d="M436.93,688.34h-110.6c-16.37,0-29.63-13.27-29.63-29.63v0c0-16.37,13.27-29.63,29.63-29.63
			h110.6c16.37,0,29.63,13.27,29.63,29.63v0C466.57,675.07,453.3,688.34,436.93,688.34z"/>
		<text id="prText" transform="matrix(1 0 0 1 342.0892 664.4139)" class="st1 st6">Portfolio</text>
	</g>
	<g id="latBtn">
		<path id="lpRect" class="st9" d="M253.83,688.34h-110.6c-16.37,0-29.63-13.27-29.63-29.63v0c0-16.37,13.27-29.63,29.63-29.63
			h110.6c16.37,0,29.63,13.27,29.63,29.63v0C283.46,675.07,270.19,688.34,253.83,688.34z"/>
		<text id="lpText" transform="matrix(1 0 0 1 135.9618 664.4137)" class="st1 st6">Latest Project</text>
	</g>
</g>
<text id="XMLID_1_" transform="matrix(1 0 0 1 1014.2237 67.491)"><tspan x="0" y="0" class="st1 st2 st3">was</tspan><tspan x="105.28" y="120" class="st1 st2 st3">ist</tspan><tspan x="-38.78" y="240" class="st1 st2 st3">das?</tspan></text>
<g id="XMLID_3_">
	<g id="monkey" class="st10">
		<path id="XMLID_11_" d="M773.68,578.61c-0.14,0.3-0.32,0.66-0.48,0.95c0,0-0.64,1.19-1.84,3.42c-0.3,0.56-0.64,1.18-1.01,1.87
			c-0.18,0.34-0.38,0.7-0.58,1.08c-0.19,0.36-0.44,0.8-0.56,1.09c-0.58,1.29-1.26,2.78-2.05,4.44c-0.41,0.78-0.77,1.82-1.17,2.84
			c-0.4,1.03-0.82,2.11-1.26,3.24c-0.49,1.12-0.78,2.33-1.19,3.57c-0.38,1.24-0.81,2.52-1.21,3.86c-1.39,5.38-2.65,11.53-3.17,18.29
			c-0.42,6.75-0.15,14.08,1.32,21.53c1.47,7.45,4.15,15,8.3,21.99c0.45,0.92,1.07,1.72,1.65,2.57c0.57,0.85,1.15,1.7,1.73,2.55
			l0.22,0.32l0.05,0.08c-0.7-0.84-0.15-0.18-0.29-0.34l0.15,0.19l0.61,0.75l1.23,1.5c0.8,0.96,1.72,2.17,2.3,2.69
			c0.65,0.68,1.3,1.37,1.94,2.08c0.29,0.35,0.71,0.72,1.11,1.09l1.19,1.11c1.54,1.55,3.3,2.86,5,4.28c3.54,2.64,7.26,5.19,11.3,7.2
			c1.97,1.12,4.07,1.94,6.13,2.87c1.03,0.47,2.11,0.77,3.17,1.18c1.06,0.37,2.11,0.81,3.21,1.07l3.25,0.92
			c1.08,0.31,2.19,0.46,3.28,0.71c2.19,0.54,4.4,0.69,6.61,1.01c4.41,0.31,8.85,0.45,13.14-0.18c2.18-0.15,4.27-0.7,6.39-1.1
			l0.4-0.08l0.2-0.04l0.1-0.02c-0.22,0.07,0.64-0.19-0.48,0.16l0.94-0.29l1.88-0.58c0.38-0.15,0.57-0.26,0.88-0.37
			c0.29-0.12,0.53-0.16,0.97-0.41c3.21-1.5,6.4-3.76,9.14-6.41c5.55-5.31,9.08-12.25,9.58-17.9l0.07-0.53l0.02-0.13l0.01-0.07
			c0-0.12,0.02,0.89,0.01,0.41l0-0.43c0-0.58-0.01-1.15-0.01-1.73c0.03-1.4-0.1-1.68-0.12-2.3l-0.02-0.43
			c-0.02-0.16-0.06-0.33-0.09-0.5l-0.17-1.01c-0.03-0.36-0.16-0.62-0.24-0.93l-0.24-0.9c-0.12-0.26-0.22-0.52-0.32-0.79l-0.14-0.4
			c-0.06-0.12-0.13-0.23-0.19-0.35c-0.13-0.23-0.24-0.46-0.36-0.7l-0.42-0.61l-0.2-0.32c-0.07-0.1-0.16-0.18-0.24-0.27
			c-0.16-0.18-0.31-0.36-0.45-0.55c-0.18-0.16-0.36-0.31-0.52-0.47l-0.25-0.25l-0.29-0.2c-0.72-0.62-1.63-1.02-2.55-1.43
			c-0.49-0.15-0.95-0.36-1.48-0.45c-0.5-0.15-1.02-0.21-1.54-0.29c-0.26-0.06-0.52-0.04-0.78-0.07l-0.39-0.03l-0.19-0.02l-0.05,0
			c0.93-0.05,0.21-0.01,0.39-0.02l-0.17,0.01c-0.4,0.02-1.11,0.05-0.82,0.05c0.03,0,0.07-0.01,0.1-0.03l-0.18,0.03
			c-0.55,0.08-1.24,0.32-1.84,0.64c-1.22,0.65-2.07,1.5-2.44,2.19c-0.13,0.17-0.16,0.35-0.28,0.51c-0.02,0.09-0.05,0.18-0.08,0.26
			l-0.03,0.06l-0.02,0.03c0.03-0.17-0.07,0.41,0.06-0.39l-0.01,0.06l-0.08,0.49l-0.08,0.48l-0.02,0.1l0.01-0.01l0.01-0.01
			c0-0.01,0-0.02,0-0.03c-0.01-0.01-0.02-0.04-0.01,0.04c0,0.1-0.01,0.19-0.02,0.29c0,0.1,0.01,0.2,0.01,0.3
			c0.03,0.8,0.27,1.63,0.63,2.34c0.36,0.71,0.8,1.3,1.2,1.76c0.42,0.44,0.77,0.77,1.03,0.97c0.26,0.2,0.39,0.31,0.39,0.31l0.81,0.64
			c4.05,3.2,4.73,9.08,1.53,13.12c-3.03,3.83-8.48,4.62-12.48,1.99c0,0-0.42-0.28-1.24-0.82c-0.81-0.56-1.98-1.44-3.39-2.76
			c-1.39-1.34-3-3.15-4.49-5.61c-1.48-2.46-2.84-5.63-3.4-9.54c-0.06-0.49-0.13-0.99-0.17-1.49c-0.02-0.51-0.04-1.03-0.07-1.56
			c-0.01-0.24,0-0.58,0.01-0.9c0.02-0.32,0.03-0.65,0.05-0.98l0.04-0.49l0.03-0.39l0.05-0.48l0.05-0.49l0.01-0.06l0.08-0.51
			l0.04-0.21l0.09-0.42c0.12-0.56,0.25-1.14,0.39-1.71c0.35-1.12,0.71-2.29,1.24-3.39c1.99-4.51,5.47-8.42,9.86-11.22
			c2.21-1.4,4.67-2.55,7.52-3.31c0.37-0.09,0.69-0.19,1.1-0.28c0.46-0.09,0.93-0.17,1.41-0.25c1.17-0.18,1.35-0.17,1.85-0.23
			l0.17-0.02c0.24-0.01-0.42,0.02,0.56-0.03l0.12,0l0.48-0.01l0.97-0.01c0.65,0,1.31-0.02,1.97,0.04c1.32,0.09,2.67,0.2,4.02,0.46
			c1.36,0.19,2.72,0.58,4.1,0.96c2.73,0.89,5.52,2.04,8.1,3.79c5.3,3.3,9.58,8.77,12.07,14.63c0.29,0.73,0.55,1.47,0.81,2.22
			c0.25,0.74,0.56,1.51,0.72,2.25c0.18,0.75,0.37,1.5,0.55,2.25c0.09,0.38,0.18,0.75,0.26,1.15l0.19,1.25
			c0.23,1.62,0.48,3.59,0.49,4.49c0.03,0.57,0.07,1.15,0.1,1.72l0.03,0.43c0-0.41,0.01,0.67,0.01,0.62l0,0.15l-0.01,0.3l-0.04,1.2
			c-0.2,6.45-1.88,12.67-4.46,18.35c-2.6,5.68-6.07,10.9-10.35,15.55c-4.28,4.65-9.32,8.81-15.38,12.12
			c-0.68,0.41-1.66,0.86-2.56,1.27c-0.9,0.41-1.89,0.85-2.73,1.19l-1.85,0.68l-0.93,0.34c-1.2,0.37-0.41,0.13-0.72,0.22l-0.14,0.04
			l-0.28,0.08l-0.56,0.15c-3.02,0.79-6.05,1.7-9.17,2.14c-6.2,1.23-12.56,1.46-18.9,1.34c-3.15-0.23-6.34-0.34-9.45-0.88
			c-1.56-0.25-3.15-0.41-4.69-0.74l-4.63-1.02c-1.56-0.3-3.05-0.8-4.57-1.23c-1.5-0.47-3.04-0.85-4.51-1.4
			c-2.94-1.1-5.92-2.13-8.75-3.49c-5.76-2.5-11.16-5.69-16.33-9.14c-2.52-1.83-5.08-3.59-7.42-5.63L758.8,703
			c-0.59-0.5-1.18-0.97-1.79-1.58c-1.2-1.16-2.41-2.32-3.6-3.48c-1.33-1.26-2.02-2.1-2.93-3.08l-1.31-1.43l-0.65-0.71l-0.16-0.18
			c-0.19-0.22,0.31,0.37-0.44-0.52l-0.09-0.11l-0.36-0.46c-0.94-1.22-1.89-2.44-2.82-3.65c-0.93-1.22-1.9-2.41-2.68-3.71
			c-6.82-10.09-11.4-21.03-14.14-31.67c-2.75-10.65-3.71-21-3.64-30.45c0.17-9.46,1.41-18.02,2.93-25.49
			c0.42-1.85,0.9-3.63,1.33-5.36c0.46-1.72,0.81-3.41,1.35-4.96c0.51-1.56,0.99-3.07,1.45-4.5c0.48-1.44,0.87-2.78,1.45-4.15
			c1.06-2.7,2.04-5.1,2.9-7.19c0.22-0.57,0.4-0.91,0.58-1.31c0.18-0.38,0.35-0.75,0.52-1.11c0.33-0.71,0.63-1.35,0.9-1.92
			c1.08-2.3,1.65-3.52,1.65-3.52L773.68,578.61z"/>
		<path id="XMLID_20_" d="M921.55,436.39c-19.87-16.13-45.21-25.8-72.79-25.8c-29.23,0-55.94,10.85-76.29,28.76
			c0.85-2.94,16.41-68.89,18.82-91.52c2.31-21.71,9.93-67.29,9.93-67.29c2.05-12.67,11.3-22.97,23.67-26.38
			c14-3.85,31.86-3.83,45.84,0.05c12.38,3.44,21.61,13.8,23.6,26.49c0,0,8.55,45.2,10.79,66.71
			C907.35,368.77,917.98,422.77,921.55,436.39z"/>
		<g id="XMLID_35_">
			<path id="XMLID_33_" d="M924.53,460.46c0,0,0.64-1.19,1.84-3.42c0.3-0.56,0.64-1.18,1.01-1.87c0.18-0.34,0.38-0.7,0.58-1.08
				c0.19-0.36,0.44-0.8,0.56-1.09c0.58-1.29,1.26-2.78,2.05-4.44c0.41-0.78,0.77-1.82,1.17-2.84c0.4-1.03,0.82-2.11,1.26-3.24
				c0.49-1.12,0.78-2.33,1.19-3.57c0.38-1.24,0.81-2.52,1.21-3.86c1.39-5.38,2.65-11.53,3.17-18.29c0.42-6.75,0.15-14.08-1.32-21.53
				c-1.47-7.45-4.15-15-8.3-21.99c-0.45-0.92-1.07-1.72-1.65-2.57c-0.57-0.85-1.15-1.7-1.73-2.55l-0.22-0.32l-0.05-0.08
				c0.7,0.84,0.15,0.18,0.29,0.34l-0.15-0.19l-0.61-0.75l-1.23-1.5c-0.8-0.96-1.72-2.17-2.3-2.69c-0.65-0.68-1.3-1.37-1.94-2.08
				c-0.29-0.35-0.71-0.72-1.11-1.09l-1.19-1.11c-1.54-1.55-3.3-2.86-5-4.28c-3.54-2.64-7.26-5.19-11.3-7.2
				c-1.97-1.12-4.07-1.94-6.13-2.87c-1.03-0.47-2.11-0.77-3.17-1.18c-1.06-0.37-2.11-0.81-3.21-1.07l-3.25-0.92
				c-1.08-0.31-2.19-0.46-3.28-0.71c-2.19-0.54-4.4-0.69-6.61-1.01c-4.41-0.31-8.85-0.45-13.14,0.18c-2.18,0.15-4.27,0.7-6.39,1.1
				l-0.4,0.08l-0.2,0.04l-0.1,0.02c0.22-0.07-0.64,0.19,0.48-0.16l-0.94,0.29l-1.88,0.58c-0.38,0.15-0.57,0.26-0.88,0.37
				c-0.29,0.12-0.53,0.16-0.97,0.41c-3.21,1.5-6.4,3.76-9.14,6.41c-5.55,5.31-9.08,12.25-9.58,17.9l-0.07,0.53l-0.02,0.13
				l-0.01,0.07c0,0.12-0.02-0.89-0.01-0.41l0,0.43c0,0.58,0.01,1.15,0.01,1.73c-0.03,1.4,0.1,1.68,0.12,2.3l0.02,0.43
				c0.02,0.16,0.06,0.33,0.09,0.5l0.17,1.01c0.03,0.36,0.16,0.62,0.24,0.93l0.24,0.9c0.12,0.26,0.22,0.52,0.32,0.79l0.14,0.4
				c0.06,0.12,0.13,0.23,0.19,0.35c0.13,0.23,0.24,0.46,0.36,0.7l0.42,0.61l0.2,0.32c0.07,0.1,0.16,0.18,0.24,0.27
				c0.16,0.18,0.31,0.36,0.45,0.55c0.18,0.16,0.36,0.31,0.52,0.47l0.25,0.25l0.29,0.2c0.72,0.62,1.63,1.02,2.55,1.43
				c0.49,0.15,0.95,0.36,1.48,0.45c0.5,0.15,1.02,0.21,1.54,0.29c0.26,0.06,0.52,0.04,0.78,0.07l0.39,0.03l0.19,0.02l0.05,0
				c-0.93,0.05-0.21,0.01-0.39,0.02l0.17-0.01c0.4-0.02,1.11-0.05,0.82-0.05c-0.03,0-0.07,0.01-0.1,0.03l0.18-0.03
				c0.55-0.08,1.24-0.32,1.84-0.64c1.22-0.65,2.07-1.5,2.44-2.19c0.13-0.17,0.16-0.35,0.28-0.51c0.02-0.09,0.05-0.18,0.08-0.26
				l0.03-0.06l0.02-0.03c-0.03,0.17,0.07-0.41-0.06,0.39l0.01-0.06l0.08-0.49l0.08-0.48l0.02-0.1l-0.01,0.01l-0.01,0.01
				c0,0.01,0,0.02,0,0.03c0,0.01,0.02,0.04,0.01-0.04c0-0.1,0.01-0.19,0.02-0.29c0-0.1-0.01-0.2-0.01-0.3
				c-0.03-0.8-0.27-1.63-0.63-2.34c-0.36-0.71-0.8-1.3-1.2-1.76c-0.42-0.44-0.77-0.77-1.03-0.97c-0.26-0.2-0.39-0.31-0.39-0.31
				l-0.81-0.64c-4.05-3.2-4.73-9.08-1.53-13.12c3.03-3.83,8.48-4.63,12.48-1.99c0,0,0.42,0.28,1.24,0.82
				c0.81,0.56,1.98,1.44,3.39,2.76c1.39,1.34,3,3.15,4.49,5.61c1.48,2.46,2.84,5.63,3.4,9.54c0.06,0.49,0.13,0.99,0.17,1.49
				c0.02,0.51,0.04,1.03,0.07,1.56c0.01,0.24,0,0.58-0.01,0.9c-0.02,0.32-0.03,0.65-0.05,0.98l-0.03,0.49l-0.03,0.39l-0.05,0.48
				l-0.05,0.49l-0.01,0.06l-0.08,0.51l-0.04,0.21l-0.09,0.42c-0.12,0.56-0.25,1.14-0.39,1.71c-0.35,1.12-0.71,2.29-1.24,3.39
				c-1.99,4.51-5.47,8.42-9.86,11.22c-2.21,1.4-4.67,2.55-7.52,3.31c-0.37,0.09-0.69,0.19-1.1,0.28c-0.46,0.09-0.93,0.17-1.41,0.25
				c-1.17,0.18-1.35,0.17-1.85,0.23l-0.17,0.02c-0.24,0.01,0.42-0.02-0.56,0.03l-0.12,0l-0.48,0.01l-0.97,0.01
				c-0.65,0-1.31,0.02-1.97-0.04c-1.32-0.09-2.67-0.2-4.02-0.46c-1.36-0.19-2.72-0.58-4.1-0.96c-2.73-0.89-5.52-2.04-8.1-3.79
				c-5.3-3.3-9.58-8.77-12.07-14.63c-0.29-0.73-0.55-1.47-0.81-2.22c-0.25-0.74-0.56-1.51-0.72-2.25c-0.18-0.75-0.37-1.5-0.55-2.25
				c-0.09-0.38-0.18-0.75-0.26-1.15l-0.19-1.25c-0.23-1.62-0.48-3.59-0.49-4.49c-0.03-0.57-0.07-1.15-0.1-1.72l-0.03-0.43
				c0,0.41-0.01-0.67-0.01-0.62l0-0.15l0.01-0.3l0.04-1.2c0.2-6.45,1.88-12.67,4.46-18.35c2.6-5.68,6.07-10.9,10.35-15.55
				c4.28-4.65,9.32-8.81,15.38-12.12c0.68-0.41,1.66-0.86,2.56-1.27c0.9-0.41,1.89-0.85,2.73-1.19l1.85-0.68l0.93-0.34
				c1.2-0.37,0.41-0.13,0.72-0.22l0.14-0.04l0.28-0.08l0.56-0.15c3.02-0.79,6.05-1.7,9.17-2.14c6.2-1.23,12.56-1.46,18.9-1.33
				c3.15,0.23,6.34,0.34,9.45,0.88c1.56,0.25,3.15,0.41,4.69,0.74l4.63,1.02c1.56,0.3,3.05,0.8,4.57,1.23
				c1.5,0.47,3.04,0.85,4.51,1.4c2.94,1.1,5.92,2.13,8.75,3.49c5.76,2.5,11.16,5.69,16.33,9.14c2.52,1.83,5.08,3.59,7.42,5.63
				l1.78,1.49c0.59,0.5,1.18,0.97,1.79,1.58c1.2,1.16,2.41,2.32,3.6,3.48c1.33,1.26,2.02,2.1,2.93,3.08l1.31,1.43l0.65,0.71
				l0.16,0.18c0.19,0.22-0.31-0.37,0.44,0.52l0.09,0.11l0.36,0.46c0.94,1.22,1.89,2.44,2.82,3.65c0.93,1.22,1.9,2.41,2.68,3.71
				c6.82,10.09,11.4,21.03,14.14,31.67c2.75,10.65,3.71,21,3.64,30.45c-0.17,9.46-1.41,18.02-2.93,25.49
				c-0.42,1.85-0.9,3.63-1.33,5.36c-0.46,1.72-0.81,3.41-1.35,4.96c-0.51,1.56-0.99,3.07-1.45,4.5c-0.48,1.44-0.87,2.78-1.45,4.15
				c-1.06,2.7-2.04,5.1-2.9,7.19c-0.22,0.57-0.4,0.91-0.58,1.31c-0.18,0.38-0.35,0.75-0.52,1.11c-0.33,0.71-0.63,1.35-0.9,1.92
				c-1.08,2.3-1.65,3.52-1.65,3.52c-4.46,9.51-15.79,13.61-25.3,9.15c-9.51-4.46-13.61-15.79-9.15-25.3
				C924.2,461.1,924.38,460.75,924.53,460.46z"/>
			<path id="XMLID_34_" class="st0" d="M941.25,490.38c-2.97,0-5.98-0.64-8.84-1.98c-10.43-4.89-14.94-17.36-10.05-27.79
				c0.15-0.33,0.35-0.72,0.52-1.04c0,0,0-0.01,0-0.01l3.59-6.66c0.12-0.21,0.24-0.43,0.3-0.59c0.62-1.39,1.3-2.88,2.1-4.55
				c0.29-0.55,0.54-1.21,0.8-1.91c0.1-0.27,0.21-0.55,0.32-0.82l1.26-3.23c0.31-0.71,0.53-1.43,0.75-2.19
				c0.13-0.42,0.26-0.85,0.4-1.28c0.14-0.47,0.31-0.98,0.48-1.51c0.24-0.75,0.48-1.51,0.71-2.29c1.65-6.39,2.67-12.27,3.1-17.91
				c0.46-7.3,0.02-14.38-1.29-21.03c-1.53-7.74-4.24-14.94-8.07-21.4c-0.02-0.04-0.05-0.08-0.07-0.13
				c-0.28-0.57-0.67-1.13-1.08-1.72c-0.15-0.21-0.29-0.42-0.44-0.63l-1.99-2.94l-1.62-1.98c-0.2-0.24-0.41-0.5-0.62-0.76
				c-0.55-0.67-1.16-1.43-1.49-1.74c-0.03-0.03-0.06-0.06-0.09-0.08c-0.66-0.69-1.32-1.4-1.97-2.12c-0.21-0.25-0.5-0.52-0.78-0.77
				l-1.41-1.31c-1.1-1.1-2.27-2.05-3.51-3.06c-0.46-0.37-0.92-0.74-1.37-1.12c-2.89-2.16-6.75-4.89-10.97-6.99
				c-0.03-0.02-0.06-0.03-0.1-0.05c-1.34-0.76-2.75-1.38-4.25-2.03c-0.58-0.25-1.15-0.5-1.73-0.76c-0.56-0.26-1.17-0.47-1.82-0.69
				c-0.42-0.14-0.84-0.29-1.25-0.45c-0.25-0.09-0.55-0.2-0.84-0.31c-0.74-0.27-1.44-0.53-2.12-0.69l-3.33-0.94
				c-0.6-0.17-1.23-0.29-1.89-0.42c-0.43-0.08-0.87-0.17-1.3-0.26c-1.44-0.36-2.87-0.53-4.39-0.72c-0.67-0.08-1.34-0.16-2.01-0.26
				c-4.08-0.28-8.43-0.45-12.67,0.17c-0.05,0.01-0.1,0.01-0.14,0.02c-1.45,0.1-2.88,0.4-4.39,0.71c-0.59,0.12-1.18,0.25-1.78,0.36
				l-0.69,0.13c0,0,0,0-0.01,0l-2.07,0.63c-0.11,0.05-0.2,0.09-0.29,0.13c-0.19,0.09-0.36,0.16-0.57,0.24
				c-0.06,0.03-0.18,0.07-0.3,0.11c-0.16,0.05-0.25,0.08-0.41,0.17c-0.04,0.02-0.08,0.04-0.12,0.06c-2.96,1.38-6.02,3.54-8.63,6.06
				c-5.01,4.79-8.54,11.35-9.02,16.72l-0.09,0.75l0.01,1.56c-0.02,0.84,0.02,1.18,0.06,1.51c0.03,0.24,0.05,0.46,0.06,0.73
				l0.01,0.31c0.01,0.03,0.01,0.07,0.02,0.1l0.22,1.29c0.01,0.05,0.02,0.11,0.02,0.16c0.01,0.06,0.04,0.12,0.06,0.18
				c0.05,0.15,0.1,0.31,0.14,0.47l0.19,0.71c0.11,0.25,0.21,0.5,0.31,0.76l0.1,0.29c0.06,0.11,0.1,0.17,0.14,0.24
				c0.11,0.19,0.22,0.41,0.33,0.64l0.5,0.75c0.07,0.07,0.12,0.13,0.17,0.19c0.11,0.12,0.25,0.28,0.38,0.46
				c0.16,0.14,0.32,0.28,0.47,0.44l0.28,0.23c0.06,0.04,0.12,0.08,0.17,0.13c0.48,0.42,1.21,0.74,1.98,1.09l0,0
				c0.16,0.05,0.31,0.11,0.47,0.16c0.25,0.09,0.47,0.17,0.65,0.2c0.09,0.01,0.17,0.03,0.25,0.06c0.24,0.08,0.56,0.12,0.9,0.17
				l0.38,0.06c0.05,0.01,0.1,0.02,0.15,0.03c0.01,0,0.07,0,0.13,0c0.13,0,0.25,0.01,0.38,0.02l0.53,0.04c0.08,0,0.15-0.01,0.22-0.01
				c0.06-0.01,0.12-0.02,0.18-0.02c0.01,0,0.02,0,0.03,0c0.37-0.08,0.79-0.23,1.14-0.42c0.99-0.52,1.51-1.14,1.66-1.42
				c0.03-0.05,0.06-0.11,0.1-0.16c0.03-0.06,0.05-0.12,0.08-0.17c0.02-0.07,0.05-0.15,0.08-0.22l0.05-0.27
				c0-0.08,0.01-0.15,0.03-0.23c0-0.01,0-0.01,0-0.02c0-0.07,0-0.13-0.01-0.19c-0.03-0.49-0.18-1.05-0.43-1.54
				c-0.3-0.6-0.67-1.07-0.93-1.36c-0.42-0.44-0.69-0.66-0.78-0.73l-1.22-0.96c-2.35-1.86-3.83-4.52-4.18-7.5
				c-0.35-2.98,0.49-5.91,2.35-8.26c3.58-4.52,10.16-5.57,14.98-2.39l1.25,0.82c1.22,0.84,2.43,1.82,3.64,2.95
				c1.9,1.83,3.47,3.79,4.81,6.01c1.91,3.18,3.13,6.62,3.65,10.24c0,0.01,0.01,0.09,0.01,0.1c0.06,0.49,0.12,0.98,0.17,1.49
				l0.07,1.64c0.02,0.26,0.01,0.67-0.01,1.06l-0.24,2.97c0,0.03-0.02,0.13-0.02,0.16l-0.23,1.21c-0.12,0.59-0.26,1.18-0.41,1.78
				c-0.01,0.04-0.02,0.07-0.03,0.11l-0.05,0.17c-0.36,1.13-0.72,2.3-1.28,3.46c-2.11,4.79-5.77,8.95-10.55,11.99
				c-2.56,1.62-5.19,2.78-8.04,3.54l-0.25,0.07c-0.3,0.08-0.59,0.15-0.93,0.23c-0.53,0.11-1.03,0.19-1.53,0.27
				c-0.9,0.14-1.26,0.17-1.58,0.2l-0.71,0.05c-0.03,0-0.3,0.01-0.3,0.01v-0.02c0,0,0,0,0,0.01v0.02c0,0,0.06,0,0.01,0
				c-0.11,0.01-0.15,0.02-0.28,0.03l-2.13,0.02c-0.52,0-1.05,0.01-1.64-0.05c-1.34-0.09-2.7-0.2-4.14-0.48
				c-1.36-0.2-2.69-0.56-3.98-0.92l-0.3-0.08c-3.56-1.16-6.28-2.44-8.66-4.04c-5.33-3.32-9.99-8.97-12.74-15.45
				c-0.25-0.63-0.47-1.23-0.68-1.84l-0.17-0.47c-0.08-0.24-0.15-0.44-0.22-0.64c-0.21-0.59-0.42-1.2-0.56-1.85l-0.62-2.54
				c-0.07-0.29-0.14-0.59-0.2-0.89l-0.2-1.32c-0.15-1.03-0.49-3.54-0.52-4.74l-0.11-1.84c-0.01-0.06-0.01-0.12-0.02-0.19
				c-0.01-0.16-0.01-0.49,0-0.73c0-0.01,0-0.15,0-0.15h0c0,0,0.01,0,0.02,0h-0.02l0.06-1.64c0.2-6.33,1.76-12.74,4.63-19.04
				c2.67-5.85,6.26-11.24,10.68-16.04c4.72-5.12,10.06-9.32,15.86-12.5c0.65-0.4,1.58-0.82,2.48-1.24l0.2-0.09
				c0.93-0.42,1.94-0.87,2.8-1.23l2.84-1.05c0.03-0.01,0.06-0.02,0.09-0.03c0.13-0.04,0.29-0.09,0.48-0.14
				c0.05-0.02,0.09-0.04,0.14-0.05l0.01,0.02c0.02,0,0.04-0.01,0.05-0.01l-0.01-0.02c0.01,0,0.09-0.03,0.1-0.03l2.59-0.7
				c2.5-0.67,5.08-1.37,7.74-1.75c5.48-1.08,11.6-1.51,19.25-1.36c0.03,0,0.07,0,0.1,0c0.7,0.05,1.39,0.1,2.09,0.14
				c2.47,0.16,5.03,0.32,7.55,0.76c0.47,0.07,0.98,0.15,1.49,0.22c1.07,0.15,2.17,0.3,3.27,0.54l4.64,1.02
				c1.24,0.24,2.46,0.61,3.64,0.96c0.35,0.1,0.69,0.21,1.04,0.31c0.53,0.16,1.03,0.31,1.52,0.45c1.02,0.3,2.08,0.6,3.13,1l1.64,0.61
				c2.4,0.89,4.89,1.8,7.27,2.95c5.15,2.23,10.43,5.19,16.55,9.27l1.42,1.02c2.07,1.49,4.21,3.02,6.19,4.76l2.05,1.71
				c0.51,0.43,1.04,0.87,1.61,1.43l3.59,3.46c1.02,0.97,1.68,1.7,2.33,2.41c0.22,0.24,0.44,0.49,0.68,0.74l2.14,2.34
				c0.01,0.01,0.06,0.07,0.07,0.08l-0.01,0.01c0.01,0.01,0.02,0.02,0.03,0.03l0.01-0.01c0.03,0.03,0.05,0.07,0.08,0.1
				c0.12,0.13,0.23,0.26,0.32,0.36l3.86,5c0.76,0.99,1.55,2.01,2.23,3.13c6.53,9.66,11.36,20.5,14.38,32.21
				c2.53,9.79,3.77,20.2,3.7,30.93c-0.15,8.29-1.12,16.74-2.96,25.85c-0.31,1.36-0.64,2.64-0.95,3.89l-0.39,1.55
				c-0.15,0.55-0.28,1.07-0.4,1.59c-0.29,1.17-0.59,2.39-1,3.54l-1.76,5.44c-0.35,1.08-0.71,2.19-1.18,3.31
				c-1.05,2.66-2.03,5.08-2.89,7.17c-0.17,0.44-0.33,0.77-0.48,1.08l-3.21,6.85C956.65,485.93,949.11,490.38,941.25,490.38z
				 M926.18,461.34c-0.14,0.26-0.3,0.59-0.43,0.86c-4.02,8.56-0.31,18.8,8.25,22.81c4.15,1.94,8.81,2.16,13.11,0.6
				c4.31-1.56,7.75-4.7,9.7-8.85l3.22-6.86c0.12-0.25,0.24-0.51,0.39-0.88c0.87-2.11,1.84-4.5,2.9-7.19c0.43-1.02,0.75-2,1.09-3.05
				l1.78-5.49c0.36-1.03,0.63-2.11,0.91-3.25c0.13-0.53,0.27-1.07,0.41-1.62l0.39-1.54c0.31-1.22,0.63-2.47,0.92-3.76
				c1.79-8.84,2.73-17.07,2.88-25.11c0.07-10.39-1.13-20.47-3.58-29.95c-2.91-11.31-7.58-21.77-13.88-31.08
				c-0.02-0.03-0.04-0.05-0.05-0.08c-0.58-0.95-1.27-1.86-2.01-2.82l-4.13-5.31c-0.03-0.03-0.05-0.05-0.07-0.08l-2.08-2.27
				c-0.24-0.25-0.47-0.51-0.7-0.77c-0.63-0.69-1.22-1.34-2.14-2.22l-3.61-3.49c-0.47-0.47-0.92-0.84-1.39-1.23l-2.09-1.74
				c-1.88-1.65-3.85-3.06-5.94-4.56l-1.37-0.99c-5.87-3.92-10.96-6.77-15.97-8.94c-2.29-1.1-4.68-1.99-7.01-2.84l-1.65-0.61
				c-0.91-0.34-1.86-0.62-2.86-0.91c-0.52-0.15-1.04-0.3-1.55-0.46c-0.32-0.09-0.68-0.2-1.03-0.3c-1.15-0.34-2.23-0.66-3.34-0.88
				l-4.67-1.03c-0.96-0.2-1.95-0.34-3-0.49c-0.53-0.07-1.06-0.15-1.58-0.23c-2.35-0.41-4.8-0.57-7.17-0.72
				c-0.69-0.04-1.38-0.09-2.07-0.14c-7.37-0.14-13.24,0.27-18.45,1.3c-0.03,0.01-0.07,0.01-0.1,0.02c-2.46,0.35-4.94,1.02-7.35,1.67
				l-2.58,0.69c-0.02,0-0.03,0.01-0.05,0.01l-0.56,0.17l-2.73,1.01c-0.75,0.31-1.72,0.74-2.6,1.14l-0.19,0.09
				c-0.8,0.37-1.64,0.75-2.17,1.08c-5.6,3.06-10.47,6.9-14.98,11.79c-4.14,4.51-7.52,9.58-10.02,15.06
				c-2.66,5.85-4.11,11.78-4.29,17.63l0.14,1.64c0,0.09,0.2,0.3,0.2,0.45c0,0,0,0.01,0,0.01l-0.07,2.15
				c0.01,0.74,0.1,2.41,0.38,4.33l0.14,1.24c0.04,0.18,0.07,0.42,0.13,0.67l0.61,2.57c0.1,0.46,0.26,0.94,0.44,1.43
				c0.08,0.22,0.15,0.44,0.23,0.66l0.16,0.45c0.2,0.56,0.39,1.11,0.62,1.66c2.44,5.76,6.57,10.78,11.32,13.74
				c2.13,1.44,4.56,2.57,7.69,3.6l0.22,0.06c1.24,0.34,2.42,0.67,3.56,0.83c0.03,0,0.06,0.01,0.1,0.02c1.24,0.24,2.5,0.34,3.79,0.43
				c0.45,0.04,0.88,0.04,1.32,0.04l2.46-0.04c0.03,0,0.07-0.01,0.1-0.01l0.47-0.05c0.28-0.03,0.59-0.06,1.37-0.18
				c0.44-0.07,0.89-0.15,1.33-0.23c0.24-0.05,0.49-0.12,0.74-0.19l0.25-0.07c2.46-0.66,4.75-1.67,6.99-3.08
				c4.09-2.6,7.34-6.29,9.15-10.39c0.47-0.98,0.8-2.02,1.11-3.02l0.04-0.12c0.13-0.53,0.25-1.06,0.36-1.59l0.33-2.34l0.08-1.41
				c0.01-0.24,0.02-0.51,0.01-0.7l-0.07-1.58c-0.03-0.37-0.09-0.82-0.15-1.26c-0.45-3.17-1.52-6.14-3.16-8.88
				c-1.17-1.93-2.54-3.64-4.18-5.23c-1.05-0.98-2.12-1.85-3.15-2.56l-1.21-0.8c-3.21-2.11-7.6-1.42-9.98,1.59
				c-1.24,1.56-1.79,3.52-1.56,5.5c0.23,1.98,1.22,3.75,2.78,4.99l1.2,0.95c0.34,0.26,0.75,0.65,1.22,1.15
				c0.63,0.71,1.12,1.44,1.51,2.21c0.49,0.98,0.78,2.08,0.83,3.1c0,0.05,0,0.1,0,0.15l0.01,0.19c0,0.1,0,0.2-0.02,0.3
				c0,0.14-0.02,0.28-0.05,0.42l-0.16,0.97c-0.06,0.35-0.21,0.66-0.42,0.91c-0.05,0.1-0.12,0.22-0.2,0.34
				c-0.62,1.08-1.76,2.1-3.14,2.84c-0.78,0.41-1.67,0.72-2.43,0.83l-0.13,0.02c-0.18,0.03-0.36,0.04-0.53,0.02
				c-0.16,0.01-0.31,0.38-0.44,0.38l-0.16,0.37c-0.01,0-0.01,0-0.02,0l-0.8-0.72v0c0,0,0.35,0.72,0.17,0.72h-0.01
				c-0.21,0-0.48-0.42-0.8-0.48l-0.28-0.24c-0.41-0.06-0.87-0.23-1.35-0.37c-0.45-0.09-0.84-0.27-1.16-0.39
				c-0.14-0.05-0.28-0.12-0.42-0.17c-0.08-0.02-0.16-0.07-0.24-0.1l-0.11-0.06c-0.91-0.41-1.94-0.87-2.81-1.61l-0.21-0.15
				c-0.09-0.06-0.18-0.14-0.26-0.22l-0.25-0.25c-0.11-0.11-0.23-0.21-0.34-0.31l-0.1-0.08c-0.1-0.09-0.19-0.18-0.27-0.29
				c-0.11-0.15-0.22-0.29-0.34-0.42c-0.17-0.18-0.29-0.31-0.39-0.46l-0.62-0.92c-0.06-0.09-0.12-0.19-0.16-0.29
				c-0.09-0.2-0.19-0.39-0.29-0.57l-0.06-0.11c-0.06-0.11-0.12-0.21-0.18-0.33c-0.03-0.06-0.06-0.13-0.08-0.19l-0.14-0.4
				c-0.08-0.2-0.17-0.43-0.27-0.65c-0.04-0.09-0.07-0.18-0.1-0.28l-0.24-0.9c-0.03-0.12-0.05-0.17-0.07-0.23
				c-0.07-0.22-0.17-0.54-0.22-0.94l-0.19-1.1c-0.03-0.14-0.06-0.29-0.07-0.42c-0.01-0.06-0.01-0.11-0.01-0.17l-0.02-0.43
				c-0.01-0.17-0.02-0.29-0.04-0.43c-0.05-0.39-0.11-0.93-0.09-1.98l-0.01-2.09c0-0.05,0-0.11,0-0.17c0-0.26,0.05-0.5,0.15-0.73
				c0.65-6.18,4.51-13.35,10.12-18.72c2.92-2.82,6.23-5.15,9.58-6.73c0.42-0.23,0.74-0.34,0.96-0.41c0.05-0.02,0.1-0.03,0.16-0.06
				c0.19-0.07,0.28-0.11,0.39-0.16c0.14-0.06,0.29-0.13,0.49-0.21c0.05-0.02,0.1-0.04,0.15-0.05l2.83-0.87
				c0.23-0.07,0.46-0.09,0.69-0.08c0.49-0.09,0.96-0.19,1.44-0.29c1.54-0.32,3.14-0.65,4.82-0.78c4.59-0.67,9.19-0.48,13.47-0.18
				c0.05,0,0.09,0.01,0.14,0.02c0.66,0.1,1.33,0.18,1.99,0.26c1.56,0.19,3.17,0.39,4.8,0.79c0.35,0.08,0.75,0.15,1.14,0.23
				c0.71,0.14,1.45,0.28,2.2,0.49l3.25,0.92c0.83,0.19,1.67,0.5,2.48,0.8c0.28,0.1,0.56,0.21,0.84,0.3
				c0.43,0.16,0.81,0.29,1.18,0.42c0.7,0.24,1.41,0.49,2.14,0.82c0.56,0.25,1.12,0.5,1.68,0.74c1.5,0.66,3.06,1.33,4.56,2.18
				c4.49,2.24,8.52,5.1,11.54,7.35c0.03,0.02,0.05,0.04,0.08,0.06c0.45,0.38,0.91,0.75,1.37,1.12c1.26,1.02,2.57,2.08,3.76,3.28
				l1.34,1.24c0.37,0.34,0.76,0.69,1.08,1.08c0.56,0.61,1.18,1.28,1.81,1.94c0.52,0.49,1.15,1.27,1.82,2.09
				c0.2,0.25,0.41,0.51,0.61,0.74l2,2.45c0.01,0.01,0.02,0.03,0.03,0.04l0.02,0.03l0,0c0.01,0.01,0.02,0.03,0.03,0.04
				c0.11,0.16,0.2,0.32,0.26,0.48l1.46,2.16c0.13,0.2,0.27,0.39,0.41,0.59c0.46,0.66,0.93,1.34,1.33,2.14
				c4.03,6.81,6.89,14.39,8.49,22.53c1.38,6.96,1.83,14.37,1.35,22.01c-0.45,5.89-1.51,11.97-3.23,18.64
				c-0.25,0.87-0.51,1.66-0.75,2.43c-0.16,0.51-0.32,1.01-0.48,1.51c-0.15,0.44-0.26,0.83-0.38,1.23c-0.25,0.83-0.51,1.7-0.88,2.54
				l-1.23,3.17c-0.11,0.27-0.2,0.53-0.3,0.79c-0.31,0.81-0.6,1.58-0.96,2.26c-0.74,1.57-1.42,3.04-1.99,4.32
				c-0.09,0.24-0.28,0.59-0.47,0.93L926.18,461.34z M843.83,384.2l0,0.02c0.23-0.01,0.44-0.07,0.64-0.17
				C844.27,384.12,844.05,384.17,843.83,384.2z"/>
		</g>
		<g id="face">
			<g id="XMLID_28_">
				<g id="XMLID_27_">
					<g id="XMLID_19_">
						<circle id="XMLID_21_" class="st0" cx="751.4" cy="464.98" r="23.3"/>
						<path id="XMLID_39_" d="M751.4,496.71c-17.5,0-31.73-14.23-31.73-31.73c0-17.5,14.23-31.73,31.73-31.73
							s31.73,14.23,31.73,31.73C783.13,482.48,768.9,496.71,751.4,496.71z M751.4,450.12c-8.2,0-14.86,6.67-14.86,14.86
							c0,8.2,6.67,14.86,14.86,14.86s14.86-6.67,14.86-14.86C766.26,456.79,759.6,450.12,751.4,450.12z"/>
					</g>
					<g id="XMLID_22_">
						<circle id="XMLID_43_" class="st0" cx="945.35" cy="464.98" r="23.3"/>
						<path id="XMLID_45_" d="M945.35,496.71c-17.5,0-31.73-14.23-31.73-31.73c0-17.5,14.23-31.73,31.73-31.73
							c17.5,0,31.73,14.23,31.73,31.73C977.08,482.48,962.85,496.71,945.35,496.71z M945.35,450.12c-8.2,0-14.86,6.67-14.86,14.86
							c0,8.2,6.67,14.86,14.86,14.86c8.2,0,14.86-6.67,14.86-14.86C960.22,456.79,953.55,450.12,945.35,450.12z"/>
					</g>
				</g>
				<g id="XMLID_26_">
					<path id="beEye_1_" class="st0" d="M880.77,576.34c5.95,21.81-9.42,42-32.02,42s-35.76-22.29-31.61-37.51
						c5.5-20.17,8.86-30.43,31.47-30.43S874.54,553.51,880.77,576.34z"/>
					<path id="XMLID_31_" d="M848.76,414.33c-63.82,0-115.56,51.74-115.56,115.56c0,48.55,29.96,72.74,72.39,81.54
						c10.08,12.76,25.67,20.97,43.16,20.97c17.48,0,33.07-8.21,43.15-20.96c42.46-8.78,72.42-32.97,72.42-81.55
						C964.31,466.07,912.58,414.33,848.76,414.33z M885.31,595.8c-6.74,13.37-20.58,22.54-36.57,22.54
						c-15.99,0-29.83-9.17-36.57-22.54c-28.47-0.16-51.49-23.27-51.49-51.78c0-28.6,23.18-51.79,51.79-51.79
						c14.13,0,26.93,5.67,36.28,14.84c9.34-9.18,22.15-14.84,36.28-14.84c28.6,0,51.78,23.18,51.78,51.79
						C936.81,572.53,913.78,595.64,885.31,595.8z"/>
				</g>
			</g>
			<circle id="mouth" cx="848.97" cy="590.69" r="7.48"/>
		</g>
		<path id="XMLID_67_" d="M861.98,218.28c0.47,6.46,0.39,12.38,0.07,17.63c-0.34,5.26-0.82,9.9-1.41,13.88
			c-0.56,3.99-1.13,7.32-1.66,10.1c-0.51,2.83-0.93,4.68-1.2,6.03c-0.28,1.33-0.42,2.01-0.42,2.01c-1.11,5.31-5.79,8.97-11.01,8.97
			c-0.76,0-1.53-0.07-2.3-0.23c-6.08-1.26-9.99-7.22-8.72-13.31c0-0.02,0.02-0.1,0.03-0.12c0,0,0.15-0.68,0.44-2.01
			c0.27-1.3,0.76-3.36,1.19-5.7c0.49-2.36,1.04-5.41,1.57-8.94c0.56-3.54,1.02-7.59,1.37-12.1c0.32-4.51,0.43-9.44,0.11-14.76
			c-0.14-2.66-0.44-5.42-0.83-8.27c-0.11-0.71-0.22-1.43-0.33-2.16c-0.12-0.73-0.25-1.47-0.38-2.21c-0.12-0.74-0.29-1.5-0.44-2.26
			l-0.11-0.57l-0.06-0.28l-0.03-0.14l0.05,0.17c-0.02-0.07-0.03-0.12-0.05-0.19c-0.08-0.35-0.18-0.7-0.25-1.05
			c-0.4-1.66-0.82-3.34-1.23-5.05c-0.2-0.92-0.44-1.52-0.67-2.28c-0.22-0.72-0.45-1.45-0.68-2.19c-0.24-0.74-0.42-1.47-0.71-2.23
			c-0.29-0.77-0.59-1.54-0.89-2.31c-0.3-0.78-0.6-1.56-0.9-2.34c-0.28-0.8-0.69-1.55-1.03-2.32c-2.77-6.23-6.47-12.43-11.1-18.75
			c-4.62-6.32-10.14-12.81-16-19.72c-5.87-6.91-12.03-14.29-18.01-22.22c-0.74-1-1.48-2-2.23-3.01l-1.12-1.51l-0.56-0.75l-0.14-0.2
			l-0.28-0.41l-0.26-0.37l-1.03-1.52c-0.35-0.52-0.67-0.95-1.08-1.63c-0.76-1.25-1.58-2.54-2.28-3.78c-2.77-4.83-5.06-9.88-7-15.1
			c-1.93-5.22-3.49-10.62-4.68-16.15c-1.17-5.55-1.9-11.24-2.21-17.04c-0.32-5.8-0.17-11.7,0.61-17.62l0.13-1.11l0.07-0.63l0.07-0.5
			l0.31-2.01c0.24-1.49,0.51-2.97,0.81-4.41c0.26-1.45,0.65-2.91,0.97-4.38c0.39-1.46,0.77-2.92,1.22-4.38
			c1.77-5.83,4.19-11.86,7.42-17.35c1.89-3.21,4.06-6.49,6.49-9.49h32.67l-0.43,0.44L812,1.47l-0.47,0.28l-0.11,0.09l-0.01,0.02
			c-0.01,0-0.03,0.02-0.06,0.04c-0.04,0.02-0.07,0.04-0.07,0.04l-0.75,0.44l-1.48,0.86l-1.5,0.85l-1.38,0.98l-1.4,0.98l-0.69,0.49
			l-0.64,0.55c-0.84,0.74-1.72,1.44-2.56,2.2c-6.52,6.17-11.04,14.35-13.7,23.36c-0.34,1.12-0.62,2.27-0.92,3.41
			c-0.24,1.16-0.54,2.3-0.75,3.49c-0.23,1.18-0.43,2.34-0.61,3.49L784.63,45l-0.07,0.5l-0.04,0.37l-0.09,0.88
			c-0.58,4.64-0.67,9.35-0.38,14.02c0.29,4.67,0.91,9.31,1.9,13.84c1,4.53,2.32,8.94,3.93,13.17c1.6,4.23,3.48,8.29,5.65,12
			c0.52,0.91,1.03,1.69,1.54,2.53c0.21,0.38,0.62,0.94,0.95,1.42l1.04,1.51l0.23,0.33l0.06,0.08l0.07,0.09l0.53,0.7l1.05,1.41
			c0.71,0.93,1.41,1.86,2.11,2.79c5.65,7.38,11.53,14.33,17.42,21.16c5.87,6.84,11.77,13.62,17.1,20.81
			c5.34,7.17,10.02,14.8,13.51,22.52c0.44,0.97,0.93,1.89,1.3,2.88c0.38,0.97,0.76,1.93,1.14,2.9c0.37,0.96,0.74,1.91,1.11,2.86
			c0.36,0.96,0.66,1.99,0.98,2.96c0.32,0.99,0.63,1.98,0.94,2.95c0.29,0.96,0.67,2.01,0.84,2.81c0.43,1.71,0.85,3.38,1.27,5.04
			c0.1,0.41,0.21,0.82,0.32,1.23l0.14,0.66l0.08,0.33l0.14,0.67c0.18,0.89,0.38,1.75,0.53,2.63c0.17,0.88,0.33,1.75,0.49,2.62
			c0.14,0.87,0.28,1.73,0.42,2.6C861.38,211.7,861.77,215.05,861.98,218.28z"/>
		<path id="XMLID_68_" d="M921.58,86.38c-2.43,5.64-5.69,10.96-9.66,15.68c-3.97,4.73-8.73,8.76-13.87,11.99l-1.89,1.11l-0.82,0.47
			c-0.27,0.16-0.68,0.37-1.01,0.54l-2.13,1.08c-0.72,0.37-1.35,0.62-2.02,0.93l-2,0.87l-2.01,0.77c-1.34,0.53-2.71,0.95-4.08,1.39
			c-5.46,1.67-11.1,2.71-16.87,2.93c-5.76,0.22-11.68-0.42-17.38-2.23c-1.42-0.42-2.8-1.04-4.19-1.57c-0.7-0.25-1.37-0.61-2.03-0.96
			l-1.98-1.04l-0.98-0.53l-0.94-0.62l-1.85-1.25l-0.91-0.64l-0.22-0.15c-0.02,0-0.45-0.35-0.55-0.44l-0.02-0.02l-0.28-0.23l-1.3-1.1
			l-1.29-1.1c-0.44-0.38-0.81-0.65-1.36-1.21c-1.02-0.99-2.03-2-3.02-3.01c-1.06-1-1.81-2.04-2.67-3.06
			c-0.82-1.05-1.71-2.01-2.42-3.17c-0.73-1.11-1.46-2.23-2.18-3.34c-0.66-1.17-1.26-2.37-1.86-3.55c-0.65-1.15-1.1-2.44-1.58-3.67
			c-0.24-0.63-0.48-1.25-0.72-1.86c-0.24-0.62-0.37-1.29-0.55-1.93c-0.32-1.3-0.72-2.57-0.94-3.89c-0.2-1.33-0.37-2.65-0.54-3.96
			c-0.14-2.66-0.23-5.3,0.12-7.92c0.08-0.65,0.14-1.3,0.22-1.95c0.13-0.64,0.27-1.27,0.41-1.91c0.14-0.63,0.28-1.26,0.43-1.89
			c0.08-0.31,0.13-0.63,0.22-0.94l0.32-0.91c0.42-1.21,0.84-2.42,1.3-3.59c0.55-1.13,1.11-2.26,1.68-3.36
			c0.14-0.28,0.27-0.56,0.43-0.82l0.51-0.78c0.34-0.52,0.67-1.02,1-1.54c0.34-0.51,0.68-1.01,1.02-1.51
			c0.37-0.48,0.76-0.93,1.13-1.39c0.78-0.9,1.51-1.85,2.33-2.66c0.84-0.8,1.69-1.59,2.52-2.37l0.63-0.58l0.45-0.37l0.13-0.1
			l0.27-0.2l1.07-0.82l0.28-0.21l0.41-0.28l0.83-0.55c0.54-0.36,1.12-0.74,1.66-1.05c2.02-1.12,4.08-2.1,6.17-2.82
			c8.34-2.98,17.1-2.86,24.57-0.17c0.95,0.29,1.84,0.72,2.73,1.11c0.44,0.21,0.88,0.39,1.31,0.63c0.42,0.23,0.83,0.47,1.26,0.7
			c0.41,0.24,0.82,0.49,1.23,0.72c0.4,0.24,0.78,0.53,1.16,0.8c0.37,0.27,0.75,0.54,1.12,0.82l0.28,0.21l0.14,0.09
			c0.14,0.11-0.11-0.09,0.34,0.27l0.39,0.33l0.2,0.17l0.27,0.24l0.67,0.62c0.48,0.45,0.74,0.75,1.09,1.11
			c0.65,0.71,1.24,1.42,1.77,2.13c1.07,1.42,1.96,2.85,2.74,4.27c3.06,5.67,4.36,11.53,4.14,17.08c-0.12,2.75-0.67,5.4-1.51,7.73
			c-0.82,2.33-1.95,4.36-3.1,6c-2.31,3.33-4.67,5.2-6.18,6.35c-0.76,0.61-1.36,0.97-1.76,1.26c-0.4,0.26-0.6,0.4-0.6,0.4
			c-4.25,2.85-10.02,1.71-12.87-2.54c-2.85-4.25-1.71-10.02,2.54-12.86c0.27-0.19,0.54-0.35,0.82-0.5l0.23-0.12
			c0,0,0.09-0.05,0.27-0.15c0.17-0.1,0.5-0.22,0.81-0.42c0.69-0.39,1.58-1.03,2.37-1.94c0.42-0.46,0.79-0.99,1.09-1.68
			c0.3-0.68,0.56-1.51,0.65-2.55c0.08-1.03,0.06-2.28-0.24-3.66c-0.3-1.38-0.82-2.9-1.58-4.37c-0.39-0.72-0.84-1.43-1.32-2.07
			c-0.24-0.32-0.49-0.62-0.73-0.88c-0.11-0.11-0.28-0.31-0.3-0.31c-0.02-0.02-0.04-0.05-0.06-0.07l-0.02-0.02l-0.08-0.07l-0.19-0.16
			l-0.23-0.2l-0.02-0.01l-0.01-0.01l-0.07-0.04l-0.13-0.09l-0.55-0.37c-0.19-0.13-0.37-0.27-0.56-0.39l-0.6-0.32l-0.6-0.35
			c-0.21-0.11-0.43-0.18-0.65-0.28c-0.43-0.18-0.85-0.4-1.33-0.52c-3.63-1.29-8.38-1.28-12.85,0.45c-1.12,0.42-2.17,1-3.2,1.6
			c-0.22,0.15-0.37,0.27-0.56,0.39l-0.28,0.18l-0.14,0.09l-0.25,0.2l-1.04,0.85l-0.26,0.21l-0.05,0.05c0.04-0.03,0.07-0.06,0.1-0.07
			l-0.34,0.36c-0.47,0.48-0.94,0.96-1.42,1.42c-0.46,0.49-0.82,1.05-1.25,1.56c-0.21,0.26-0.43,0.52-0.63,0.79l-0.51,0.86
			l-0.53,0.85l-0.26,0.43c-0.08,0.14-0.14,0.3-0.21,0.46c-0.27,0.61-0.54,1.22-0.84,1.83c-0.2,0.64-0.4,1.28-0.6,1.93l-0.17,0.49
			c-0.04,0.16-0.06,0.34-0.08,0.5l-0.18,1.01l-0.21,1.01l-0.05,1.04c-0.17,1.38-0.01,2.81,0.08,4.24c0.15,0.72,0.28,1.44,0.39,2.16
			c0.13,0.73,0.43,1.44,0.62,2.17c0.12,0.36,0.17,0.73,0.35,1.09l0.46,1.08c0.31,0.72,0.54,1.46,0.99,2.16
			c0.39,0.71,0.79,1.42,1.18,2.15c0.48,0.68,0.97,1.38,1.45,2.07c0.43,0.71,1.07,1.35,1.61,2.02c0.57,0.65,1.11,1.41,1.71,1.92
			c0.58,0.56,1.15,1.13,1.72,1.71c0.21,0.27,0.76,0.67,1.16,1.02l1.31,1.07l1.31,1.3l0.14,0.35h0.01l0.01-0.22l0.11-0.05l0.5,0.27
			l0.99,0.64l0.5,0.33l0.54,0.26l1.08,0.55c0.36,0.2,0.7,0.4,1.11,0.52c0.79,0.26,1.52,0.64,2.34,0.86
			c3.21,1.01,6.86,1.43,10.69,1.26c3.84-0.16,7.86-0.9,11.82-2.14c0.98-0.33,1.99-0.62,2.94-1.02l1.46-0.56l1.43-0.64
			c0.45-0.22,1-0.42,1.38-0.64l1.23-0.62c0.22-0.12,0.38-0.18,0.66-0.34l0.82-0.48l1.37-0.81c6.79-4.29,12.32-10.78,15.75-18.78
			c3.5-7.96,4.9-17.27,4.35-26.65c-0.29-4.7-1.08-9.42-2.3-14.05c-0.65-2.3-1.35-4.61-2.23-6.86l-0.66-1.69l-1.07-2.5l-0.37-0.77
			l-0.72-1.53c-0.1-0.22-0.28-0.56-0.44-0.86l-0.49-0.91l-0.48-0.92l-0.22-0.4c0,0-0.01-0.01-0.03-0.05
			c-0.01-0.02-0.02-0.03-0.02-0.03l-0.11-0.19c-0.62-0.99-1.17-2.03-1.83-3c-1.29-1.94-2.65-3.83-4.19-5.58
			c-3.03-3.51-6.51-6.88-10.4-9.49c-1.48-0.98-3.02-1.96-4.6-2.96h30.99c1.78,3,3.39,4.63,4.91,6.93c0.89,1.33,1.66,2.85,2.48,4.2
			l0.15,0.3c0,0,0.22,0.43,0.23,0.46l0.24,0.47l0.48,0.92l0.49,0.92c0.16,0.31,0.31,0.58,0.5,0.98l1.06,2.2l0.52,1.1l0.46,1.06
			l0.9,2.12l0.83,2.15c1.11,2.87,2.01,5.8,2.84,8.74c1.56,5.91,2.58,11.96,2.96,18.03C928.23,62.71,926.49,75.09,921.58,86.38z"/>
		<g id="group">
			<g id="leftEyeA" class="st10">
				<circle id="leftpath" class="st11" cx="815.71" cy="551.43" r="21.75"/>
				<circle id="leftpupil" cx="815.92" cy="565.48" r="7.48"/>
			</g>
			<g id="rightEyeA" class="st10">
				<circle id="rightpath" class="st11" cx="882.23" cy="551.43" r="21.75"/>
				<circle id="rightpupil" cx="882.45" cy="565.48" r="7.48"/>
			</g>
		</g>
	</g>
	<path id="leftEye_1_" class="st10" d="M815.71,529.21c-12.25,0-22.22,9.97-22.22,22.22c0,12.25,9.97,22.22,22.22,22.22
		c12.25,0,22.22-9.97,22.22-22.22C837.93,539.18,827.96,529.21,815.71,529.21z M818.39,572.54c2.92-1.02,5.01-3.79,5.01-7.05
		c0-4.13-3.35-7.48-7.48-7.48c-4.13,0-7.48,3.35-7.48,7.48c0,3.34,2.19,6.16,5.21,7.12c-10.77-1.04-19.23-10.14-19.23-21.18
		c0-11.73,9.55-21.28,21.28-21.28c11.73,0,21.28,9.55,21.28,21.28C836.99,562.26,828.86,571.21,818.39,572.54z"/>
	<path id="rightEye_1_" class="st10" d="M882.23,529.21c-12.25,0-22.22,9.97-22.22,22.22c0,12.25,9.97,22.22,22.22,22.22
		c12.25,0,22.22-9.97,22.22-22.22C904.45,539.18,894.48,529.21,882.23,529.21z M884.91,572.54c2.92-1.02,5.01-3.79,5.01-7.05
		c0-4.13-3.35-7.48-7.48-7.48s-7.48,3.35-7.48,7.48c0,3.34,2.19,6.16,5.21,7.12c-10.77-1.04-19.23-10.14-19.23-21.18
		c0-11.73,9.55-21.28,21.28-21.28c11.73,0,21.28,9.55,21.28,21.28C903.51,562.26,895.39,571.21,884.91,572.54z"/>
</g>
</svg>
