<?xml version="1.0" encoding="utf-8"?>
<!-- Generator: Adobe Illustrator 19.0.0, SVG Export Plug-In . SVG Version: 6.00 Build 0)  -->
<svg version="1.1" id="Layer_1" xmlns="http://www.w3.org/2000/svg" xmlns:xlink="http://www.w3.org/1999/xlink" x="0px" y="0px"
	 viewBox="0 0 1280 800" style="enable-background:new 0 0 1280 800;" xml:space="preserve">
<style type="text/css">
	.st0{fill:#FFEA00;}
	.st1{font-family:'ProximaNovaA-Extrabld';}
	.st2{font-size:160px;}
	.st3{letter-spacing:3;}
	.st4{fill:none;}
	.st5{font-family:'ProximaNovaA-Bold';}
	.st6{font-size:20px;}
	.st7{letter-spacing:5;}
	.st8{letter-spacing:4;}
	.st9{letter-spacing:1;}
	.st10{fill:#FFEA00;stroke:#000000;stroke-width:3;stroke-miterlimit:10;}
	.st11{opacity:0.09;}
	.st12{display:none;}
	.st13{display:inline;}
	.st14{display:none;fill:#FFEA00;}
	.st15{display:inline;opacity:0.09;}
	.st16{fill:none;stroke:#000000;stroke-miterlimit:10;}
</style>
<rect id="bgYellow" y="0" class="st0" width="1280" height="800"/>
<text id="XMLID_2_" transform="matrix(1 0 0 1 0.9999 441.4106)"><tspan x="0" y="0" class="st1 st2 st3">atul</tspan><tspan x="0" y="120" class="st1 st2 st3">kumar</tspan></text>
<rect id="XMLID_4_" x="43.76" y="45.73" class="st4" width="633.07" height="269.05"/>
<text id="XMLID_5_" transform="matrix(1 0 0 1 43.7583 59.0712)"><tspan x="0" y="0" class="st5 st6">Hi,</tspan><tspan x="25.98" y="0" class="st5 st6 st7"> </tspan><tspan x="36.65" y="0" class="st5 st6">I</tspan><tspan x="42.53" y="0" class="st5 st6 st7"> </tspan><tspan x="53.2" y="0" class="st5 st6">am</tspan><tspan x="82.78" y="0" class="st5 st6 st7"> </tspan><tspan x="93.46" y="0" class="st5 st6">pursuing</tspan><tspan x="176.55" y="0" class="st5 st6 st7"> </tspan><tspan x="187.23" y="0" class="st5 st6">masters</tspan><tspan x="262.91" y="0" class="st5 st6 st7"> </tspan><tspan x="273.58" y="0" class="st5 st6">in</tspan><tspan x="291.02" y="0" class="st5 st6 st7"> </tspan><tspan x="301.69" y="0" class="st5 st6">Information</tspan><tspan x="412.07" y="0" class="st5 st6 st7"> </tspan><tspan x="422.74" y="0" class="st5 st6">Experience</tspan><tspan x="527.14" y="0" class="st5 st6 st7"> </tspan><tspan x="537.81" y="0" class="st5 st6">Design</tspan><tspan x="603.51" y="0" class="st5 st6 st7"> </tspan><tspan x="614.18" y="0" class="st5 st6">at </tspan><tspan x="0" y="24" class="st5 st6">National</tspan><tspan x="82.08" y="24" class="st5 st6 st3"> </tspan><tspan x="90.49" y="24" class="st5 st6">Institute</tspan><tspan x="168.67" y="24" class="st5 st6 st3"> </tspan><tspan x="177.07" y="24" class="st5 st6">of</tspan><tspan x="195.91" y="24" class="st5 st6 st3"> </tspan><tspan x="204.32" y="24" class="st5 st6">Design,</tspan><tspan x="275.52" y="24" class="st5 st6 st3"> </tspan><tspan x="283.93" y="24" class="st5 st6">Bangalore,</tspan><tspan x="388.73" y="24" class="st5 st6 st3"> </tspan><tspan x="397.13" y="24" class="st5 st6">India.</tspan><tspan x="450.23" y="24" class="st5 st6 st3"> </tspan><tspan x="458.64" y="24" class="st5 st6">Currently</tspan><tspan x="548.9" y="24" class="st5 st6 st3"> </tspan><tspan x="557.31" y="24" class="st5 st6">I</tspan><tspan x="563.19" y="24" class="st5 st6 st3"> </tspan><tspan x="571.6" y="24" class="st5 st6">am</tspan><tspan x="601.18" y="24" class="st5 st6 st3"> </tspan><tspan x="609.58" y="24" class="st5 st6">on </tspan><tspan x="0" y="48" class="st5 st6">exchange</tspan><tspan x="91.98" y="48" class="st5 st6"> </tspan><tspan x="97.67" y="48" class="st5 st6">for</tspan><tspan x="124.11" y="48" class="st5 st6"> </tspan><tspan x="129.8" y="48" class="st5 st6">a</tspan><tspan x="141.92" y="48" class="st5 st6"> </tspan><tspan x="147.6" y="48" class="st5 st6">semester</tspan><tspan x="234.08" y="48" class="st5 st6"> </tspan><tspan x="239.77" y="48" class="st5 st6">at</tspan><tspan x="259.05" y="48" class="st5 st6"> </tspan><tspan x="264.74" y="48" class="st5 st6">Hochschule</tspan><tspan x="376.16" y="48" class="st5 st6"> </tspan><tspan x="381.85" y="48" class="st5 st6">für</tspan><tspan x="408.37" y="48" class="st5 st6"> </tspan><tspan x="414.05" y="48" class="st5 st6">Technik</tspan><tspan x="488.49" y="48" class="st5 st6"> </tspan><tspan x="494.18" y="48" class="st5 st6">und</tspan><tspan x="530.26" y="48" class="st5 st6"> </tspan><tspan x="535.95" y="48" class="st5 st6">Wirtschaft </tspan><tspan x="0" y="72" class="st5 st6">(HTW), Berlin, Germany.</tspan><tspan x="0" y="120" class="st5 st6">I</tspan><tspan x="5.88" y="120" class="st5 st6 st7"> </tspan><tspan x="16.29" y="120" class="st5 st6">have</tspan><tspan x="62.53" y="120" class="st5 st6 st7"> </tspan><tspan x="72.94" y="120" class="st5 st6">done</tspan><tspan x="120.4" y="120" class="st5 st6 st7"> </tspan><tspan x="130.81" y="120" class="st5 st6">my</tspan><tspan x="160.25" y="120" class="st5 st6 st7"> </tspan><tspan x="170.66" y="120" class="st5 st6">graduation</tspan><tspan x="275.2" y="120" class="st5 st6 st7"> </tspan><tspan x="285.61" y="120" class="st5 st6">in</tspan><tspan x="303.05" y="120" class="st5 st6 st7"> </tspan><tspan x="313.46" y="120" class="st5 st6">Computer</tspan><tspan x="407.22" y="120" class="st5 st6 st7"> </tspan><tspan x="417.63" y="120" class="st5 st6">Science</tspan><tspan x="491.15" y="120" class="st5 st6 st7"> </tspan><tspan x="501.56" y="120" class="st5 st6">from</tspan><tspan x="545.46" y="120" class="st5 st6 st7"> </tspan><tspan x="555.87" y="120" class="st5 st6">Manipal </tspan><tspan x="0" y="144" class="st5 st6">Institute</tspan><tspan x="78.18" y="144" class="st5 st6 st8"> </tspan><tspan x="87.61" y="144" class="st5 st6">of</tspan><tspan x="106.45" y="144" class="st5 st6 st8"> </tspan><tspan x="115.88" y="144" class="st5 st6">Technology,</tspan><tspan x="233.48" y="144" class="st5 st6 st8"> </tspan><tspan x="242.9" y="144" class="st5 st6">Manipal,</tspan><tspan x="326" y="144" class="st5 st6 st8"> </tspan><tspan x="335.43" y="144" class="st5 st6">India.</tspan><tspan x="388.53" y="144" class="st5 st6 st8"> </tspan><tspan x="397.96" y="144" class="st5 st6">My</tspan><tspan x="427.44" y="144" class="st5 st6 st8"> </tspan><tspan x="436.87" y="144" class="st5 st6">internship</tspan><tspan x="531.97" y="144" class="st5 st6 st8"> </tspan><tspan x="541.4" y="144" class="st5 st6">and</tspan><tspan x="577.62" y="144" class="st5 st6 st8"> </tspan><tspan x="587.05" y="144" class="st5 st6">work </tspan><tspan x="0" y="168" class="st5 st6">experience</tspan><tspan x="103.8" y="168" class="st5 st6"> </tspan><tspan x="109.76" y="168" class="st5 st6">include</tspan><tspan x="179.5" y="168" class="st5 st6"> </tspan><tspan x="185.46" y="168" class="st5 st6">software</tspan><tspan x="268.38" y="168" class="st5 st6"> </tspan><tspan x="274.34" y="168" class="st5 st6">engineering</tspan><tspan x="387.38" y="168" class="st5 st6"> </tspan><tspan x="393.35" y="168" class="st5 st6">and</tspan><tspan x="429.57" y="168" class="st5 st6"> </tspan><tspan x="435.53" y="168" class="st5 st6">consultancy</tspan><tspan x="551.69" y="168" class="st5 st6"> </tspan><tspan x="557.65" y="168" class="st5 st6">with</tspan><tspan x="598.07" y="168" class="st5 st6"> </tspan><tspan x="604.03" y="168" class="st5 st6">my </tspan><tspan x="0" y="192" class="st5 st6">stints</tspan><tspan x="51.64" y="192" class="st5 st6 st9"> </tspan><tspan x="58.36" y="192" class="st5 st6">at</tspan><tspan x="77.64" y="192" class="st5 st6 st9"> </tspan><tspan x="84.36" y="192" class="st5 st6">IBM,</tspan><tspan x="126.9" y="192" class="st5 st6 st9"> </tspan><tspan x="133.62" y="192" class="st5 st6">General</tspan><tspan x="209.4" y="192" class="st5 st6 st9"> </tspan><tspan x="216.12" y="192" class="st5 st6">Electric,</tspan><tspan x="292.48" y="192" class="st5 st6 st9"> </tspan><tspan x="299.2" y="192" class="st5 st6">and</tspan><tspan x="335.42" y="192" class="st5 st6 st9"> </tspan><tspan x="342.14" y="192" class="st5 st6">Deloitte.</tspan><tspan x="423.4" y="192" class="st5 st6 st9"> </tspan><tspan x="430.12" y="192" class="st5 st6">Recently</tspan><tspan x="514.16" y="192" class="st5 st6 st9"> </tspan><tspan x="520.89" y="192" class="st5 st6">I</tspan><tspan x="526.77" y="192" class="st5 st6 st9"> </tspan><tspan x="533.49" y="192" class="st5 st6">have</tspan><tspan x="579.73" y="192" class="st5 st6 st9"> </tspan><tspan x="586.45" y="192" class="st5 st6">been </tspan><tspan x="0" y="216" class="st5 st6">involved with design freelancing and research.</tspan></text>
<rect id="XMLID_10_" x="998.84" y="697.8" class="st4" width="234.22" height="20.65"/>
<text id="behance" transform="matrix(1 0 0 1 998.842 714.4683)" class="st5 st6">behance.net/atul_kumar</text>
<rect id="XMLID_6_" x="989.66" y="668.26" class="st4" width="243.4" height="20.65"/>
<text id="perEmail" transform="matrix(1 0 0 1 989.6623 684.9338)" class="st5 st6">myspace.atul@gmail.com</text>
<rect id="XMLID_8_" x="1073.94" y="638.73" class="st4" width="159.12" height="20.65"/>
<text id="nidEmail" transform="matrix(1 0 0 1 1073.9407 655.3994)" class="st5 st6">atul_ku@nid.edu</text>
<g id="reBtn">
	<path id="reRect" class="st10" d="M640.9,715.83H515.48c-18.56,0-33.61-15.05-33.61-33.61v0c0-18.56,15.05-33.61,33.61-33.61H640.9
		c18.56,0,33.61,15.05,33.61,33.61v0C674.51,700.78,659.47,715.83,640.9,715.83z"/>
	<text id="reText" transform="matrix(1 0 0 1 538.7137 688.568)" class="st1 st6">Résumé</text>
</g>
<g id="poBtn">
	<path id="prRect" class="st10" d="M421.77,715.83H296.34c-18.56,0-33.61-15.05-33.61-33.61v0c0-18.56,15.05-33.61,33.61-33.61
		h125.42c18.56,0,33.61,15.05,33.61,33.61v0C455.37,700.78,440.33,715.83,421.77,715.83z"/>
	<text id="prText" transform="matrix(1 0 0 1 315.2954 688.5687)" class="st1 st6">Portfolio</text>
</g>
<g id="latBtn">
	<path id="lpRect" class="st10" d="M202.63,715.83H77.2c-18.56,0-33.61-15.05-33.61-33.61v0c0-18.56,15.05-33.61,33.61-33.61h125.42
		c18.56,0,33.61,15.05,33.61,33.61v0C236.23,700.78,221.19,715.83,202.63,715.83z"/>
	<text id="lpText" transform="matrix(1 0 0 1 70.3972 688.5681)" class="st1 st6">Latest Project</text>
</g>
<text id="XMLID_1_" transform="matrix(1 0 0 1 971.6853 81.6513)"><tspan x="0" y="0" class="st1 st2 st3">was</tspan><tspan x="120.32" y="120" class="st1 st2 st3">ist</tspan><tspan x="-44.32" y="240" class="st1 st2 st3">das?</tspan></text>
<g id="monkey" class="st11">
	<path id="XMLID_11_" d="M753.65,617.03c-0.15,0.32-0.34,0.7-0.51,1.01c0,0-0.68,1.27-1.97,3.65c-0.32,0.6-0.68,1.26-1.07,1.99
		c-0.2,0.37-0.4,0.75-0.62,1.15c-0.21,0.39-0.47,0.85-0.59,1.16c-0.62,1.38-1.34,2.96-2.18,4.73c-0.44,0.83-0.82,1.95-1.25,3.04
		c-0.43,1.1-0.88,2.26-1.35,3.46c-0.52,1.19-0.83,2.49-1.27,3.81c-0.41,1.33-0.87,2.69-1.29,4.12c-1.48,5.74-2.83,12.3-3.39,19.52
		c-0.45,7.2-0.16,15.03,1.41,22.98c1.57,7.95,4.43,16.01,8.86,23.47c0.48,0.98,1.15,1.84,1.76,2.74c0.61,0.9,1.23,1.81,1.84,2.72
		l0.23,0.34l0.06,0.09c-0.74-0.89-0.16-0.19-0.3-0.36l0.16,0.2l0.65,0.8l1.31,1.6c0.85,1.03,1.84,2.31,2.46,2.88
		c0.7,0.73,1.38,1.46,2.07,2.22c0.31,0.37,0.76,0.77,1.18,1.16l1.27,1.18c1.64,1.65,3.52,3.06,5.34,4.57
		c3.78,2.82,7.75,5.54,12.06,7.68c2.1,1.2,4.34,2.07,6.54,3.07c1.1,0.5,2.26,0.83,3.38,1.26c1.14,0.4,2.26,0.87,3.42,1.14l3.47,0.98
		c1.16,0.33,2.34,0.49,3.51,0.75c2.34,0.58,4.7,0.74,7.06,1.08c4.7,0.33,9.44,0.48,14.03-0.19c2.33-0.16,4.56-0.75,6.82-1.17
		l0.42-0.08l0.21-0.04l0.11-0.02c-0.24,0.08,0.68-0.2-0.51,0.17l1.01-0.31l2.01-0.62c0.4-0.16,0.61-0.28,0.94-0.4
		c0.31-0.13,0.56-0.17,1.04-0.43c3.42-1.6,6.83-4.01,9.75-6.84c5.92-5.66,9.69-13.08,10.23-19.11l0.07-0.57l0.02-0.14l0.01-0.07
		c0-0.13,0.02,0.95,0.01,0.43l0-0.46c0-0.62-0.01-1.23-0.01-1.84c0.03-1.49-0.11-1.79-0.13-2.45l-0.02-0.46
		c-0.02-0.17-0.07-0.36-0.1-0.53L851.6,711c-0.03-0.38-0.17-0.66-0.25-0.99l-0.26-0.96c-0.12-0.28-0.24-0.56-0.35-0.84l-0.15-0.43
		c-0.06-0.13-0.14-0.24-0.21-0.37c-0.14-0.24-0.26-0.49-0.38-0.75l-0.45-0.65l-0.21-0.34c-0.07-0.11-0.17-0.19-0.25-0.29
		c-0.17-0.19-0.33-0.38-0.48-0.59c-0.19-0.17-0.38-0.33-0.56-0.5l-0.27-0.27l-0.31-0.22c-0.76-0.66-1.74-1.09-2.72-1.53
		c-0.52-0.16-1.02-0.39-1.57-0.48c-0.53-0.16-1.09-0.22-1.64-0.31c-0.27-0.07-0.56-0.05-0.83-0.07l-0.42-0.03l-0.21-0.02l-0.05,0
		c0.99-0.05,0.22-0.01,0.42-0.02l-0.18,0.01c-0.43,0.02-1.19,0.06-0.87,0.05c0.04,0,0.07-0.01,0.1-0.04l-0.19,0.04
		c-0.59,0.09-1.32,0.34-1.96,0.68c-1.31,0.69-2.2,1.6-2.6,2.34c-0.14,0.18-0.17,0.38-0.29,0.55c-0.02,0.1-0.05,0.19-0.09,0.28
		l-0.03,0.07l-0.02,0.03c0.03-0.19-0.08,0.44,0.06-0.41l-0.01,0.07l-0.09,0.52l-0.09,0.51l-0.02,0.11l0.01-0.01l0.01-0.02
		c0-0.01,0-0.02,0-0.03c-0.01-0.01-0.02-0.04-0.02,0.04c0,0.1-0.01,0.21-0.02,0.31c0,0.11,0.01,0.21,0.01,0.32
		c0.04,0.85,0.29,1.74,0.67,2.5c0.38,0.76,0.85,1.39,1.28,1.88c0.45,0.47,0.82,0.82,1.1,1.03c0.28,0.22,0.42,0.33,0.42,0.33
		l0.87,0.69c4.32,3.42,5.05,9.69,1.63,14.01c-3.23,4.08-9.05,4.94-13.32,2.13c0,0-0.45-0.3-1.32-0.88
		c-0.86-0.59-2.12-1.54-3.62-2.94c-1.48-1.43-3.2-3.36-4.79-5.99c-1.58-2.63-3.03-6.01-3.63-10.18c-0.07-0.52-0.13-1.05-0.18-1.59
		c-0.02-0.55-0.05-1.1-0.07-1.66c-0.01-0.25,0-0.62,0.01-0.96c0.02-0.35,0.04-0.7,0.05-1.05l0.04-0.53l0.04-0.41l0.06-0.52
		l0.06-0.52l0.01-0.07l0.09-0.54l0.05-0.22l0.09-0.45c0.13-0.6,0.26-1.21,0.42-1.82c0.38-1.2,0.76-2.44,1.32-3.61
		c2.13-4.81,5.84-8.99,10.52-11.97c2.36-1.49,4.99-2.72,8.02-3.54c0.39-0.1,0.74-0.2,1.17-0.29c0.5-0.1,1-0.19,1.5-0.26
		c1.25-0.19,1.44-0.18,1.97-0.24l0.18-0.02c0.26-0.01-0.45,0.02,0.6-0.03l0.13,0l0.52-0.01l1.04-0.01c0.7,0,1.4-0.03,2.1,0.04
		c1.41,0.1,2.85,0.21,4.29,0.49c1.45,0.21,2.9,0.62,4.37,1.03c2.91,0.95,5.89,2.17,8.65,4.04c5.65,3.53,10.22,9.36,12.88,15.62
		c0.31,0.78,0.58,1.57,0.87,2.37c0.26,0.79,0.59,1.61,0.76,2.4c0.2,0.8,0.39,1.6,0.59,2.41c0.09,0.41,0.19,0.8,0.28,1.22l0.2,1.33
		c0.25,1.73,0.51,3.83,0.53,4.79c0.04,0.61,0.07,1.22,0.11,1.84l0.03,0.46c0-0.44,0.01,0.72,0.01,0.66l0,0.16l-0.01,0.32l-0.05,1.28
		c-0.22,6.89-2,13.53-4.76,19.58c-2.77,6.06-6.48,11.63-11.05,16.6c-4.57,4.96-9.95,9.41-16.42,12.94
		c-0.73,0.44-1.77,0.91-2.74,1.36c-0.96,0.44-2.02,0.91-2.91,1.27l-1.97,0.73l-0.99,0.37c-1.28,0.4-0.44,0.13-0.76,0.23l-0.15,0.04
		l-0.3,0.08l-0.6,0.16c-3.22,0.85-6.45,1.81-9.78,2.29c-6.62,1.31-13.41,1.56-20.17,1.42c-3.36-0.25-6.77-0.36-10.09-0.94
		c-1.67-0.26-3.36-0.44-5-0.79l-4.94-1.09c-1.66-0.33-3.26-0.85-4.87-1.32c-1.6-0.5-3.25-0.91-4.82-1.5
		c-3.14-1.18-6.32-2.27-9.33-3.73c-6.15-2.66-11.91-6.07-17.43-9.76c-2.69-1.95-5.42-3.83-7.92-6.01l-1.9-1.59
		c-0.63-0.53-1.26-1.03-1.91-1.68c-1.29-1.24-2.57-2.48-3.85-3.72c-1.41-1.35-2.16-2.24-3.13-3.29l-1.4-1.53l-0.7-0.76l-0.17-0.19
		c-0.2-0.24,0.33,0.4-0.47-0.56l-0.1-0.12l-0.38-0.49c-1.01-1.3-2.01-2.6-3.01-3.9c-0.99-1.3-2.02-2.58-2.86-3.96
		c-7.28-10.77-12.17-22.45-15.09-33.8c-2.94-11.37-3.95-22.41-3.88-32.5c0.18-10.1,1.51-19.23,3.12-27.21
		c0.45-1.98,0.96-3.88,1.42-5.72c0.49-1.83,0.86-3.64,1.44-5.29c0.54-1.67,1.06-3.27,1.55-4.8c0.51-1.54,0.93-2.97,1.55-4.43
		c1.14-2.88,2.18-5.44,3.09-7.67c0.24-0.61,0.43-0.97,0.62-1.39c0.19-0.41,0.38-0.8,0.55-1.18c0.35-0.75,0.67-1.44,0.96-2.05
		c1.15-2.45,1.76-3.76,1.76-3.76L753.65,617.03z"/>
	<path id="XMLID_44_" class="st12" d="M911.47,465.24c-21.21-17.22-48.25-27.54-77.69-27.54c-31.2,0-59.7,11.58-81.42,30.69
		c0.91-3.14,21.22-73.78,25.09-97.68c3.72-22.95,5.6-91.82,5.6-91.82c2.19-13.52,12.06-24.52,25.26-28.16
		c14.94-4.11,34-4.09,48.92,0.05c13.21,3.67,23.06,14.73,25.19,28.27c0,0,2.92,68.4,6.52,91.2
		C892.33,391.72,907.66,450.71,911.47,465.24z"/>
	<path id="XMLID_20_" d="M911.47,465.24c-21.21-17.22-48.25-27.54-77.69-27.54c-31.2,0-59.7,11.58-81.42,30.69
		c0.91-3.14,17.52-73.53,20.09-97.68c2.47-23.17,10.6-71.82,10.6-71.82c2.19-13.52,12.06-24.52,25.26-28.16
		c14.94-4.11,34-4.09,48.92,0.05c13.21,3.67,23.06,14.73,25.19,28.27c0,0,9.13,48.24,11.52,71.2
		C896.32,393.07,907.66,450.71,911.47,465.24z"/>
	<g id="XMLID_35_">
		<path id="XMLID_33_" d="M914.66,490.93c0,0,0.68-1.27,1.97-3.65c0.32-0.6,0.68-1.26,1.07-1.99c0.2-0.37,0.4-0.75,0.62-1.15
			c0.21-0.39,0.47-0.85,0.59-1.16c0.62-1.38,1.34-2.96,2.18-4.73c0.44-0.83,0.82-1.95,1.25-3.04c0.43-1.1,0.88-2.26,1.35-3.46
			c0.52-1.19,0.83-2.49,1.27-3.81c0.41-1.33,0.87-2.69,1.29-4.12c1.48-5.74,2.83-12.3,3.39-19.52c0.45-7.2,0.16-15.03-1.41-22.98
			c-1.57-7.95-4.43-16.01-8.86-23.47c-0.48-0.98-1.15-1.84-1.76-2.74c-0.61-0.9-1.23-1.81-1.84-2.72l-0.23-0.34l-0.06-0.09
			c0.74,0.89,0.16,0.19,0.3,0.36l-0.16-0.2l-0.65-0.8l-1.31-1.6c-0.85-1.03-1.84-2.31-2.46-2.88c-0.7-0.73-1.38-1.46-2.07-2.22
			c-0.31-0.37-0.76-0.77-1.18-1.16l-1.27-1.18c-1.64-1.65-3.52-3.06-5.34-4.57c-3.78-2.82-7.75-5.54-12.06-7.68
			c-2.1-1.2-4.34-2.07-6.54-3.07c-1.1-0.5-2.26-0.83-3.38-1.26c-1.14-0.4-2.26-0.87-3.42-1.14l-3.47-0.98
			c-1.16-0.33-2.34-0.49-3.51-0.75c-2.34-0.58-4.7-0.74-7.06-1.08c-4.7-0.33-9.44-0.48-14.03,0.19c-2.33,0.16-4.56,0.75-6.82,1.17
			l-0.42,0.08l-0.21,0.04l-0.11,0.02c0.24-0.08-0.68,0.2,0.51-0.17l-1.01,0.31l-2.01,0.62c-0.4,0.16-0.61,0.28-0.94,0.4
			c-0.31,0.13-0.56,0.17-1.04,0.43c-3.42,1.6-6.83,4.01-9.75,6.84c-5.92,5.66-9.69,13.08-10.23,19.11l-0.07,0.57l-0.02,0.14
			l-0.01,0.07c0,0.13-0.02-0.95-0.01-0.43l0,0.46c0,0.62,0.01,1.23,0.01,1.84c-0.03,1.49,0.11,1.79,0.13,2.45l0.02,0.46
			c0.02,0.17,0.07,0.36,0.1,0.53l0.18,1.08c0.03,0.38,0.17,0.66,0.25,0.99l0.26,0.96c0.12,0.28,0.24,0.56,0.35,0.84l0.15,0.43
			c0.06,0.13,0.14,0.24,0.21,0.37c0.14,0.24,0.26,0.49,0.38,0.75l0.45,0.65l0.21,0.34c0.07,0.11,0.17,0.19,0.25,0.29
			c0.17,0.19,0.33,0.38,0.48,0.59c0.19,0.17,0.38,0.33,0.56,0.5l0.27,0.27l0.31,0.22c0.76,0.66,1.74,1.09,2.72,1.53
			c0.52,0.16,1.02,0.39,1.57,0.48c0.53,0.16,1.09,0.22,1.64,0.31c0.27,0.07,0.56,0.05,0.83,0.07l0.42,0.03l0.21,0.02l0.05,0
			c-0.99,0.05-0.22,0.01-0.42,0.02l0.18-0.01c0.43-0.02,1.19-0.06,0.87-0.05c-0.04,0-0.07,0.01-0.1,0.04l0.19-0.04
			c0.59-0.09,1.32-0.34,1.96-0.68c1.31-0.69,2.2-1.6,2.6-2.34c0.14-0.18,0.17-0.38,0.29-0.55c0.02-0.1,0.05-0.19,0.09-0.28
			l0.03-0.07l0.02-0.03c-0.03,0.19,0.08-0.44-0.06,0.41l0.01-0.07l0.09-0.52l0.09-0.51l0.02-0.11l-0.01,0.01l-0.01,0.02
			c0,0.01,0,0.02,0,0.03c0.01,0.01,0.02,0.04,0.02-0.04c0-0.1,0.01-0.21,0.02-0.31c0-0.11-0.01-0.21-0.01-0.32
			c-0.04-0.85-0.29-1.74-0.67-2.5c-0.38-0.76-0.85-1.39-1.28-1.88c-0.45-0.47-0.82-0.82-1.1-1.03c-0.28-0.22-0.42-0.33-0.42-0.33
			l-0.87-0.69c-4.32-3.42-5.05-9.69-1.63-14.01c3.23-4.08,9.05-4.94,13.32-2.13c0,0,0.45,0.3,1.32,0.88
			c0.86,0.59,2.12,1.54,3.62,2.94c1.48,1.43,3.2,3.36,4.79,5.99c1.58,2.63,3.03,6.01,3.63,10.18c0.07,0.52,0.13,1.05,0.18,1.59
			c0.02,0.55,0.05,1.1,0.07,1.66c0.01,0.25,0,0.62-0.01,0.96c-0.02,0.35-0.04,0.7-0.05,1.05l-0.04,0.53l-0.04,0.41l-0.06,0.52
			l-0.06,0.52l-0.01,0.07l-0.09,0.54l-0.05,0.22l-0.09,0.45c-0.13,0.6-0.26,1.21-0.42,1.82c-0.38,1.2-0.76,2.44-1.32,3.61
			c-2.13,4.81-5.84,8.99-10.52,11.97c-2.36,1.49-4.99,2.72-8.02,3.54c-0.39,0.1-0.74,0.2-1.17,0.29c-0.5,0.1-1,0.19-1.5,0.26
			c-1.25,0.19-1.44,0.18-1.97,0.24l-0.18,0.02c-0.26,0.01,0.45-0.02-0.6,0.03l-0.13,0l-0.52,0.01l-1.04,0.01
			c-0.7,0-1.4,0.03-2.1-0.04c-1.41-0.1-2.85-0.21-4.29-0.49c-1.45-0.21-2.9-0.62-4.37-1.03c-2.91-0.95-5.89-2.17-8.65-4.04
			c-5.65-3.53-10.22-9.36-12.88-15.62c-0.31-0.78-0.58-1.57-0.87-2.37c-0.26-0.79-0.59-1.61-0.76-2.4c-0.2-0.8-0.39-1.6-0.59-2.41
			c-0.09-0.41-0.19-0.8-0.28-1.22l-0.2-1.33c-0.25-1.73-0.51-3.83-0.53-4.79c-0.04-0.61-0.07-1.22-0.11-1.84l-0.03-0.46
			c0,0.44-0.01-0.72-0.01-0.66l0-0.16l0.01-0.32l0.05-1.28c0.22-6.89,2-13.53,4.76-19.58c2.77-6.06,6.48-11.63,11.05-16.6
			c4.57-4.96,9.95-9.41,16.42-12.94c0.73-0.44,1.77-0.91,2.74-1.36c0.96-0.44,2.02-0.91,2.91-1.27l1.97-0.73l0.99-0.37
			c1.28-0.4,0.44-0.13,0.76-0.23l0.15-0.04l0.3-0.08l0.6-0.16c3.22-0.85,6.45-1.81,9.78-2.28c6.62-1.31,13.41-1.56,20.17-1.42
			c3.36,0.25,6.77,0.36,10.09,0.94c1.67,0.26,3.36,0.44,5,0.79l4.94,1.09c1.66,0.33,3.26,0.85,4.87,1.32c1.6,0.5,3.25,0.91,4.82,1.5
			c3.14,1.18,6.32,2.27,9.33,3.73c6.15,2.66,11.91,6.07,17.43,9.76c2.69,1.95,5.42,3.83,7.92,6.01l1.9,1.59
			c0.63,0.53,1.26,1.03,1.91,1.68c1.29,1.24,2.57,2.48,3.85,3.72c1.41,1.35,2.16,2.24,3.13,3.29l1.4,1.53l0.7,0.76l0.17,0.19
			c0.2,0.24-0.33-0.4,0.47,0.56l0.1,0.12l0.38,0.49c1.01,1.3,2.01,2.6,3.01,3.9c0.99,1.3,2.02,2.58,2.86,3.96
			c7.28,10.77,12.17,22.45,15.09,33.8c2.94,11.37,3.95,22.41,3.88,32.5c-0.18,10.1-1.51,19.23-3.12,27.21
			c-0.45,1.98-0.96,3.88-1.42,5.72c-0.49,1.83-0.86,3.64-1.44,5.29c-0.54,1.67-1.06,3.27-1.55,4.8c-0.51,1.54-0.93,2.97-1.55,4.43
			c-1.14,2.88-2.18,5.44-3.09,7.67c-0.24,0.61-0.43,0.97-0.62,1.39c-0.19,0.41-0.38,0.8-0.55,1.18c-0.35,0.75-0.67,1.44-0.96,2.05
			c-1.15,2.45-1.76,3.76-1.76,3.76c-4.76,10.15-16.85,14.53-27,9.77s-14.53-16.85-9.77-27C914.3,491.62,914.49,491.24,914.66,490.93
			z"/>
		<path id="XMLID_34_" class="st0" d="M932.49,522.86c-3.17,0-6.38-0.68-9.43-2.11c-11.14-5.22-15.95-18.53-10.73-29.66
			c0.16-0.35,0.38-0.77,0.56-1.11c0,0,0-0.01,0-0.01l3.83-7.11c0.12-0.23,0.26-0.46,0.33-0.63c0.66-1.48,1.39-3.07,2.24-4.86
			c0.31-0.58,0.57-1.29,0.86-2.04c0.11-0.29,0.22-0.58,0.34-0.88l1.34-3.45c0.33-0.76,0.56-1.53,0.81-2.34
			c0.14-0.45,0.28-0.91,0.43-1.37c0.15-0.5,0.33-1.05,0.51-1.61c0.25-0.8,0.51-1.61,0.76-2.44c1.76-6.82,2.85-13.09,3.31-19.11
			c0.49-7.79,0.02-15.35-1.38-22.44c-1.63-8.27-4.53-15.95-8.61-22.84c-0.03-0.04-0.05-0.09-0.07-0.14c-0.3-0.61-0.71-1.2-1.15-1.83
			c-0.16-0.22-0.31-0.45-0.47-0.68l-2.12-3.14l-1.73-2.11c-0.21-0.25-0.44-0.53-0.67-0.81c-0.58-0.72-1.24-1.53-1.59-1.85
			c-0.03-0.03-0.06-0.06-0.09-0.09c-0.71-0.74-1.41-1.49-2.1-2.26c-0.23-0.27-0.53-0.55-0.83-0.83l-1.5-1.4
			c-1.17-1.18-2.42-2.19-3.75-3.26c-0.49-0.4-0.98-0.79-1.46-1.2c-3.09-2.3-7.2-5.22-11.71-7.46c-0.04-0.02-0.07-0.04-0.1-0.05
			c-1.43-0.82-2.94-1.47-4.53-2.17c-0.61-0.27-1.23-0.54-1.84-0.81c-0.6-0.27-1.25-0.5-1.94-0.73c-0.45-0.15-0.89-0.31-1.33-0.48
			c-0.26-0.09-0.58-0.21-0.9-0.33c-0.79-0.29-1.54-0.57-2.26-0.74l-3.55-1c-0.64-0.18-1.31-0.31-2.01-0.44
			c-0.46-0.09-0.93-0.18-1.39-0.28c-1.54-0.38-3.07-0.57-4.68-0.76c-0.72-0.09-1.43-0.17-2.15-0.28c-4.35-0.3-9-0.49-13.52,0.18
			c-0.05,0.01-0.1,0.01-0.15,0.02c-1.55,0.11-3.07,0.42-4.69,0.76c-0.63,0.13-1.26,0.26-1.9,0.38l-0.73,0.14c0,0,0,0-0.01,0
			l-2.21,0.68c-0.12,0.05-0.22,0.09-0.31,0.14c-0.2,0.09-0.39,0.17-0.61,0.25c-0.06,0.03-0.19,0.07-0.32,0.12
			c-0.17,0.06-0.26,0.09-0.43,0.19c-0.04,0.02-0.08,0.05-0.13,0.07c-3.15,1.48-6.43,3.77-9.21,6.47
			c-5.34,5.11-9.12,12.12-9.63,17.85l-0.1,0.8l0.01,1.67c-0.02,0.9,0.02,1.26,0.07,1.62c0.03,0.26,0.06,0.49,0.07,0.78l0.01,0.33
			c0.01,0.04,0.02,0.07,0.02,0.11l0.24,1.37c0.01,0.06,0.02,0.11,0.02,0.17c0.01,0.06,0.04,0.13,0.06,0.19
			c0.05,0.17,0.1,0.33,0.15,0.5l0.2,0.75c0.12,0.27,0.23,0.54,0.33,0.81l0.11,0.31c0.07,0.12,0.11,0.19,0.15,0.26
			c0.11,0.2,0.23,0.44,0.35,0.68l0.53,0.8c0.07,0.07,0.13,0.13,0.18,0.2c0.12,0.13,0.26,0.3,0.41,0.49c0.17,0.15,0.34,0.3,0.5,0.46
			l0.3,0.25c0.06,0.04,0.12,0.09,0.18,0.14c0.51,0.44,1.29,0.79,2.11,1.16l0,0c0.17,0.05,0.34,0.11,0.5,0.17
			c0.27,0.1,0.5,0.18,0.69,0.21c0.09,0.01,0.18,0.04,0.27,0.06c0.26,0.08,0.6,0.13,0.96,0.18l0.4,0.06
			c0.05,0.01,0.11,0.02,0.16,0.03c0.02,0,0.07,0,0.14,0c0.13,0,0.27,0.01,0.4,0.02l0.57,0.04c0.08,0,0.16-0.01,0.23-0.01
			c0.06-0.01,0.13-0.02,0.2-0.02c0.01,0,0.02,0,0.03,0c0.4-0.08,0.84-0.25,1.22-0.45c1.06-0.56,1.61-1.21,1.77-1.51
			c0.03-0.06,0.07-0.11,0.1-0.17c0.03-0.06,0.06-0.13,0.08-0.18c0.02-0.08,0.05-0.16,0.08-0.23l0.05-0.29
			c0-0.08,0.01-0.16,0.03-0.24c0-0.01,0-0.02,0-0.02c0-0.08,0-0.14-0.01-0.21c-0.03-0.52-0.2-1.12-0.46-1.64
			c-0.32-0.64-0.71-1.14-0.99-1.45c-0.45-0.47-0.73-0.71-0.83-0.78l-1.3-1.03c-2.51-1.98-4.09-4.82-4.46-8
			c-0.37-3.18,0.52-6.31,2.5-8.81c3.82-4.82,10.84-5.94,15.99-2.56l1.33,0.88c1.3,0.89,2.6,1.95,3.88,3.15
			c2.03,1.96,3.7,4.05,5.14,6.41c2.03,3.39,3.34,7.07,3.9,10.93c0,0.01,0.01,0.1,0.01,0.11c0.07,0.52,0.13,1.05,0.18,1.59l0.08,1.75
			c0.02,0.28,0.01,0.71-0.01,1.13l-0.25,3.17c0,0.04-0.02,0.14-0.02,0.17l-0.24,1.3c-0.13,0.63-0.28,1.26-0.43,1.9
			c-0.01,0.04-0.02,0.08-0.03,0.12l-0.06,0.18c-0.38,1.21-0.77,2.45-1.37,3.69c-2.26,5.11-6.16,9.55-11.25,12.79
			c-2.74,1.73-5.54,2.96-8.58,3.78l-0.27,0.07c-0.32,0.08-0.62,0.16-0.99,0.25c-0.57,0.11-1.1,0.21-1.63,0.29
			c-0.96,0.15-1.34,0.18-1.69,0.22l-0.61,0.06c-0.03,0-0.17,0.01-0.17,0.01v-0.03c0,0,0,0,0,0.01v0.02c0,0-0.08,0-0.13,0
			c-0.12,0.01-0.24,0.02-0.37,0.03l-2.31,0.02c-0.56,0-1.14,0.01-1.77-0.06c-1.43-0.1-2.9-0.21-4.43-0.51
			c-1.45-0.21-2.87-0.6-4.25-0.98l-0.32-0.09c-3.8-1.24-6.71-2.6-9.24-4.32c-5.69-3.55-10.66-9.57-13.6-16.49
			c-0.27-0.67-0.5-1.32-0.73-1.97l-0.18-0.51c-0.08-0.25-0.16-0.47-0.24-0.68c-0.22-0.63-0.45-1.28-0.6-1.97l-0.66-2.71
			c-0.07-0.31-0.15-0.63-0.21-0.95l-0.21-1.41c-0.16-1.1-0.53-3.78-0.55-5.06l-0.12-1.96c-0.01-0.07-0.02-0.13-0.02-0.2
			c-0.01-0.17-0.01-0.61,0-0.87c0-0.01,0-0.26,0-0.26h0c0,0,0.01,0,0.02,0h-0.03l0.06-1.66c0.21-6.76,1.87-13.55,4.94-20.28
			c2.85-6.24,6.69-11.97,11.39-17.09c5.04-5.47,10.73-9.94,16.93-13.33c0.69-0.42,1.69-0.87,2.65-1.32l0.21-0.09
			c0.99-0.45,2.07-0.93,2.99-1.31l3.03-1.12c0.03-0.01,0.06-0.02,0.1-0.03c0.14-0.04,0.31-0.1,0.52-0.15
			c0.05-0.02,0.1-0.04,0.15-0.06l0.01,0.02c0.02,0,0.04-0.01,0.06-0.01l-0.01-0.03c0.01,0,0.09-0.03,0.11-0.03l2.76-0.74
			c2.66-0.72,5.42-1.46,8.26-1.87c5.85-1.15,12.38-1.61,20.55-1.45c0.04,0,0.07,0,0.11,0c0.74,0.05,1.49,0.1,2.23,0.15
			c2.64,0.17,5.37,0.34,8.06,0.81c0.51,0.08,1.05,0.16,1.59,0.23c1.14,0.16,2.32,0.33,3.49,0.57l4.95,1.09
			c1.32,0.26,2.63,0.65,3.89,1.02c0.37,0.11,0.74,0.22,1.11,0.33c0.57,0.18,1.1,0.33,1.63,0.48c1.09,0.32,2.22,0.65,3.34,1.06
			l1.75,0.65c2.57,0.95,5.22,1.93,7.76,3.15c5.5,2.38,11.13,5.54,17.67,9.9l1.52,1.09c2.21,1.59,4.49,3.23,6.61,5.08l2.19,1.83
			c0.55,0.46,1.12,0.93,1.72,1.53l3.83,3.69c1.08,1.03,1.79,1.82,2.48,2.58c0.24,0.26,0.47,0.52,0.72,0.79l2.28,2.5
			c0.01,0.01,0.06,0.07,0.08,0.09l-0.01,0.01c0.01,0.01,0.02,0.02,0.03,0.04l0.01-0.01c0.03,0.04,0.06,0.07,0.08,0.11
			c0.13,0.14,0.25,0.28,0.34,0.39l4.12,5.33c0.81,1.06,1.65,2.15,2.38,3.34c6.96,10.31,12.13,21.88,15.34,34.37
			c2.7,10.45,4.03,21.56,3.95,33.02c-0.16,8.85-1.19,17.87-3.16,27.59c-0.33,1.45-0.68,2.82-1.02,4.15l-0.42,1.66
			c-0.16,0.59-0.29,1.14-0.43,1.69c-0.31,1.25-0.63,2.55-1.07,3.78l-1.88,5.81c-0.37,1.15-0.75,2.33-1.26,3.54
			c-1.12,2.84-2.17,5.42-3.09,7.66c-0.18,0.47-0.35,0.82-0.51,1.16l-3.43,7.31C948.93,518.11,940.88,522.86,932.49,522.86z
			 M916.42,491.87c-0.15,0.28-0.32,0.62-0.46,0.92c-4.29,9.14-0.34,20.06,8.8,24.34c4.43,2.08,9.4,2.3,14,0.64
			c4.6-1.66,8.27-5.02,10.35-9.44l3.43-7.33c0.13-0.27,0.26-0.54,0.41-0.94c0.93-2.25,1.96-4.81,3.09-7.67
			c0.46-1.09,0.8-2.14,1.16-3.25l1.9-5.86c0.39-1.1,0.67-2.25,0.97-3.46c0.14-0.57,0.29-1.15,0.44-1.73l0.41-1.64
			c0.33-1.3,0.67-2.64,0.98-4.01c1.91-9.43,2.92-18.22,3.07-26.8c0.08-11.09-1.21-21.85-3.82-31.97
			c-3.11-12.07-8.09-23.23-14.81-33.18c-0.02-0.03-0.04-0.06-0.06-0.09c-0.61-1.02-1.36-1.99-2.15-3.01l-4.41-5.67
			c-0.03-0.03-0.05-0.06-0.08-0.09l-2.22-2.42c-0.25-0.27-0.5-0.54-0.75-0.82c-0.67-0.74-1.3-1.43-2.29-2.37l-3.86-3.72
			c-0.5-0.5-0.98-0.9-1.48-1.32l-2.23-1.86c-2.01-1.76-4.11-3.27-6.34-4.87l-1.47-1.06c-6.26-4.18-11.7-7.23-17.05-9.54
			c-2.44-1.18-5-2.12-7.48-3.04l-1.76-0.65c-0.97-0.36-1.98-0.66-3.05-0.97c-0.55-0.16-1.11-0.32-1.66-0.49
			c-0.34-0.1-0.72-0.21-1.1-0.32c-1.22-0.36-2.38-0.71-3.56-0.94l-4.98-1.1c-1.02-0.22-2.08-0.37-3.2-0.52
			c-0.56-0.08-1.13-0.16-1.69-0.25c-2.51-0.44-5.12-0.6-7.66-0.77c-0.74-0.05-1.48-0.09-2.21-0.15c-7.87-0.15-14.13,0.29-19.69,1.39
			c-0.04,0.01-0.07,0.01-0.1,0.02c-2.62,0.37-5.28,1.09-7.84,1.78l-2.75,0.74c-0.02,0-0.03,0.01-0.05,0.01l-0.6,0.19l-2.91,1.08
			c-0.8,0.33-1.84,0.79-2.77,1.22l-0.21,0.09c-0.86,0.39-1.75,0.8-2.32,1.15c-5.98,3.27-11.18,7.37-15.98,12.58
			c-4.42,4.81-8.02,10.22-10.7,16.08c-2.84,6.25-4.38,12.58-4.58,18.81l-0.09,1.75c0,0.1-0.03,0.32-0.03,0.48c0,0,0,0.01,0,0.01
			l0.17,2.3c0.02,0.79,0.23,2.58,0.53,4.62l0.21,1.32c0.04,0.19,0.11,0.45,0.17,0.71l0.67,2.74c0.11,0.49,0.29,1,0.47,1.53
			c0.08,0.24,0.17,0.47,0.24,0.71l0.17,0.48c0.21,0.6,0.42,1.19,0.66,1.78c2.61,6.15,7.01,11.5,12.08,14.67
			c2.28,1.54,4.87,2.75,8.21,3.84l0.23,0.06c1.33,0.37,2.58,0.71,3.8,0.88c0.04,0,0.07,0.01,0.1,0.02c1.32,0.26,2.67,0.37,4.04,0.46
			c0.48,0.05,0.94,0.04,1.41,0.04l2.62-0.04c0.04,0,0.07-0.01,0.11-0.01l0.5-0.05c0.3-0.03,0.63-0.06,1.46-0.19
			c0.47-0.07,0.95-0.16,1.42-0.25c0.26-0.06,0.52-0.13,0.79-0.2l0.27-0.07c2.63-0.71,5.07-1.78,7.46-3.29
			c4.36-2.77,7.83-6.71,9.76-11.09c0.5-1.04,0.85-2.15,1.19-3.22l0.04-0.12c0.14-0.57,0.27-1.13,0.38-1.69l0.35-2.5l0.09-1.5
			c0.01-0.25,0.02-0.54,0.01-0.75l-0.07-1.69c-0.04-0.4-0.1-0.88-0.16-1.35c-0.48-3.38-1.62-6.55-3.37-9.48
			c-1.25-2.06-2.71-3.88-4.47-5.58c-1.12-1.05-2.26-1.98-3.36-2.74l-1.29-0.86c-3.43-2.26-8.11-1.51-10.65,1.7
			c-1.32,1.67-1.91,3.75-1.67,5.87c0.25,2.11,1.3,4.01,2.97,5.33l1.29,1.02c0.36,0.28,0.8,0.69,1.31,1.22
			c0.67,0.76,1.2,1.53,1.61,2.35c0.52,1.04,0.84,2.22,0.88,3.31c0,0.05,0,0.11,0,0.16l0.01,0.21c0,0.11,0,0.21-0.02,0.32
			c0,0.15-0.02,0.3-0.05,0.45l-0.17,1.03c-0.06,0.37-0.22,0.7-0.45,0.97c-0.06,0.11-0.12,0.23-0.21,0.36
			c-0.66,1.15-1.88,2.25-3.35,3.03c-0.83,0.44-1.78,0.76-2.59,0.89l-0.13,0.03c-0.19,0.04-0.38,0.04-0.57,0.02
			c-0.17,0.01-0.33,0.21-0.47,0.21l-0.17,0.2c-0.01,0-0.01,0-0.02,0l-0.42-0.37v0c0,0-0.05,0.37-0.25,0.37h-0.01
			c-0.22,0-0.51-0.25-0.85-0.32l-0.3-0.16c-0.44-0.06-0.93-0.19-1.44-0.34c-0.48-0.09-0.89-0.27-1.23-0.39
			c-0.15-0.05-0.29-0.12-0.44-0.16c-0.09-0.03-0.17-0.06-0.25-0.1l-0.12-0.06c-0.97-0.44-2.07-0.93-3-1.72l-0.23-0.16
			c-0.1-0.07-0.19-0.14-0.28-0.23l-0.27-0.27c-0.12-0.12-0.24-0.22-0.36-0.33l-0.1-0.09c-0.11-0.09-0.2-0.2-0.29-0.31
			c-0.12-0.16-0.24-0.3-0.37-0.45c-0.18-0.19-0.31-0.33-0.42-0.49l-0.66-0.98c-0.07-0.1-0.12-0.2-0.17-0.3
			c-0.1-0.21-0.2-0.41-0.31-0.61l-0.06-0.11c-0.07-0.11-0.13-0.23-0.19-0.35c-0.03-0.07-0.06-0.13-0.09-0.2l-0.15-0.43
			c-0.08-0.22-0.18-0.46-0.29-0.7c-0.04-0.1-0.08-0.2-0.11-0.3l-0.26-0.96c-0.03-0.12-0.05-0.18-0.07-0.25
			c-0.08-0.23-0.19-0.57-0.23-1l-0.2-1.17c-0.03-0.15-0.06-0.3-0.08-0.45c-0.01-0.06-0.01-0.12-0.02-0.18l-0.02-0.46
			c-0.01-0.18-0.02-0.31-0.04-0.46c-0.05-0.42-0.12-0.99-0.09-2.11l-0.01-2.23c0-0.06,0-0.12,0-0.18c0-0.28,0.06-0.54,0.16-0.78
			c0.7-6.6,4.81-14.25,10.8-19.98c3.12-3.01,6.65-5.5,10.23-7.18c0.45-0.25,0.79-0.36,1.02-0.44c0.06-0.02,0.11-0.04,0.17-0.06
			c0.2-0.07,0.3-0.12,0.42-0.18c0.15-0.07,0.31-0.14,0.52-0.23c0.05-0.02,0.11-0.04,0.17-0.06l3.02-0.93
			c0.25-0.08,0.49-0.1,0.73-0.08c0.52-0.1,1.03-0.21,1.54-0.31c1.65-0.34,3.35-0.7,5.15-0.83c4.9-0.71,9.81-0.51,14.38-0.2
			c0.05,0,0.1,0.01,0.15,0.02c0.71,0.1,1.42,0.19,2.13,0.28c1.66,0.2,3.38,0.41,5.12,0.84c0.38,0.08,0.8,0.17,1.22,0.25
			c0.76,0.15,1.54,0.3,2.35,0.52l3.47,0.98c0.88,0.21,1.78,0.54,2.64,0.86c0.3,0.11,0.59,0.22,0.89,0.32
			c0.46,0.17,0.86,0.31,1.26,0.45c0.74,0.26,1.51,0.52,2.28,0.87c0.6,0.27,1.19,0.53,1.79,0.79c1.6,0.7,3.26,1.42,4.86,2.33
			c4.79,2.39,9.1,5.44,12.32,7.84c0.03,0.02,0.06,0.04,0.08,0.07c0.48,0.4,0.97,0.8,1.46,1.19c1.35,1.09,2.74,2.22,4.01,3.5
			l1.43,1.33c0.4,0.36,0.81,0.74,1.15,1.15c0.6,0.66,1.26,1.37,1.93,2.07c0.56,0.53,1.23,1.35,1.94,2.23
			c0.22,0.27,0.44,0.54,0.65,0.79l2.14,2.62c0.01,0.01,0.02,0.03,0.03,0.04l0.03,0.03l0,0c0.01,0.02,0.02,0.03,0.03,0.05
			c0.12,0.17,0.21,0.34,0.28,0.51l1.56,2.31c0.14,0.21,0.29,0.42,0.43,0.63c0.49,0.7,1,1.43,1.42,2.28
			c4.3,7.27,7.35,15.36,9.06,24.04c1.47,7.43,1.96,15.33,1.45,23.5c-0.49,6.28-1.61,12.78-3.45,19.9c-0.27,0.93-0.54,1.77-0.81,2.6
			c-0.17,0.54-0.35,1.08-0.51,1.61c-0.16,0.47-0.28,0.89-0.41,1.31c-0.27,0.89-0.55,1.81-0.94,2.71l-1.31,3.38
			c-0.11,0.29-0.22,0.56-0.32,0.84c-0.33,0.87-0.64,1.68-1.02,2.41c-0.79,1.68-1.51,3.25-2.12,4.62c-0.1,0.26-0.3,0.63-0.5,0.99
			L916.42,491.87z M828.53,409.54l0,0.02c0.24-0.02,0.47-0.08,0.69-0.19C828.99,409.45,828.76,409.51,828.53,409.54z"/>
	</g>
	<g id="face">
		<g id="XMLID_28_">
			<g id="XMLID_27_">
				<g id="XMLID_19_">
					<circle id="XMLID_21_" class="st0" cx="729.88" cy="495.76" r="24.86"/>
					<path id="XMLID_39_" d="M729.88,529.62c-18.67,0-33.86-15.19-33.86-33.86s15.19-33.86,33.86-33.86s33.86,15.19,33.86,33.86
						S748.55,529.62,729.88,529.62z M729.88,479.9c-8.75,0-15.86,7.12-15.86,15.86c0,8.75,7.12,15.86,15.86,15.86
						s15.86-7.12,15.86-15.86C745.74,487.01,738.62,479.9,729.88,479.9z"/>
				</g>
				<g id="XMLID_22_">
					<circle id="XMLID_43_" class="st0" cx="936.88" cy="495.76" r="24.86"/>
					<path id="XMLID_45_" d="M936.88,529.62c-18.67,0-33.86-15.19-33.86-33.86s15.19-33.86,33.86-33.86s33.86,15.19,33.86,33.86
						S955.55,529.62,936.88,529.62z M936.88,479.9c-8.75,0-15.86,7.12-15.86,15.86c0,8.75,7.12,15.86,15.86,15.86
						s15.86-7.12,15.86-15.86C952.74,487.01,945.62,479.9,936.88,479.9z"/>
				</g>
			</g>
			<g id="XMLID_26_">
				<g id="XMLID_3_" class="st12">
					<path id="XMLID_15_" class="st13" d="M710.45,565.03c0-68.11,55.22-123.33,123.33-123.33s123.33,55.22,123.33,123.33
						s-55.2,91.3-123.31,91.3S710.45,633.15,710.45,565.03z"/>
					<path id="XMLID_49_" class="st13" d="M833.77,674.43c-32.36,0-58.69-26.33-58.69-58.69c0-32.36,26.33-58.69,58.69-58.69
						s58.69,26.33,58.69,58.69C892.46,648.11,866.13,674.43,833.77,674.43z M833.77,587.06c-15.82,0-28.69,12.87-28.69,28.69
						c0,15.82,12.87,28.69,28.69,28.69s28.69-12.87,28.69-28.69C862.46,599.93,849.59,587.06,833.77,587.06z"/>
				</g>
				<g id="XMLID_25_">
					<circle id="XMLID_17_" class="st14" cx="795.05" cy="580.12" r="55.27"/>
					<circle id="XMLID_18_" class="st14" cx="872.49" cy="580.12" r="55.27"/>
					<circle id="beEye" class="st14" cx="833.77" cy="615.75" r="43.69"/>
				</g>
				<path id="beEye_1_" class="st0" d="M867.95,614.61c6.35,23.28-10.05,44.83-34.18,44.83s-38.16-23.79-33.74-40.03
					c5.87-21.52,9.46-32.48,33.59-32.48C857.75,586.92,861.3,590.25,867.95,614.61z"/>
				<path id="XMLID_31_" d="M833.78,441.7c-68.11,0-123.33,55.22-123.33,123.33c0,51.82,31.97,77.63,77.26,87.02
					c10.76,13.62,27.4,22.38,46.06,22.38c18.65,0,35.29-8.76,46.05-22.37c45.31-9.38,77.3-35.19,77.3-87.03
					C957.11,496.92,901.9,441.7,833.78,441.7z M872.8,635.38c-7.19,14.27-21.96,24.06-39.03,24.06s-31.84-9.79-39.03-24.06
					c-30.38-0.17-54.96-24.84-54.96-55.26c0-30.52,24.74-55.27,55.27-55.27c15.08,0,28.74,6.05,38.72,15.84
					c9.97-9.79,23.64-15.84,38.72-15.84c30.52,0,55.27,24.74,55.27,55.27C927.75,610.54,903.18,635.21,872.8,635.38z"/>
			</g>
		</g>
		<circle id="mouth" cx="834.01" cy="629.92" r="7.98"/>
	</g>
	<g id="XMLID_29_" class="st12">
		<path id="XMLID_62_" class="st13" d="M819.48,280.44c0,0,0.16-0.73,0.47-2.14c0.3-1.39,0.82-3.59,1.28-6.08
			c0.51-2.52,1.1-5.77,1.67-9.54c0.6-3.78,1.09-8.1,1.46-12.91c0.35-4.81,0.46-10.08,0.12-15.75c-0.15-2.84-0.47-5.77-0.89-8.83
			c-0.11-0.76-0.23-1.53-0.34-2.31c-0.14-0.78-0.27-1.57-0.41-2.36c-0.13-0.79-0.31-1.6-0.47-2.41l-0.12-0.61l-0.06-0.31l-0.03-0.15
			c-0.03-0.13,0.13,0.55,0.04,0.19c-0.11-0.44-0.21-0.88-0.32-1.32c-0.43-1.77-0.86-3.56-1.3-5.39c-0.21-0.98-0.47-1.63-0.71-2.43
			c-0.24-0.77-0.48-1.55-0.73-2.34c-0.26-0.79-0.45-1.57-0.76-2.39c-0.32-0.82-0.63-1.64-0.95-2.47c-0.32-0.83-0.64-1.66-0.96-2.5
			c-0.31-0.85-0.74-1.64-1.1-2.48c-2.96-6.65-6.9-13.27-11.85-20.01c-4.93-6.75-10.82-13.66-17.08-21.05
			c-6.26-7.38-12.84-15.25-19.22-23.71c-0.79-1.06-1.58-2.13-2.38-3.2l-1.2-1.61l-0.6-0.81l-0.15-0.2l-0.31-0.44l-0.27-0.4
			l-1.1-1.61c-0.37-0.56-0.71-1.02-1.15-1.75c-0.81-1.33-1.69-2.71-2.44-4.03c-2.95-5.15-5.39-10.54-7.46-16.12
			c-2.06-5.57-3.73-11.33-5-17.25c-1.25-5.92-2.03-12-2.36-18.19c-0.33-6.18-0.17-12.49,0.66-18.81l0.14-1.19l0.08-0.67l0.08-0.53
			l0.33-2.16c0.26-1.59,0.54-3.16,0.86-4.71c0.28-1.55,0.69-3.11,1.04-4.67c0.42-1.56,0.82-3.12,1.29-4.68
			c1.9-6.22,4.48-12.4,7.92-18.26c3.44-5.84,7.73-11.37,12.83-16.11c1.29-1.17,2.64-2.26,3.97-3.39l1-0.84l1.06-0.75l2.14-1.49
			l2.15-1.48l2.25-1.29l2.26-1.28l1.13-0.64c0.18-0.09,0-0.02,0.47-0.25l0.25-0.12l0.5-0.24l2-0.97l0.5-0.24l0.58-0.26l1.19-0.53
			l2.39-1.04l2.31-0.9c3.08-1.21,6.23-2.2,9.4-3.12c6.37-1.77,12.9-2.95,19.51-3.52c6.61-0.59,13.31-0.53,19.98,0.24
			c6.66,0.77,13.32,2.18,19.74,4.45c6.43,2.26,12.64,5.3,18.38,9.12c5.73,3.84,10.93,8.49,15.41,13.71
			c2.26,2.59,4.28,5.37,6.15,8.21c0.95,1.42,1.76,2.9,2.64,4.35l0.16,0.27c-0.04-0.08,0.23,0.42,0.25,0.45l0.26,0.49l0.52,0.98
			l0.52,0.97c0.17,0.33,0.34,0.62,0.53,1.04l1.13,2.34l0.55,1.17l0.49,1.13l0.97,2.26l0.89,2.29c1.19,3.06,2.15,6.19,3.03,9.33
			c1.67,6.31,2.76,12.76,3.16,19.24c0.75,12.95-1.1,26.16-6.35,38.21c-2.58,6.02-6.07,11.7-10.31,16.74
			c-4.24,5.04-9.32,9.35-14.8,12.8l-2.02,1.18l-0.87,0.5c-0.29,0.17-0.73,0.39-1.09,0.57l-2.27,1.16c-0.77,0.4-1.44,0.66-2.16,0.99
			l-2.13,0.93l-2.16,0.82c-1.43,0.57-2.89,1.01-4.35,1.48c-5.83,1.79-11.85,2.9-18.01,3.13c-6.15,0.23-12.47-0.45-18.55-2.38
			c-1.52-0.45-2.99-1.11-4.47-1.68c-0.75-0.27-1.45-0.65-2.16-1.02l-2.12-1.11l-1.05-0.57l-0.99-0.66l-1.97-1.33l-0.98-0.67
			l-0.24-0.17c-0.01,0-0.82-0.65-0.56-0.44l-0.35-0.29l-1.39-1.17l-1.38-1.17c-0.48-0.42-0.87-0.69-1.45-1.29
			c-1.09-1.06-2.17-2.14-3.22-3.21c-1.12-1.07-1.92-2.18-2.85-3.27c-0.88-1.11-1.83-2.14-2.58-3.37c-0.78-1.19-1.56-2.38-2.33-3.56
			c-0.69-1.25-1.34-2.53-1.99-3.79c-0.69-1.23-1.17-2.6-1.69-3.93c-0.25-0.67-0.51-1.33-0.76-1.99c-0.27-0.65-0.4-1.37-0.6-2.06
			c-0.34-1.39-0.77-2.74-0.99-4.15c-0.21-1.41-0.41-2.82-0.58-4.22c-0.15-2.84-0.25-5.66,0.13-8.45c0.08-0.7,0.15-1.39,0.23-2.08
			c0.15-0.68,0.29-1.36,0.44-2.04c0.15-0.68,0.31-1.35,0.46-2.02c0.08-0.33,0.15-0.67,0.25-1l0.33-0.97c0.46-1.29,0.9-2.58,1.4-3.83
			c0.59-1.21,1.18-2.41,1.79-3.59c0.15-0.29,0.29-0.59,0.46-0.88l0.53-0.83c0.36-0.55,0.72-1.09,1.08-1.64
			c0.36-0.54,0.72-1.08,1.08-1.61c0.39-0.51,0.81-0.99,1.22-1.48c0.83-0.96,1.61-1.97,2.49-2.84c0.9-0.85,1.8-1.69,2.69-2.53
			l0.67-0.62c-0.23,0.18,0.5-0.42,0.47-0.4l0.14-0.11l0.29-0.22l1.14-0.87l0.3-0.22l0.44-0.3l0.89-0.59
			c0.59-0.38,1.2-0.79,1.77-1.12c2.16-1.2,4.35-2.25,6.59-3.01c8.9-3.18,18.25-3.04,26.22-0.18c1.01,0.31,1.96,0.77,2.91,1.19
			c0.47,0.22,0.95,0.42,1.4,0.66c0.45,0.25,0.89,0.51,1.34,0.76c0.44,0.26,0.88,0.51,1.31,0.76c0.43,0.26,0.83,0.57,1.24,0.85
			c0.4,0.29,0.81,0.58,1.21,0.87l0.3,0.22l0.15,0.11c0.15,0.12-0.12-0.11,0.36,0.29l0.42,0.35l0.21,0.17l0.3,0.26l0.71,0.66
			c0.52,0.48,0.79,0.8,1.17,1.19c0.69,0.76,1.32,1.51,1.89,2.27c1.14,1.51,2.09,3.03,2.92,4.56c3.27,6.05,4.65,12.31,4.42,18.23
			c-0.13,2.94-0.72,5.76-1.61,8.25c-0.89,2.49-2.08,4.65-3.31,6.4c-2.47,3.55-4.98,5.55-6.6,6.78c-0.82,0.65-1.46,1.03-1.88,1.34
			c-0.43,0.29-0.64,0.43-0.64,0.43c-4.54,3.05-10.69,1.83-13.74-2.71c-3.05-4.54-1.83-10.69,2.71-13.74
			c0.29-0.19,0.58-0.37,0.88-0.53l0.25-0.13c0,0,0.1-0.05,0.29-0.16c0.18-0.11,0.52-0.24,0.86-0.46c0.74-0.41,1.69-1.09,2.53-2.07
			c0.44-0.48,0.84-1.06,1.15-1.79c0.32-0.73,0.6-1.6,0.69-2.71c0.09-1.1,0.06-2.43-0.26-3.91c-0.32-1.47-0.87-3.09-1.69-4.66
			c-0.42-0.77-0.9-1.53-1.41-2.21c-0.25-0.34-0.52-0.66-0.78-0.94c-0.11-0.12-0.3-0.33-0.32-0.33c-0.02-0.02-0.04-0.05-0.06-0.08
			l-0.01-0.02l-0.09-0.08l-0.21-0.17l-0.42-0.35c0.41,0.33,0.07,0.06,0.15,0.13l-0.07-0.05l-0.15-0.1l-0.59-0.4
			c-0.2-0.13-0.38-0.29-0.59-0.41l-0.64-0.35l-0.64-0.37c-0.22-0.12-0.46-0.2-0.69-0.3c-0.46-0.19-0.91-0.43-1.42-0.56
			c-3.87-1.38-8.94-1.37-13.71,0.48c-1.19,0.44-2.32,1.06-3.42,1.71c-0.24,0.15-0.39,0.29-0.6,0.42l-0.3,0.19l-0.15,0.09l-0.27,0.21
			l-1.11,0.91l-0.28,0.23l-0.14,0.11c-0.12,0.1,0.52-0.42,0.21-0.16l-0.37,0.39c-0.5,0.51-1,1.02-1.52,1.52
			c-0.49,0.52-0.88,1.12-1.34,1.67c-0.22,0.28-0.46,0.55-0.67,0.84l-0.54,0.92l-0.56,0.91l-0.29,0.45
			c-0.09,0.16-0.14,0.33-0.22,0.49c-0.28,0.66-0.58,1.31-0.89,1.95c-0.21,0.68-0.43,1.37-0.65,2.06l-0.17,0.51
			c-0.05,0.17-0.06,0.36-0.1,0.54l-0.19,1.08l-0.22,1.08l-0.05,1.11c-0.18,1.47-0.01,3,0.08,4.52c0.15,0.77,0.29,1.53,0.41,2.31
			c0.14,0.77,0.46,1.54,0.66,2.31c0.13,0.39,0.18,0.78,0.37,1.16l0.49,1.15c0.33,0.77,0.58,1.56,1.06,2.3
			c0.42,0.76,0.84,1.52,1.26,2.28c0.51,0.73,1.03,1.47,1.55,2.21c0.46,0.77,1.14,1.44,1.73,2.16c0.61,0.69,1.18,1.51,1.82,2.05
			c0.62,0.6,1.23,1.21,1.83,1.84c0.23,0.28,0.81,0.71,1.24,1.08l1.4,1.15l1.4,1.15l0.35,0.29c0.38,0.31-0.32-0.25-0.2-0.17
			l0.13,0.09l0.54,0.35l1.06,0.71l0.53,0.37l0.58,0.29l1.15,0.59c0.38,0.2,0.75,0.43,1.18,0.56c0.84,0.28,1.62,0.68,2.5,0.92
			c3.44,1.08,7.32,1.53,11.42,1.35c4.09-0.17,8.39-0.97,12.6-2.29c1.05-0.35,2.12-0.66,3.14-1.09l1.56-0.6l1.52-0.68
			c0.49-0.23,1.07-0.45,1.48-0.68l1.31-0.67c0.23-0.12,0.41-0.19,0.69-0.36l0.87-0.51l1.47-0.86c7.25-4.59,13.15-11.5,16.81-20.04
			c3.73-8.5,5.22-18.43,4.64-28.44c-0.31-5.01-1.15-10.05-2.46-15c-0.7-2.46-1.45-4.92-2.39-7.32l-0.69-1.8l-0.76-1.78l-0.38-0.89
			l-0.39-0.82l-0.77-1.63c-0.11-0.25-0.3-0.6-0.47-0.92l-0.52-0.97l-0.52-0.97l-0.26-0.49c-0.07-0.13,0.11,0.2-0.02-0.03l-0.12-0.2
			c-0.66-1.06-1.25-2.17-1.95-3.2c-1.38-2.07-2.83-4.09-4.47-5.96c-3.23-3.76-6.95-7.09-11.1-9.87c-4.17-2.76-8.73-5-13.55-6.7
			c-4.82-1.71-9.93-2.78-15.11-3.38c-10.39-1.21-21.18-0.15-31.36,2.65c-2.53,0.74-5.05,1.53-7.5,2.5L800-1.31l-1.68,0.73
			l-0.84,0.36l-0.43,0.19l-0.5,0.24l-2,0.97l-0.5,0.24l-0.25,0.12c0.31-0.16-0.03,0.02-0.01,0.02l-0.79,0.47l-1.59,0.92l-1.59,0.91
			l-1.48,1.06l-1.48,1.04l-0.74,0.52l-0.68,0.59c-0.9,0.79-1.84,1.54-2.73,2.35c-6.97,6.59-11.79,15.32-14.62,24.93
			c-0.36,1.2-0.66,2.43-0.98,3.64c-0.26,1.24-0.58,2.46-0.8,3.72c-0.25,1.26-0.46,2.5-0.65,3.73l-0.3,2.07l-0.08,0.53l-0.04,0.39
			l-0.1,0.93c-0.62,4.95-0.71,9.98-0.41,14.97c0.31,4.98,0.97,9.94,2.03,14.77c1.07,4.83,2.48,9.54,4.19,14.06
			c1.71,4.51,3.71,8.85,6.03,12.81c0.56,0.97,1.11,1.79,1.64,2.7c0.22,0.4,0.66,1,1.01,1.52l1.11,1.61l0.28,0.4
			c-0.03-0.04,0.26,0.38-0.03-0.04l0.14,0.19l0.57,0.75l1.13,1.5c0.75,1,1.5,1.99,2.24,2.98c6.04,7.88,12.31,15.29,18.59,22.59
			c6.27,7.3,12.56,14.53,18.25,22.21c5.7,7.65,10.69,15.8,14.42,24.04c0.46,1.03,0.99,2.03,1.39,3.07c0.41,1.04,0.81,2.07,1.22,3.09
			c0.4,1.02,0.8,2.04,1.19,3.05c0.39,1.02,0.7,2.12,1.05,3.16c0.34,1.06,0.67,2.11,1,3.15c0.31,1.02,0.71,2.15,0.89,3
			c0.46,1.82,0.92,3.61,1.36,5.37c0.11,0.44,0.22,0.88,0.33,1.32l0.16,0.69l0.08,0.36l0.15,0.71c0.19,0.95,0.41,1.87,0.58,2.81
			c0.18,0.94,0.35,1.87,0.52,2.79c0.15,0.93,0.3,1.86,0.45,2.77c0.55,3.67,0.98,7.25,1.2,10.7c0.49,6.89,0.41,13.21,0.07,18.82
			c-0.36,5.61-0.88,10.57-1.5,14.81c-0.6,4.26-1.2,7.81-1.77,10.78c-0.54,3.02-0.99,5-1.28,6.44c-0.29,1.42-0.45,2.15-0.45,2.15
			l0,0.01c-1.35,6.5-7.71,10.67-14.21,9.32c-6.5-1.35-10.67-7.71-9.32-14.21C819.45,280.55,819.47,280.46,819.48,280.44z"/>
	</g>
	<path id="XMLID_67_" d="M847.89,232.46c0.5,6.89,0.42,13.21,0.08,18.82c-0.36,5.61-0.88,10.57-1.5,14.81
		c-0.6,4.26-1.21,7.81-1.77,10.78c-0.54,3.02-0.99,5-1.28,6.44c-0.3,1.42-0.45,2.15-0.45,2.15c-1.18,5.67-6.18,9.57-11.75,9.57
		c-0.81,0-1.63-0.08-2.46-0.25c-6.49-1.35-10.66-7.71-9.31-14.21c0-0.02,0.02-0.11,0.03-0.13c0,0,0.16-0.73,0.47-2.14
		c0.29-1.39,0.81-3.59,1.27-6.08c0.52-2.52,1.11-5.77,1.68-9.54c0.6-3.78,1.09-8.1,1.46-12.91c0.34-4.81,0.46-10.08,0.12-15.75
		c-0.15-2.84-0.47-5.78-0.89-8.83c-0.12-0.76-0.23-1.53-0.35-2.31c-0.13-0.78-0.27-1.57-0.41-2.36c-0.13-0.79-0.31-1.6-0.47-2.41
		l-0.12-0.61l-0.06-0.3l-0.03-0.15l0.05,0.18c-0.02-0.07-0.03-0.13-0.05-0.2c-0.09-0.37-0.19-0.75-0.27-1.12
		c-0.43-1.77-0.87-3.56-1.31-5.39c-0.21-0.98-0.47-1.62-0.71-2.43c-0.24-0.77-0.48-1.55-0.73-2.34c-0.26-0.79-0.45-1.57-0.76-2.38
		c-0.31-0.82-0.63-1.64-0.95-2.47c-0.32-0.83-0.64-1.66-0.96-2.5c-0.3-0.85-0.74-1.65-1.1-2.48c-2.96-6.65-6.9-13.27-11.85-20.01
		c-4.93-6.75-10.82-13.67-17.08-21.05s-12.84-15.25-19.22-23.71c-0.79-1.07-1.58-2.13-2.38-3.21l-1.2-1.61l-0.6-0.8l-0.15-0.21
		l-0.3-0.44l-0.28-0.4l-1.1-1.62c-0.37-0.55-0.71-1.01-1.15-1.74c-0.81-1.33-1.69-2.71-2.43-4.03c-2.96-5.15-5.4-10.55-7.47-16.12
		c-2.06-5.57-3.73-11.33-4.99-17.24c-1.25-5.92-2.03-12-2.36-18.19c-0.34-6.19-0.18-12.49,0.65-18.81l0.14-1.19l0.08-0.67l0.08-0.53
		l0.33-2.15c0.26-1.59,0.54-3.17,0.86-4.71c0.28-1.55,0.69-3.11,1.04-4.67c0.42-1.56,0.82-3.12,1.3-4.68
		c1.89-6.22,4.47-12.4,7.92-18.26c2.02-3.43,4.33-6.75,6.93-9.87H797l-0.46,0.22l-1.99,0.97l-0.5,0.24l-0.12,0.06l-0.01,0.01
		c-0.01,0-0.03,0.01-0.06,0.03c-0.04,0.02-0.08,0.04-0.07,0.04l-0.8,0.47l-1.58,0.92l-1.6,0.91l-1.47,1.05l-1.49,1.05l-0.74,0.52
		l-0.68,0.59c-0.9,0.79-1.84,1.54-2.73,2.35c-6.96,6.59-11.78,15.32-14.62,24.93c-0.36,1.2-0.66,2.42-0.98,3.64
		c-0.26,1.24-0.58,2.46-0.8,3.72c-0.25,1.26-0.46,2.5-0.65,3.73l-0.31,2.07l-0.07,0.53l-0.04,0.39l-0.1,0.94
		c-0.62,4.95-0.71,9.98-0.41,14.96c0.31,4.98,0.97,9.94,2.03,14.77c1.07,4.83,2.48,9.54,4.19,14.06c1.71,4.51,3.71,8.85,6.03,12.81
		c0.55,0.97,1.1,1.8,1.64,2.7c0.22,0.41,0.66,1,1.01,1.52l1.11,1.61l0.25,0.35l0.06,0.09l0.08,0.1l0.57,0.75l1.12,1.5
		c0.76,0.99,1.5,1.99,2.25,2.98c6.03,7.88,12.31,15.29,18.59,22.58c6.27,7.3,12.56,14.54,18.25,22.21
		c5.7,7.65,10.69,15.8,14.42,24.04c0.47,1.03,0.99,2.02,1.39,3.07c0.41,1.03,0.81,2.06,1.22,3.09c0.4,1.02,0.79,2.04,1.19,3.05
		c0.38,1.02,0.7,2.12,1.05,3.16c0.34,1.06,0.67,2.11,1,3.15c0.31,1.02,0.71,2.15,0.9,3c0.46,1.82,0.91,3.61,1.36,5.38
		c0.11,0.44,0.22,0.88,0.34,1.31l0.15,0.7l0.08,0.35l0.15,0.71c0.19,0.95,0.41,1.87,0.57,2.81c0.18,0.94,0.35,1.87,0.52,2.8
		c0.15,0.93,0.3,1.85,0.45,2.77C847.25,225.43,847.67,229.01,847.89,232.46z"/>
	<path id="XMLID_68_" d="M911.5,91.68c-2.59,6.02-6.07,11.7-10.31,16.74c-4.24,5.05-9.32,9.35-14.8,12.8l-2.02,1.18l-0.87,0.5
		c-0.29,0.17-0.73,0.39-1.08,0.58l-2.27,1.15c-0.77,0.4-1.44,0.66-2.16,0.99l-2.13,0.93l-2.15,0.82c-1.43,0.57-2.89,1.01-4.35,1.48
		c-5.83,1.78-11.85,2.89-18.01,3.13c-6.15,0.23-12.47-0.45-18.55-2.38c-1.52-0.45-2.99-1.11-4.47-1.68
		c-0.75-0.27-1.46-0.65-2.17-1.02l-2.11-1.11l-1.05-0.57l-1-0.66l-1.97-1.33l-0.97-0.68l-0.24-0.16c-0.02,0-0.48-0.37-0.59-0.47
		l-0.02-0.02l-0.3-0.25l-1.39-1.17l-1.38-1.17c-0.47-0.41-0.86-0.69-1.45-1.29c-1.09-1.06-2.17-2.13-3.22-3.21
		c-1.13-1.07-1.93-2.18-2.85-3.27c-0.88-1.12-1.83-2.15-2.58-3.38c-0.78-1.19-1.56-2.38-2.33-3.56c-0.7-1.25-1.34-2.53-1.99-3.79
		c-0.69-1.23-1.17-2.6-1.69-3.92c-0.26-0.67-0.51-1.33-0.77-1.99c-0.26-0.66-0.39-1.38-0.59-2.06c-0.34-1.39-0.77-2.74-1-4.15
		c-0.21-1.42-0.4-2.83-0.58-4.23c-0.15-2.84-0.25-5.66,0.13-8.45c0.08-0.69,0.15-1.39,0.23-2.08c0.14-0.68,0.29-1.36,0.44-2.04
		c0.15-0.67,0.3-1.35,0.46-2.02c0.08-0.33,0.14-0.67,0.24-1l0.34-0.97c0.45-1.29,0.9-2.58,1.39-3.83c0.59-1.21,1.19-2.41,1.79-3.59
		c0.15-0.3,0.29-0.6,0.46-0.88l0.54-0.83c0.36-0.55,0.71-1.09,1.07-1.64c0.36-0.54,0.73-1.08,1.09-1.61
		c0.39-0.51,0.81-0.99,1.21-1.48c0.83-0.96,1.61-1.97,2.49-2.84c0.9-0.85,1.8-1.7,2.69-2.53l0.67-0.62l0.48-0.4l0.14-0.11l0.29-0.21
		l1.14-0.87l0.3-0.22l0.44-0.3l0.89-0.59c0.58-0.38,1.2-0.79,1.77-1.12c2.16-1.2,4.35-2.24,6.59-3.01
		c8.9-3.18,18.25-3.05,26.22-0.18c1.01,0.31,1.96,0.77,2.91,1.19c0.47,0.22,0.94,0.42,1.4,0.67c0.45,0.25,0.89,0.5,1.34,0.75
		c0.44,0.26,0.87,0.52,1.31,0.77c0.43,0.26,0.83,0.57,1.24,0.85c0.4,0.29,0.8,0.58,1.2,0.87l0.3,0.22l0.15,0.1
		c0.15,0.12-0.12-0.1,0.36,0.29l0.42,0.35l0.21,0.18l0.29,0.26l0.72,0.66c0.51,0.48,0.79,0.8,1.16,1.19
		c0.69,0.76,1.32,1.52,1.89,2.27c1.14,1.52,2.09,3.04,2.92,4.56c3.27,6.05,4.65,12.31,4.42,18.23c-0.13,2.94-0.71,5.76-1.61,8.25
		c-0.88,2.49-2.08,4.65-3.31,6.4c-2.47,3.55-4.98,5.55-6.6,6.78c-0.81,0.65-1.45,1.03-1.88,1.34c-0.43,0.28-0.64,0.43-0.64,0.43
		c-4.54,3.04-10.69,1.83-13.74-2.71c-3.04-4.54-1.83-10.69,2.71-13.73c0.29-0.2,0.58-0.37,0.88-0.53l0.25-0.13
		c0,0,0.1-0.05,0.29-0.16c0.18-0.11,0.53-0.23,0.86-0.45c0.74-0.42,1.69-1.1,2.53-2.07c0.45-0.49,0.84-1.06,1.16-1.79
		c0.32-0.73,0.6-1.61,0.69-2.72c0.09-1.1,0.06-2.43-0.26-3.91c-0.32-1.47-0.87-3.09-1.69-4.66c-0.42-0.77-0.9-1.53-1.41-2.21
		c-0.26-0.34-0.52-0.66-0.78-0.94c-0.12-0.12-0.3-0.33-0.32-0.33c-0.02-0.02-0.04-0.05-0.06-0.08l-0.02-0.02l-0.09-0.08l-0.2-0.17
		l-0.25-0.21l-0.02-0.01l-0.01-0.01l-0.07-0.04l-0.14-0.1l-0.59-0.4c-0.2-0.14-0.39-0.29-0.6-0.42l-0.64-0.34l-0.64-0.37
		c-0.22-0.12-0.46-0.19-0.69-0.3c-0.46-0.19-0.91-0.43-1.42-0.56c-3.87-1.38-8.94-1.37-13.71,0.48c-1.2,0.45-2.32,1.07-3.42,1.71
		c-0.24,0.16-0.39,0.29-0.6,0.42l-0.3,0.19l-0.15,0.1l-0.27,0.21l-1.11,0.91l-0.28,0.22l-0.05,0.05c0.04-0.03,0.07-0.06,0.11-0.08
		l-0.36,0.38c-0.5,0.51-1,1.02-1.52,1.52c-0.49,0.52-0.87,1.12-1.33,1.67c-0.22,0.28-0.46,0.55-0.67,0.84l-0.54,0.92l-0.57,0.91
		l-0.28,0.46c-0.09,0.15-0.15,0.32-0.22,0.49c-0.29,0.65-0.58,1.3-0.9,1.95c-0.21,0.68-0.43,1.37-0.64,2.06l-0.18,0.52
		c-0.04,0.17-0.06,0.36-0.09,0.53l-0.19,1.08l-0.22,1.08l-0.05,1.11c-0.18,1.47-0.01,3,0.08,4.52c0.16,0.77,0.3,1.54,0.42,2.31
		c0.14,0.78,0.46,1.54,0.66,2.32c0.13,0.38,0.18,0.78,0.37,1.16l0.49,1.15c0.33,0.77,0.58,1.56,1.06,2.3
		c0.42,0.76,0.84,1.52,1.26,2.29c0.51,0.73,1.03,1.47,1.55,2.21c0.46,0.76,1.14,1.44,1.72,2.16c0.61,0.69,1.19,1.51,1.82,2.05
		c0.62,0.6,1.23,1.21,1.84,1.83c0.22,0.29,0.81,0.72,1.24,1.09l1.4,1.14l1.4,1.28l0.15,0.26h0.01l0.01-0.12l0.12,0.01l0.53,0.32
		l1.06,0.69l0.53,0.36l0.58,0.29l1.15,0.59c0.38,0.21,0.75,0.43,1.18,0.56c0.84,0.28,1.62,0.68,2.5,0.92
		c3.43,1.08,7.32,1.53,11.41,1.35c4.1-0.17,8.39-0.96,12.61-2.28c1.05-0.35,2.12-0.66,3.14-1.09l1.56-0.6l1.53-0.68
		c0.48-0.23,1.07-0.45,1.47-0.68l1.31-0.66c0.24-0.13,0.41-0.19,0.7-0.36l0.87-0.51l1.46-0.86c7.25-4.58,13.15-11.5,16.81-20.04
		c3.74-8.5,5.23-18.43,4.64-28.44c-0.31-5.02-1.15-10.05-2.46-15c-0.69-2.46-1.44-4.92-2.38-7.32l-0.7-1.8l-1.14-2.67l-0.39-0.82
		l-0.77-1.63c-0.11-0.24-0.3-0.6-0.47-0.92l-0.52-0.97l-0.51-0.98l-0.23-0.43c0,0-0.01-0.01-0.03-0.05
		c-0.01-0.02-0.02-0.03-0.02-0.03l-0.12-0.2c-0.66-1.06-1.25-2.17-1.95-3.2c-1.38-2.07-2.83-4.09-4.47-5.96
		c-3.23-3.75-6.95-7.09-11.1-9.87c-1.58-1.05-3.22-2.02-4.91-2.91h33.07c1.9,2.28,3.62,4.69,5.24,7.14
		c0.95,1.42,1.77,2.91,2.65,4.36l0.16,0.26c0,0,0.23,0.43,0.25,0.46l0.26,0.49l0.51,0.97l0.52,0.98c0.17,0.33,0.33,0.62,0.53,1.04
		l1.13,2.35l0.55,1.17l0.49,1.13l0.96,2.26l0.89,2.29c1.19,3.06,2.15,6.19,3.03,9.33c1.67,6.31,2.75,12.76,3.16,19.24
		C918.6,66.42,916.75,79.63,911.5,91.68z"/>
</g>
<g id="group" class="st12">
	<g id="leftEyeA" class="st15">
		<circle id="leftpath" class="st16" cx="798.51" cy="588.02" r="23.21"/>
		<circle id="leftpupil" cx="798.74" cy="603.02" r="7.98"/>
	</g>
	<g id="rightEyeA" class="st15">
		<circle id="rightpath" class="st16" cx="869.51" cy="588.02" r="23.21"/>
		<circle id="rightpupil" cx="869.74" cy="603.02" r="7.98"/>
	</g>
</g>
<path id="leftEye_1_" class="st11" d="M798.51,564.31c-13.08,0-23.71,10.64-23.71,23.71c0,13.08,10.64,23.71,23.71,23.71
	c13.07,0,23.71-10.64,23.71-23.71C822.22,574.95,811.59,564.31,798.51,564.31z M801.37,610.55c3.11-1.09,5.35-4.04,5.35-7.53
	c0-4.41-3.57-7.98-7.98-7.98c-4.41,0-7.98,3.57-7.98,7.98c0,3.56,2.34,6.58,5.56,7.6c-11.5-1.11-20.52-10.82-20.52-22.6
	c0-12.52,10.19-22.71,22.71-22.71c12.52,0,22.71,10.19,22.71,22.71C821.22,599.58,812.55,609.14,801.37,610.55z"/>
<path id="rightEye_1_" class="st11" d="M869.51,564.31c-13.08,0-23.71,10.64-23.71,23.71c0,13.08,10.64,23.71,23.71,23.71
	c13.07,0,23.71-10.64,23.71-23.71C893.22,574.95,882.59,564.31,869.51,564.31z M872.37,610.55c3.11-1.09,5.35-4.04,5.35-7.53
	c0-4.41-3.57-7.98-7.98-7.98c-4.41,0-7.98,3.57-7.98,7.98c0,3.56,2.34,6.58,5.56,7.6c-11.5-1.11-20.52-10.82-20.52-22.6
	c0-12.52,10.19-22.71,22.71-22.71c12.52,0,22.71,10.19,22.71,22.71C892.22,599.58,883.55,609.14,872.37,610.55z"/>
</svg>
